STARTFONT 2.1
COMMENT $Xorg: $
COMMENT ISO10646-1 extension by Markus Kuhn <mkuhn@acm.org>, 2001-03-20
COMMENT  (c) Copyright Bigelow & Holmes 1986, 1985. Lucida is a registered
COMMENT  trademark of Bigelow & Holmes. See LEGAL NOTICE file for terms 
COMMENT  of the license. 
FONT -B&H-LucidaBright-Medium-I-Normal--20-140-100-100-P-113-ISO10646-1
SIZE 14 100 100
FONTBOUNDINGBOX 33 32 -10 -9
STARTPROPERTIES 22
COMMENT Begin LogicalFontDescription
FONTNAME_REGISTRY ""
FOUNDRY "B&H"
FAMILY_NAME "LucidaBright"
WEIGHT_NAME "Medium"
SLANT "I"
SETWIDTH_NAME "Normal"
ADD_STYLE_NAME ""
PIXEL_SIZE 20
POINT_SIZE 140
RESOLUTION_X 100
RESOLUTION_Y 100
SPACING "P"
AVERAGE_WIDTH 113
CHARSET_REGISTRY "ISO10646"
CHARSET_ENCODING "1"
COMMENT END LogicalFontDescription
FONT_ASCENT 18
FONT_DESCENT 5
DEFAULT_CHAR 0
COPYRIGHT "Copyright Bigelow & Holmes 1986, 1985."
FACE_NAME "Lucida Bright Italic"
X_HEIGHT 11
CAP_HEIGHT 15
ENDPROPERTIES
CHARS 723
STARTCHAR char0
ENCODING 0
SWIDTH 776 0
DWIDTH 16 0
BBX 17 15 1 0
BITMAP
AAAA80
000000
800080
000000
800080
000000
800080
000000
800080
000000
800080
000000
800080
000000
AAAA80
ENDCHAR
STARTCHAR space
ENCODING 32
SWIDTH 333 0
DWIDTH 6 0
BBX 1 1 0 0
BITMAP
00
ENDCHAR
STARTCHAR exclam
ENCODING 33
SWIDTH 265 0
DWIDTH 5 0
BBX 5 15 2 0
BITMAP
18
18
10
30
30
30
20
20
20
20
20
40
00
00
C0
ENDCHAR
STARTCHAR quotedbl
ENCODING 34
SWIDTH 377 0
DWIDTH 8 0
BBX 5 5 4 10
BITMAP
D8
D8
D8
48
48
ENDCHAR
STARTCHAR numbersign
ENCODING 35
SWIDTH 608 0
DWIDTH 12 0
BBX 12 15 2 0
BITMAP
0130
0220
0220
0640
0440
7FF0
0880
0880
1100
1100
FFE0
2200
2400
4400
C800
ENDCHAR
STARTCHAR dollar
ENCODING 36
SWIDTH 608 0
DWIDTH 12 0
BBX 9 18 3 -2
BITMAP
0200
1F80
3480
2480
6400
6400
3800
3800
0C00
1600
1300
1300
1300
9300
D600
F800
2000
2000
ENDCHAR
STARTCHAR percent
ENCODING 37
SWIDTH 759 0
DWIDTH 15 0
BBX 16 15 1 0
BITMAP
1E03
3304
6308
6310
4220
6640
3C80
0138
0264
06C4
0C86
1884
3084
60C8
C070
ENDCHAR
STARTCHAR ampersand
ENCODING 38
SWIDTH 727 0
DWIDTH 15 0
BBX 14 15 2 0
BITMAP
03C0
0640
0C60
0C40
0CC0
0D80
1E00
267C
4610
C330
C320
C1E0
C1C0
61C0
3EF0
ENDCHAR
STARTCHAR quotesingle
ENCODING 39
SWIDTH 231 0
DWIDTH 5 0
BBX 2 5 3 10
BITMAP
C0
C0
C0
40
40
ENDCHAR
STARTCHAR parenleft
ENCODING 40
SWIDTH 310 0
DWIDTH 6 0
BBX 7 19 2 -4
BITMAP
06
08
08
10
30
20
60
60
C0
C0
C0
C0
C0
C0
C0
40
40
40
20
ENDCHAR
STARTCHAR parenright
ENCODING 41
SWIDTH 310 0
DWIDTH 6 0
BBX 7 19 0 -4
BITMAP
08
08
04
04
04
04
04
06
04
0C
0C
0C
08
18
10
10
20
40
80
ENDCHAR
STARTCHAR asterisk
ENCODING 42
SWIDTH 458 0
DWIDTH 9 0
BBX 7 7 3 8
BITMAP
18
10
D6
2C
30
C8
48
ENDCHAR
STARTCHAR plus
ENCODING 43
SWIDTH 608 0
DWIDTH 12 0
BBX 12 13 1 0
BITMAP
0300
0200
0200
0200
0200
0200
FFF0
0400
0400
0400
0400
0C00
0800
ENDCHAR
STARTCHAR comma
ENCODING 44
SWIDTH 265 0
DWIDTH 5 0
BBX 4 7 1 -4
BITMAP
70
70
70
20
20
60
C0
ENDCHAR
STARTCHAR hyphen
ENCODING 45
SWIDTH 313 0
DWIDTH 6 0
BBX 5 1 2 7
BITMAP
F8
ENDCHAR
STARTCHAR period
ENCODING 46
SWIDTH 265 0
DWIDTH 5 0
BBX 3 2 1 0
BITMAP
E0
E0
ENDCHAR
STARTCHAR slash
ENCODING 47
SWIDTH 458 0
DWIDTH 9 0
BBX 13 19 0 -4
BITMAP
0018
0010
0020
0020
0040
00C0
0080
0100
0300
0200
0600
0400
0800
1800
1000
2000
2000
4000
C000
ENDCHAR
STARTCHAR zero
ENCODING 48
SWIDTH 608 0
DWIDTH 12 0
BBX 11 15 2 0
BITMAP
0780
18C0
30C0
3060
6060
6060
C060
C0C0
C0C0
C0C0
C0C0
C180
C100
6200
3C00
ENDCHAR
STARTCHAR one
ENCODING 49
SWIDTH 608 0
DWIDTH 12 0
BBX 8 15 2 0
BITMAP
1F
03
06
06
06
06
06
0C
0C
0C
0C
0C
18
18
FF
ENDCHAR
STARTCHAR two
ENCODING 50
SWIDTH 608 0
DWIDTH 12 0
BBX 11 15 2 0
BITMAP
0F80
18C0
1060
1060
0060
00C0
00C0
0180
0200
0C00
1000
2000
6000
C000
FF80
ENDCHAR
STARTCHAR three
ENCODING 51
SWIDTH 608 0
DWIDTH 12 0
BBX 10 15 2 0
BITMAP
1F80
10C0
10C0
00C0
00C0
0380
1E00
0300
0180
0180
0180
0180
8300
C700
FC00
ENDCHAR
STARTCHAR four
ENCODING 52
SWIDTH 608 0
DWIDTH 12 0
BBX 11 15 1 0
BITMAP
0060
00C0
01C0
02C0
04C0
08C0
1080
2180
4180
FFE0
0100
0100
0300
0300
0FC0
ENDCHAR
STARTCHAR five
ENCODING 53
SWIDTH 608 0
DWIDTH 12 0
BBX 11 15 2 0
BITMAP
1FE0
2000
2000
2000
2000
3E00
0300
0180
0180
0180
0180
0180
8300
C600
FC00
ENDCHAR
STARTCHAR six
ENCODING 54
SWIDTH 608 0
DWIDTH 12 0
BBX 11 15 2 0
BITMAP
07C0
0C60
1040
3000
6000
6F00
7180
E0C0
C0C0
C0C0
C0C0
C180
C180
6300
3C00
ENDCHAR
STARTCHAR seven
ENCODING 55
SWIDTH 608 0
DWIDTH 12 0
BBX 11 15 3 0
BITMAP
3FE0
0060
0040
0080
0100
0200
0400
0400
0800
1000
3000
6000
6000
E000
C000
ENDCHAR
STARTCHAR eight
ENCODING 56
SWIDTH 608 0
DWIDTH 12 0
BBX 11 15 2 0
BITMAP
0780
18C0
3060
3060
3040
39C0
1F00
1F00
6380
41C0
C0C0
C0C0
C180
6300
3E00
ENDCHAR
STARTCHAR nine
ENCODING 57
SWIDTH 608 0
DWIDTH 12 0
BBX 11 15 2 0
BITMAP
0780
18C0
30C0
3060
6060
6060
6060
60C0
31C0
1EC0
0180
0180
8300
C600
FC00
ENDCHAR
STARTCHAR colon
ENCODING 58
SWIDTH 265 0
DWIDTH 5 0
BBX 5 11 1 0
BITMAP
38
38
00
00
00
00
00
00
00
E0
E0
ENDCHAR
STARTCHAR semicolon
ENCODING 59
SWIDTH 265 0
DWIDTH 5 0
BBX 5 15 1 -4
BITMAP
38
38
00
00
00
00
00
00
00
60
60
60
60
40
C0
ENDCHAR
STARTCHAR less
ENCODING 60
SWIDTH 608 0
DWIDTH 12 0
BBX 13 13 1 0
BITMAP
0008
0030
00C0
0300
0C00
3000
C000
3000
1C00
0600
0180
00C0
0020
ENDCHAR
STARTCHAR equal
ENCODING 61
SWIDTH 608 0
DWIDTH 12 0
BBX 12 6 1 3
BITMAP
7FF0
0000
0000
0000
0000
FFE0
ENDCHAR
STARTCHAR greater
ENCODING 62
SWIDTH 608 0
DWIDTH 12 0
BBX 13 13 0 0
BITMAP
2000
1800
0C00
0300
01C0
0060
0018
0060
0180
0600
1800
6000
8000
ENDCHAR
STARTCHAR question
ENCODING 63
SWIDTH 471 0
DWIDTH 9 0
BBX 8 15 3 0
BITMAP
3C
47
C3
83
07
06
0C
10
20
60
60
00
00
00
C0
ENDCHAR
STARTCHAR at
ENCODING 64
SWIDTH 861 0
DWIDTH 17 0
BBX 16 15 2 0
BITMAP
03F0
0C0C
1006
21F2
4221
4421
8861
8861
88E2
88C2
8944
8E78
4000
3040
0F80
ENDCHAR
STARTCHAR A
ENCODING 65
SWIDTH 747 0
DWIDTH 15 0
BBX 15 15 0 0
BITMAP
0020
0060
00E0
00F0
0130
0330
0230
0430
0438
0FF8
1018
1018
2018
601C
F07E
ENDCHAR
STARTCHAR B
ENCODING 66
SWIDTH 606 0
DWIDTH 12 0
BBX 12 15 1 0
BITMAP
1FE0
0C70
0C30
0C30
0C30
0860
18C0
1F00
18C0
1860
1860
3060
3060
31C0
FF80
ENDCHAR
STARTCHAR C
ENCODING 67
SWIDTH 714 0
DWIDTH 14 0
BBX 13 15 2 0
BITMAP
03F8
0C18
1818
3018
6000
6000
6000
C000
C000
C000
C000
C000
6000
7060
1F80
ENDCHAR
STARTCHAR D
ENCODING 68
SWIDTH 770 0
DWIDTH 15 0
BBX 16 15 0 0
BITMAP
1FF8
0E1E
0C06
0C07
0C03
0C03
0C03
1803
1807
1806
180E
380C
3018
3070
FFC0
ENDCHAR
STARTCHAR E
ENCODING 69
SWIDTH 569 0
DWIDTH 11 0
BBX 13 15 0 0
BITMAP
1FF8
0608
0C18
0C00
0C00
0C00
0C20
1FC0
1840
1800
1800
1800
3020
3060
FFE0
ENDCHAR
STARTCHAR F
ENCODING 70
SWIDTH 551 0
DWIDTH 11 0
BBX 13 15 0 0
BITMAP
1FF8
0608
0C18
0C00
0C00
0C00
0C20
1FC0
1840
1800
1800
1800
3000
3000
FC00
ENDCHAR
STARTCHAR G
ENCODING 71
SWIDTH 756 0
DWIDTH 15 0
BBX 14 15 2 0
BITMAP
03FC
0E08
1808
3000
7000
6000
6000
C000
C0FC
C030
C030
E060
6060
7060
1F80
ENDCHAR
STARTCHAR H
ENCODING 72
SWIDTH 776 0
DWIDTH 16 0
BBX 17 15 1 0
BITMAP
1F1F80
0E0600
0C0600
0C0600
0C0E00
0C0C00
180C00
1FFC00
180C00
181C00
181800
301800
301800
303800
FC7C00
ENDCHAR
STARTCHAR I
ENCODING 73
SWIDTH 325 0
DWIDTH 7 0
BBX 9 15 0 0
BITMAP
1F80
0600
0600
0C00
0C00
0C00
0C00
1C00
1800
1800
1800
1800
3000
3000
FC00
ENDCHAR
STARTCHAR J
ENCODING 74
SWIDTH 422 0
DWIDTH 8 0
BBX 11 19 0 -4
BITMAP
07E0
0180
0180
0180
0380
0300
0300
0300
0300
0300
0700
0600
0600
0600
0600
0400
CC00
C800
F000
ENDCHAR
STARTCHAR K
ENCODING 75
SWIDTH 698 0
DWIDTH 14 0
BBX 15 15 1 0
BITMAP
1F1E
0E0C
0C10
0C20
0CC0
0D80
1B00
1F00
1B00
1980
19C0
30C0
3060
3070
FCF8
ENDCHAR
STARTCHAR L
ENCODING 76
SWIDTH 572 0
DWIDTH 11 0
BBX 11 15 1 0
BITMAP
1F00
0E00
0C00
0C00
0C00
0C00
1800
1800
1800
1800
1800
3000
3020
3060
FFE0
ENDCHAR
STARTCHAR M
ENCODING 77
SWIDTH 865 0
DWIDTH 17 0
BBX 19 15 1 0
BITMAP
1E01E0
0E0380
0E0380
0E0580
0B0F00
0B0B00
131300
131300
112300
11E200
11C600
318600
208600
200E00
F81F00
ENDCHAR
STARTCHAR N
ENCODING 78
SWIDTH 762 0
DWIDTH 15 0
BBX 17 15 0 0
BITMAP
1C0780
0E0300
0E0200
0F0200
0B0200
098400
118400
10C400
10C400
106400
107400
203800
203800
201800
F80800
ENDCHAR
STARTCHAR O
ENCODING 79
SWIDTH 783 0
DWIDTH 16 0
BBX 14 15 2 0
BITMAP
03E0
0C38
1818
300C
600C
600C
600C
C00C
C00C
C018
C018
C030
6060
70C0
1F00
ENDCHAR
STARTCHAR P
ENCODING 80
SWIDTH 579 0
DWIDTH 12 0
BBX 13 15 0 0
BITMAP
1FF0
0E38
0C18
0C18
0C18
0C30
0C30
18E0
1F80
1800
1800
3800
3000
3000
FC00
ENDCHAR
STARTCHAR Q
ENCODING 81
SWIDTH 788 0
DWIDTH 16 0
BBX 16 19 2 -4
BITMAP
03E0
0C38
1818
300C
600C
600C
600C
C00C
C01C
C018
C018
C030
6070
70E0
1FC0
0100
0080
00C0
003F
ENDCHAR
STARTCHAR R
ENCODING 82
SWIDTH 686 0
DWIDTH 14 0
BBX 13 15 1 0
BITMAP
1FF0
0C70
0C30
0C38
0C30
1C20
18C0
1F80
1980
19C0
18C0
30C0
3060
3070
FC38
ENDCHAR
STARTCHAR S
ENCODING 83
SWIDTH 549 0
DWIDTH 11 0
BBX 11 15 1 0
BITMAP
07C0
1860
1820
3020
3800
1800
1C00
0700
0380
0180
0180
C180
8180
C300
7E00
ENDCHAR
STARTCHAR T
ENCODING 84
SWIDTH 663 0
DWIDTH 13 0
BBX 13 15 3 0
BITMAP
FFF8
C708
8618
0600
0600
0600
0E00
0C00
0C00
0C00
0C00
1C00
1800
1800
7E00
ENDCHAR
STARTCHAR U
ENCODING 85
SWIDTH 727 0
DWIDTH 15 0
BBX 14 15 3 0
BITMAP
FC7C
3010
3010
6010
6020
6020
6020
6020
C020
C040
C040
C040
C080
6180
3E00
ENDCHAR
STARTCHAR V
ENCODING 86
SWIDTH 656 0
DWIDTH 13 0
BBX 14 15 2 0
BITMAP
F83C
6008
6010
3030
3020
3040
3040
3080
1980
1900
1A00
1A00
1C00
1C00
0800
ENDCHAR
STARTCHAR W
ENCODING 87
SWIDTH 878 0
DWIDTH 18 0
BBX 18 15 3 0
BITMAP
F843C0
60C180
60C100
61C300
61C200
62C600
22C400
244C00
344800
3C7800
387000
387000
306000
306000
204000
ENDCHAR
STARTCHAR X
ENCODING 88
SWIDTH 624 0
DWIDTH 12 0
BBX 16 15 0 0
BITMAP
1F8F
0606
0608
0318
0330
01E0
01C0
01C0
01C0
02E0
0460
0860
1030
2030
F0FC
ENDCHAR
STARTCHAR Y
ENCODING 89
SWIDTH 663 0
DWIDTH 13 0
BBX 13 15 3 0
BITMAP
F878
7030
3020
3040
3880
1900
1B00
0E00
0C00
0C00
0C00
1800
1800
1800
7E00
ENDCHAR
STARTCHAR Z
ENCODING 90
SWIDTH 633 0
DWIDTH 13 0
BBX 13 15 1 0
BITMAP
1FF8
1030
1070
0060
00C0
0180
0300
0700
0600
0C00
1800
3800
7020
6060
FFE0
ENDCHAR
STARTCHAR bracketleft
ENCODING 91
SWIDTH 310 0
DWIDTH 6 0
BBX 8 19 1 -4
BITMAP
0F
08
18
18
18
18
10
30
30
30
30
20
60
60
60
40
40
C0
F0
ENDCHAR
STARTCHAR backslash
ENCODING 92
SWIDTH 458 0
DWIDTH 9 0
BBX 5 19 3 -4
BITMAP
80
80
C0
40
40
40
40
60
20
20
20
20
10
10
10
10
18
08
08
ENDCHAR
STARTCHAR bracketright
ENCODING 93
SWIDTH 310 0
DWIDTH 6 0
BBX 7 19 1 -4
BITMAP
1E
06
06
04
04
0C
0C
0C
0C
08
08
18
18
18
10
10
30
30
F0
ENDCHAR
STARTCHAR asciicircum
ENCODING 94
SWIDTH 608 0
DWIDTH 12 0
BBX 12 13 1 2
BITMAP
0080
0180
0180
0280
0280
0440
0840
0840
1020
3020
2020
4020
C010
ENDCHAR
STARTCHAR underscore
ENCODING 95
SWIDTH 500 0
DWIDTH 10 0
BBX 8 1 1 -2
BITMAP
FF
ENDCHAR
STARTCHAR grave
ENCODING 96
SWIDTH 560 0
DWIDTH 11 0
BBX 4 3 6 12
BITMAP
E0
20
10
ENDCHAR
STARTCHAR a
ENCODING 97
SWIDTH 608 0
DWIDTH 12 0
BBX 11 11 1 0
BITMAP
07E0
0860
1060
20C0
60C0
60C0
C1C0
C2C0
C580
CD80
71E0
ENDCHAR
STARTCHAR b
ENCODING 98
SWIDTH 596 0
DWIDTH 12 0
BBX 11 15 2 0
BITMAP
7800
1800
1800
1000
31C0
3660
3C60
2860
7060
6040
60C0
6080
4180
E300
FC00
ENDCHAR
STARTCHAR c
ENCODING 99
SWIDTH 487 0
DWIDTH 10 0
BBX 9 11 2 0
BITMAP
0F80
1180
2080
6000
4000
C000
C000
C000
C000
6300
3C00
ENDCHAR
STARTCHAR d
ENCODING 100
SWIDTH 608 0
DWIDTH 12 0
BBX 12 15 1 0
BITMAP
00F0
0030
0060
0060
07E0
0860
1060
20C0
60C0
60C0
C1C0
C2C0
C580
CD80
71E0
ENDCHAR
STARTCHAR e
ENCODING 101
SWIDTH 518 0
DWIDTH 10 0
BBX 9 11 2 0
BITMAP
0F00
1180
2180
6100
4300
C600
F800
C000
C180
6300
3C00
ENDCHAR
STARTCHAR f
ENCODING 102
SWIDTH 380 0
DWIDTH 8 0
BBX 10 20 1 -4
BITMAP
03C0
0440
0CC0
0800
1800
7F00
1800
3000
3000
3000
3000
3000
6000
6000
6000
6000
6000
C000
C000
C000
ENDCHAR
STARTCHAR g
ENCODING 103
SWIDTH 602 0
DWIDTH 12 0
BBX 11 15 1 -4
BITMAP
07E0
0860
1060
3040
30C0
60C0
61C0
61C0
6280
6580
3980
0180
8100
C200
7C00
ENDCHAR
STARTCHAR h
ENCODING 104
SWIDTH 631 0
DWIDTH 13 0
BBX 11 15 2 0
BITMAP
7800
1800
1800
3000
31C0
3260
3460
2840
70C0
60C0
60C0
60C0
4080
C180
C1E0
ENDCHAR
STARTCHAR i
ENCODING 105
SWIDTH 289 0
DWIDTH 6 0
BBX 5 15 2 0
BITMAP
18
00
00
00
F0
30
30
20
60
60
60
60
40
C0
F0
ENDCHAR
STARTCHAR j
ENCODING 106
SWIDTH 343 0
DWIDTH 7 0
BBX 10 19 -1 -4
BITMAP
00C0
0000
0000
0000
0780
0180
0180
0180
0300
0300
0300
0300
0300
0600
0600
0600
8400
8800
F000
ENDCHAR
STARTCHAR k
ENCODING 107
SWIDTH 560 0
DWIDTH 11 0
BBX 10 15 2 0
BITMAP
7800
1800
1000
3000
30C0
3080
3180
2600
6800
7800
6C00
6E00
4600
C300
C3C0
ENDCHAR
STARTCHAR l
ENCODING 108
SWIDTH 289 0
DWIDTH 6 0
BBX 5 15 2 0
BITMAP
78
18
10
30
30
30
30
20
60
60
60
60
40
C0
F0
ENDCHAR
STARTCHAR m
ENCODING 109
SWIDTH 944 0
DWIDTH 19 0
BBX 17 11 2 0
BITMAP
F1C700
36C980
3CD180
78F180
70E300
60C300
618300
618300
C18200
C18600
C18780
ENDCHAR
STARTCHAR n
ENCODING 110
SWIDTH 631 0
DWIDTH 13 0
BBX 11 11 2 0
BITMAP
F1C0
3260
3460
2840
70C0
60C0
60C0
60C0
4080
C180
C1E0
ENDCHAR
STARTCHAR o
ENCODING 111
SWIDTH 560 0
DWIDTH 11 0
BBX 10 11 2 0
BITMAP
0F00
1980
30C0
60C0
60C0
C0C0
C180
C180
C300
E600
7C00
ENDCHAR
STARTCHAR p
ENCODING 112
SWIDTH 608 0
DWIDTH 12 0
BBX 11 15 2 -4
BITMAP
79C0
3260
3460
3860
3860
3040
20C0
6080
6180
6100
7E00
4000
C000
C000
C000
ENDCHAR
STARTCHAR q
ENCODING 113
SWIDTH 599 0
DWIDTH 12 0
BBX 11 15 1 -4
BITMAP
07E0
0860
1060
20C0
60C0
60C0
C1C0
C2C0
C580
CD80
7180
0180
0180
0300
0300
ENDCHAR
STARTCHAR r
ENCODING 114
SWIDTH 470 0
DWIDTH 9 0
BBX 9 11 2 0
BITMAP
F180
3700
3C00
6800
7000
6000
6000
6000
C000
C000
C000
ENDCHAR
STARTCHAR s
ENCODING 115
SWIDTH 440 0
DWIDTH 9 0
BBX 9 11 1 0
BITMAP
0F00
1880
3080
3000
1800
0E00
0600
8300
8300
C700
7C00
ENDCHAR
STARTCHAR t
ENCODING 116
SWIDTH 355 0
DWIDTH 7 0
BBX 6 14 2 0
BITMAP
30
30
30
FC
60
60
60
60
60
C0
C0
C0
C0
70
ENDCHAR
STARTCHAR u
ENCODING 117
SWIDTH 630 0
DWIDTH 13 0
BBX 11 11 2 0
BITMAP
F1E0
3060
2060
60C0
60C0
60C0
61C0
42C0
C780
CD80
71E0
ENDCHAR
STARTCHAR v
ENCODING 118
SWIDTH 558 0
DWIDTH 11 0
BBX 11 11 1 0
BITMAP
F060
3020
3060
1860
1840
1880
1900
0B00
0E00
0C00
0800
ENDCHAR
STARTCHAR w
ENCODING 119
SWIDTH 805 0
DWIDTH 16 0
BBX 16 11 1 0
BITMAP
E087
30C3
31C2
31C6
13C4
1A4C
1E68
1C70
1C70
1860
1040
ENDCHAR
STARTCHAR x
ENCODING 120
SWIDTH 510 0
DWIDTH 10 0
BBX 10 11 1 0
BITMAP
70C0
38C0
1880
1900
0E00
0C00
1600
2600
4300
C380
C1C0
ENDCHAR
STARTCHAR y
ENCODING 121
SWIDTH 558 0
DWIDTH 11 0
BBX 13 15 0 -4
BITMAP
7830
1818
1810
0C20
0C20
0C40
0C80
0500
0500
0600
0400
0800
1000
3000
E000
ENDCHAR
STARTCHAR z
ENCODING 122
SWIDTH 536 0
DWIDTH 11 0
BBX 10 11 1 0
BITMAP
3FC0
2180
2300
0300
0600
0C00
1800
3000
6080
6180
FF80
ENDCHAR
STARTCHAR braceleft
ENCODING 123
SWIDTH 337 0
DWIDTH 7 0
BBX 7 19 2 -4
BITMAP
0E
18
18
18
18
10
10
10
20
C0
60
20
60
60
40
C0
C0
C0
60
ENDCHAR
STARTCHAR bar
ENCODING 124
SWIDTH 241 0
DWIDTH 5 0
BBX 5 19 1 -4
BITMAP
08
18
18
10
10
10
30
30
20
20
20
60
60
40
40
40
C0
C0
80
ENDCHAR
STARTCHAR braceright
ENCODING 125
SWIDTH 337 0
DWIDTH 7 0
BBX 7 19 2 -4
BITMAP
0C
06
06
06
0C
0C
0C
08
08
06
08
10
10
30
30
30
30
20
C0
ENDCHAR
STARTCHAR asciitilde
ENCODING 126
SWIDTH 608 0
DWIDTH 12 0
BBX 12 6 1 3
BITMAP
3810
4C10
8610
8610
8320
81C0
ENDCHAR
STARTCHAR space
ENCODING 160
SWIDTH 333 0
DWIDTH 6 0
BBX 1 1 0 0
BITMAP
00
ENDCHAR
STARTCHAR exclamdown
ENCODING 161
SWIDTH 265 0
DWIDTH 5 0
BBX 5 15 1 -4
BITMAP
18
00
00
00
30
20
20
20
20
60
60
60
C0
C0
C0
ENDCHAR
STARTCHAR cent
ENCODING 162
SWIDTH 608 0
DWIDTH 12 0
BBX 9 15 3 0
BITMAP
0200
0380
1C80
3480
6400
4400
C400
C400
C800
C800
C800
E900
7E00
1000
1000
ENDCHAR
STARTCHAR sterling
ENCODING 163
SWIDTH 608 0
DWIDTH 12 0
BBX 11 15 2 0
BITMAP
01E0
0220
0420
0C00
0C00
0C00
1800
7F00
1800
1800
1800
3000
3000
4000
FF00
ENDCHAR
STARTCHAR currency
ENCODING 164
SWIDTH 608 0
DWIDTH 12 0
BBX 14 13 1 1
BITMAP
2008
101C
0FB0
0C60
1020
1020
2020
2020
1040
10C0
2F40
4020
8030
ENDCHAR
STARTCHAR yen
ENCODING 165
SWIDTH 608 0
DWIDTH 12 0
BBX 13 15 2 0
BITMAP
F878
7020
3020
3840
1880
1D00
0C00
7F80
0C00
0C00
7F00
1800
1800
1800
7C00
ENDCHAR
STARTCHAR brokenbar
ENCODING 166
SWIDTH 241 0
DWIDTH 5 0
BBX 5 19 1 -4
BITMAP
08
18
18
10
10
10
30
30
20
00
20
60
60
40
40
40
C0
C0
80
ENDCHAR
STARTCHAR section
ENCODING 167
SWIDTH 608 0
DWIDTH 12 0
BBX 11 19 2 -4
BITMAP
07E0
1860
3040
3000
3000
1800
1E00
2780
6180
6080
7080
3D80
1F00
0300
0180
0180
8300
C700
7C00
ENDCHAR
STARTCHAR dieresis
ENCODING 168
SWIDTH 560 0
DWIDTH 11 0
BBX 6 1 6 14
BITMAP
CC
ENDCHAR
STARTCHAR copyright
ENCODING 169
SWIDTH 843 0
DWIDTH 17 0
BBX 15 15 3 0
BITMAP
07C0
1830
2008
43E4
8624
8C22
8802
8802
8802
8802
8C04
47C4
2008
1830
07C0
ENDCHAR
STARTCHAR ordfeminine
ENCODING 170
SWIDTH 458 0
DWIDTH 8 0
BBX 8 9 2 6
BITMAP
1F
22
62
46
C6
CE
DE
D6
E7
ENDCHAR
STARTCHAR guillemotleft
ENCODING 171
SWIDTH 525 0
DWIDTH 10 0
BBX 9 9 2 1
BITMAP
0880
1100
3200
6600
CC00
4C00
6600
2200
1200
ENDCHAR
STARTCHAR logicalnot
ENCODING 172
SWIDTH 608 0
DWIDTH 12 0
BBX 12 6 2 3
BITMAP
FFF0
0030
0030
0020
0020
0020
ENDCHAR
STARTCHAR hyphen
ENCODING 173
SWIDTH 313 0
DWIDTH 6 0
BBX 5 1 2 7
BITMAP
F8
ENDCHAR
STARTCHAR registered
ENCODING 174
SWIDTH 608 0
DWIDTH 12 0
BBX 8 10 4 5
BITMAP
3C
46
9E
95
9D
99
99
A6
46
3C
ENDCHAR
STARTCHAR macron
ENCODING 175
SWIDTH 560 0
DWIDTH 11 0
BBX 6 1 6 14
BITMAP
FC
ENDCHAR
STARTCHAR degree
ENCODING 176
SWIDTH 277 0
DWIDTH 6 0
BBX 3 4 4 11
BITMAP
60
A0
A0
60
ENDCHAR
STARTCHAR plusminus
ENCODING 177
SWIDTH 608 0
DWIDTH 12 0
BBX 13 13 0 0
BITMAP
0180
0100
0100
0100
7FF8
0300
0200
0200
0200
0200
0000
0000
FFF0
ENDCHAR
STARTCHAR twosuperior
ENCODING 178
SWIDTH 365 0
DWIDTH 7 0
BBX 7 9 -10 6
BITMAP
3C
26
22
06
08
30
40
40
FC
ENDCHAR
STARTCHAR threesuperior
ENCODING 179
SWIDTH 365 0
DWIDTH 7 0
BBX 6 9 -10 6
BITMAP
38
24
04
0C
38
08
0C
88
F0
ENDCHAR
STARTCHAR acute
ENCODING 180
SWIDTH 560 0
DWIDTH 11 0
BBX 5 3 7 12
BITMAP
38
60
C0
ENDCHAR
STARTCHAR mu
ENCODING 181
SWIDTH 663 0
DWIDTH 13 0
BBX 11 15 2 -4
BITMAP
71E0
3060
3060
3040
30C0
20C0
21C0
61C0
6280
6580
7DE0
4000
C000
C000
C000
ENDCHAR
STARTCHAR paragraph
ENCODING 182
SWIDTH 608 0
DWIDTH 12 0
BBX 8 19 3 -4
BITMAP
3F
7D
F9
F9
F9
FA
7A
32
12
12
12
14
14
24
24
24
24
24
28
ENDCHAR
STARTCHAR periodcentered
ENCODING 183
SWIDTH 608 0
DWIDTH 12 0
BBX 2 2 6 6
BITMAP
C0
C0
ENDCHAR
STARTCHAR cedilla
ENCODING 184
SWIDTH 560 0
DWIDTH 11 0
BBX 3 5 3 -4
BITMAP
60
40
20
20
C0
ENDCHAR
STARTCHAR onesuperior
ENCODING 185
SWIDTH 365 0
DWIDTH 7 0
BBX 5 9 -10 6
BITMAP
38
18
10
10
10
10
30
20
F8
ENDCHAR
STARTCHAR ordmasculine
ENCODING 186
SWIDTH 458 0
DWIDTH 8 0
BBX 8 9 2 6
BITMAP
1E
26
43
43
C2
C2
C4
CC
70
ENDCHAR
STARTCHAR guillemotright
ENCODING 187
SWIDTH 525 0
DWIDTH 10 0
BBX 9 9 2 1
BITMAP
2400
2200
3300
1900
1980
3300
2600
4400
8800
ENDCHAR
STARTCHAR onequarter
ENCODING 188
SWIDTH 766 0
DWIDTH 16 0
BBX 16 15 3 0
BITMAP
3803
1806
100C
1018
1030
1020
3046
208A
F914
0224
0644
0C7E
1804
3008
601C
ENDCHAR
STARTCHAR onehalf
ENCODING 189
SWIDTH 766 0
DWIDTH 16 0
BBX 16 15 3 0
BITMAP
3803
1806
100C
1018
1030
1020
305E
2093
F911
0203
0604
0C18
1820
3020
607E
ENDCHAR
STARTCHAR threequarters
ENCODING 190
SWIDTH 766 0
DWIDTH 16 0
BBX 16 15 3 0
BITMAP
3803
2406
040C
0C18
3830
0820
0C46
888A
F114
0224
0644
0C7E
1804
3008
601C
ENDCHAR
STARTCHAR questiondown
ENCODING 191
SWIDTH 471 0
DWIDTH 9 0
BBX 8 15 1 -4
BITMAP
03
00
00
00
06
06
04
08
30
60
C0
C1
C2
E2
7C
ENDCHAR
STARTCHAR Agrave
ENCODING 192
SWIDTH 747 0
DWIDTH 15 0
BBX 15 19 0 0
BITMAP
00E0
0020
0010
0000
0020
0060
00E0
00F0
0130
0330
0230
0430
0438
0FF8
1018
1018
2018
601C
F07E
ENDCHAR
STARTCHAR Aacute
ENCODING 193
SWIDTH 747 0
DWIDTH 15 0
BBX 15 19 0 0
BITMAP
001C
0030
0060
0000
0020
0060
00E0
00F0
0130
0330
0230
0430
0438
0FF8
1018
1018
2018
601C
F07E
ENDCHAR
STARTCHAR Acircumflex
ENCODING 194
SWIDTH 747 0
DWIDTH 15 0
BBX 15 19 0 0
BITMAP
0038
0068
0084
0000
0020
0060
00E0
00F0
0130
0330
0230
0430
0438
0FF8
1018
1018
2018
601C
F07E
ENDCHAR
STARTCHAR Atilde
ENCODING 195
SWIDTH 747 0
DWIDTH 15 0
BBX 15 18 0 0
BITMAP
0064
0098
0000
0020
0060
00E0
00F0
0130
0330
0230
0430
0438
0FF8
1018
1018
2018
601C
F07E
ENDCHAR
STARTCHAR Adieresis
ENCODING 196
SWIDTH 747 0
DWIDTH 15 0
BBX 15 17 0 0
BITMAP
00CC
0000
0020
0060
00E0
00F0
0130
0330
0230
0430
0438
0FF8
1018
1018
2018
601C
F07E
ENDCHAR
STARTCHAR Aring
ENCODING 197
SWIDTH 747 0
DWIDTH 15 0
BBX 15 19 0 0
BITMAP
0038
0028
0038
0000
0020
0060
00E0
00F0
0130
0330
0230
0430
0438
0FF8
1018
1018
2018
601C
F07E
ENDCHAR
STARTCHAR AE
ENCODING 198
SWIDTH 907 0
DWIDTH 18 0
BBX 20 15 0 0
BITMAP
001FF0
001C10
003830
005800
009800
011840
011FC0
023080
043000
0FF000
083000
103000
207040
6070C0
F1FFC0
ENDCHAR
STARTCHAR Ccedilla
ENCODING 199
SWIDTH 714 0
DWIDTH 14 0
BBX 13 19 2 -4
BITMAP
03F8
0C18
1818
3018
6000
6000
6000
C000
C000
C000
C000
C000
6000
7060
1F80
0800
0400
0400
1800
ENDCHAR
STARTCHAR Egrave
ENCODING 200
SWIDTH 569 0
DWIDTH 11 0
BBX 13 19 0 0
BITMAP
0380
0080
0040
0000
1FF8
0608
0C18
0C00
0C00
0C00
0C20
1FC0
1840
1800
1800
1800
3020
3060
FFE0
ENDCHAR
STARTCHAR Eacute
ENCODING 201
SWIDTH 569 0
DWIDTH 11 0
BBX 13 19 0 0
BITMAP
0070
00C0
0180
0000
1FF8
0608
0C18
0C00
0C00
0C00
0C20
1FC0
1840
1800
1800
1800
3020
3060
FFE0
ENDCHAR
STARTCHAR Ecircumflex
ENCODING 202
SWIDTH 569 0
DWIDTH 11 0
BBX 13 19 0 0
BITMAP
00E0
01A0
0210
0000
1FF8
0608
0C18
0C00
0C00
0C00
0C20
1FC0
1840
1800
1800
1800
3020
3060
FFE0
ENDCHAR
STARTCHAR Edieresis
ENCODING 203
SWIDTH 569 0
DWIDTH 11 0
BBX 13 17 0 0
BITMAP
0330
0000
1FF8
0608
0C18
0C00
0C00
0C00
0C20
1FC0
1840
1800
1800
1800
3020
3060
FFE0
ENDCHAR
STARTCHAR Igrave
ENCODING 204
SWIDTH 325 0
DWIDTH 7 0
BBX 9 19 0 0
BITMAP
0E00
0200
0100
0000
1F80
0600
0600
0C00
0C00
0C00
0C00
1C00
1800
1800
1800
1800
3000
3000
FC00
ENDCHAR
STARTCHAR Iacute
ENCODING 205
SWIDTH 325 0
DWIDTH 7 0
BBX 10 19 0 0
BITMAP
01C0
0300
0600
0000
1F80
0600
0600
0C00
0C00
0C00
0C00
1C00
1800
1800
1800
1800
3000
3000
FC00
ENDCHAR
STARTCHAR Icircumflex
ENCODING 206
SWIDTH 325 0
DWIDTH 7 0
BBX 9 19 0 0
BITMAP
0700
0D00
1080
0000
1F80
0600
0600
0C00
0C00
0C00
0C00
1C00
1800
1800
1800
1800
3000
3000
FC00
ENDCHAR
STARTCHAR Idieresis
ENCODING 207
SWIDTH 325 0
DWIDTH 7 0
BBX 10 17 0 0
BITMAP
0CC0
0000
1F80
0600
0600
0C00
0C00
0C00
0C00
1C00
1800
1800
1800
1800
3000
3000
FC00
ENDCHAR
STARTCHAR Eth
ENCODING 208
SWIDTH 770 0
DWIDTH 15 0
BBX 16 15 0 0
BITMAP
1FF8
0E1E
0C06
0C07
0C03
0C03
0C03
7F83
1807
1806
180E
180C
3018
3070
FFC0
ENDCHAR
STARTCHAR Ntilde
ENCODING 209
SWIDTH 762 0
DWIDTH 15 0
BBX 17 18 0 0
BITMAP
006400
009800
000000
1C0780
0E0300
0E0200
0F0200
0B0200
098400
118400
10C400
10C400
106400
107400
203800
203800
201800
F80800
ENDCHAR
STARTCHAR Ograve
ENCODING 210
SWIDTH 783 0
DWIDTH 16 0
BBX 14 19 2 0
BITMAP
01C0
0040
0020
0000
03E0
0C38
1818
300C
600C
600C
600C
C00C
C00C
C018
C018
C030
6060
70C0
1F00
ENDCHAR
STARTCHAR Oacute
ENCODING 211
SWIDTH 783 0
DWIDTH 16 0
BBX 14 19 2 0
BITMAP
0070
00C0
0180
0000
03E0
0C38
1818
300C
600C
600C
600C
C00C
C00C
C018
C018
C030
6060
70C0
1F00
ENDCHAR
STARTCHAR Ocircumflex
ENCODING 212
SWIDTH 783 0
DWIDTH 16 0
BBX 14 19 2 0
BITMAP
00E0
01A0
0210
0000
03E0
0C38
1818
300C
600C
600C
600C
C00C
C00C
C018
C018
C030
6060
70C0
1F00
ENDCHAR
STARTCHAR Otilde
ENCODING 213
SWIDTH 783 0
DWIDTH 16 0
BBX 14 18 2 0
BITMAP
0190
0260
0000
03E0
0C38
1818
300C
600C
600C
600C
C00C
C00C
C018
C018
C030
6060
70C0
1F00
ENDCHAR
STARTCHAR Odieresis
ENCODING 214
SWIDTH 783 0
DWIDTH 16 0
BBX 14 17 2 0
BITMAP
0330
0000
03E0
0C38
1818
300C
600C
600C
600C
C00C
C00C
C018
C018
C030
6060
70C0
1F00
ENDCHAR
STARTCHAR multiply
ENCODING 215
SWIDTH 608 0
DWIDTH 12 0
BBX 14 13 0 0
BITMAP
2004
1008
1810
0820
0440
0380
0300
0700
0C80
1040
2060
4020
8010
ENDCHAR
STARTCHAR Oslash
ENCODING 216
SWIDTH 783 0
DWIDTH 16 0
BBX 17 15 1 0
BITMAP
01F180
071E00
0C0E00
180E00
181600
302600
304600
708600
610600
620C00
640C00
781800
303000
586000
CF8000
ENDCHAR
STARTCHAR Ugrave
ENCODING 217
SWIDTH 727 0
DWIDTH 15 0
BBX 14 19 3 0
BITMAP
0700
0100
0080
0000
FC7C
3010
3010
6010
6020
6020
6020
6020
C020
C040
C040
C040
C080
6180
3E00
ENDCHAR
STARTCHAR Uacute
ENCODING 218
SWIDTH 727 0
DWIDTH 15 0
BBX 14 19 3 0
BITMAP
00E0
0180
0300
0000
FC7C
3010
3010
6010
6020
6020
6020
6020
C020
C040
C040
C040
C080
6180
3E00
ENDCHAR
STARTCHAR Ucircumflex
ENCODING 219
SWIDTH 727 0
DWIDTH 15 0
BBX 14 19 3 0
BITMAP
0380
0680
0840
0000
FC7C
3010
3010
6010
6020
6020
6020
6020
C020
C040
C040
C040
C080
6180
3E00
ENDCHAR
STARTCHAR Udieresis
ENCODING 220
SWIDTH 727 0
DWIDTH 15 0
BBX 14 17 3 0
BITMAP
0660
0000
FC7C
3010
3010
6010
6020
6020
6020
6020
C020
C040
C040
C040
C080
6180
3E00
ENDCHAR
STARTCHAR Yacute
ENCODING 221
SWIDTH 663 0
DWIDTH 13 0
BBX 13 19 3 0
BITMAP
01C0
0300
0600
0000
F878
7030
3020
3040
3880
1900
1B00
0E00
0C00
0C00
0C00
1800
1800
1800
7E00
ENDCHAR
STARTCHAR Thorn
ENCODING 222
SWIDTH 579 0
DWIDTH 12 0
BBX 12 15 1 0
BITMAP
1F00
0E00
0C00
0FE0
0C70
0C30
1830
1830
1870
1860
19C0
3F00
3000
3000
FC00
ENDCHAR
STARTCHAR germandbls
ENCODING 223
SWIDTH 603 0
DWIDTH 12 0
BBX 11 20 1 -4
BITMAP
0780
0CC0
08C0
18C0
1880
1900
1A00
3600
3700
3380
31C0
30E0
6060
6460
6CC0
6780
6000
C000
C000
C000
ENDCHAR
STARTCHAR agrave
ENCODING 224
SWIDTH 608 0
DWIDTH 12 0
BBX 11 15 1 0
BITMAP
0700
0100
0080
0000
07E0
0860
1060
20C0
60C0
60C0
C1C0
C2C0
C580
CD80
71E0
ENDCHAR
STARTCHAR aacute
ENCODING 225
SWIDTH 608 0
DWIDTH 12 0
BBX 11 15 1 0
BITMAP
00E0
0180
0300
0000
07E0
0860
1060
20C0
60C0
60C0
C1C0
C2C0
C580
CD80
71E0
ENDCHAR
STARTCHAR acircumflex
ENCODING 226
SWIDTH 608 0
DWIDTH 12 0
BBX 11 15 1 0
BITMAP
01C0
0340
0420
0000
07E0
0860
1060
20C0
60C0
60C0
C1C0
C2C0
C580
CD80
71E0
ENDCHAR
STARTCHAR atilde
ENCODING 227
SWIDTH 608 0
DWIDTH 12 0
BBX 11 14 1 0
BITMAP
0320
04C0
0000
07E0
0860
1060
20C0
60C0
60C0
C1C0
C2C0
C580
CD80
71E0
ENDCHAR
STARTCHAR adieresis
ENCODING 228
SWIDTH 608 0
DWIDTH 12 0
BBX 11 13 1 0
BITMAP
0660
0000
07E0
0860
1060
20C0
60C0
60C0
C1C0
C2C0
C580
CD80
71E0
ENDCHAR
STARTCHAR aring
ENCODING 229
SWIDTH 608 0
DWIDTH 12 0
BBX 11 15 1 0
BITMAP
0380
0280
0380
0000
07E0
0860
1060
20C0
60C0
60C0
C1C0
C2C0
C580
CD80
71E0
ENDCHAR
STARTCHAR ae
ENCODING 230
SWIDTH 881 0
DWIDTH 18 0
BBX 17 11 1 0
BITMAP
07EF00
087180
106180
206100
60C300
60C600
C1F800
C3C000
C6C080
CCE300
707C00
ENDCHAR
STARTCHAR ccedilla
ENCODING 231
SWIDTH 487 0
DWIDTH 10 0
BBX 9 15 2 -4
BITMAP
0F80
1180
2080
6000
4000
C000
C000
C000
C000
6300
3C00
2000
1000
1000
6000
ENDCHAR
STARTCHAR egrave
ENCODING 232
SWIDTH 518 0
DWIDTH 10 0
BBX 9 15 2 0
BITMAP
0E00
0200
0100
0000
0F00
1180
2180
6100
4300
C600
F800
C000
C180
6300
3C00
ENDCHAR
STARTCHAR eacute
ENCODING 233
SWIDTH 518 0
DWIDTH 10 0
BBX 10 15 2 0
BITMAP
01C0
0300
0600
0000
0F00
1180
2180
6100
4300
C600
F800
C000
C180
6300
3C00
ENDCHAR
STARTCHAR ecircumflex
ENCODING 234
SWIDTH 518 0
DWIDTH 10 0
BBX 9 15 2 0
BITMAP
0700
0D00
1080
0000
0F00
1180
2180
6100
4300
C600
F800
C000
C180
6300
3C00
ENDCHAR
STARTCHAR edieresis
ENCODING 235
SWIDTH 518 0
DWIDTH 10 0
BBX 10 13 2 0
BITMAP
0CC0
0000
0F00
1180
2180
6100
4300
C600
F800
C000
C180
6300
3C00
ENDCHAR
STARTCHAR igrave
ENCODING 236
SWIDTH 289 0
DWIDTH 6 0
BBX 6 15 2 0
BITMAP
38
08
04
00
F0
30
20
60
60
60
60
40
C0
C0
F0
ENDCHAR
STARTCHAR iacute
ENCODING 237
SWIDTH 289 0
DWIDTH 6 0
BBX 7 15 2 0
BITMAP
0E
18
30
00
F0
30
20
60
60
60
60
40
C0
C0
F0
ENDCHAR
STARTCHAR icircumflex
ENCODING 238
SWIDTH 289 0
DWIDTH 6 0
BBX 7 15 2 0
BITMAP
1C
34
42
00
F0
30
20
60
60
60
60
40
C0
C0
F0
ENDCHAR
STARTCHAR idieresis
ENCODING 239
SWIDTH 289 0
DWIDTH 6 0
BBX 7 13 2 0
BITMAP
66
00
F0
30
20
60
60
60
60
40
C0
C0
F0
ENDCHAR
STARTCHAR eth
ENCODING 240
SWIDTH 562 0
DWIDTH 11 0
BBX 10 16 2 0
BITMAP
00C0
3F00
0700
0D80
1180
0F80
11C0
20C0
60C0
40C0
C080
C180
C180
C100
6200
7C00
ENDCHAR
STARTCHAR ntilde
ENCODING 241
SWIDTH 631 0
DWIDTH 13 0
BBX 11 14 2 0
BITMAP
0320
04C0
0000
F1C0
3260
3460
2840
70C0
60C0
60C0
60C0
4080
C180
C1E0
ENDCHAR
STARTCHAR ograve
ENCODING 242
SWIDTH 560 0
DWIDTH 11 0
BBX 10 15 2 0
BITMAP
0700
0100
0080
0000
0F00
1980
30C0
60C0
60C0
C0C0
C180
C180
C300
E600
7C00
ENDCHAR
STARTCHAR oacute
ENCODING 243
SWIDTH 560 0
DWIDTH 11 0
BBX 10 15 2 0
BITMAP
01C0
0300
0600
0000
0F00
1980
30C0
60C0
60C0
C0C0
C180
C180
C300
E600
7C00
ENDCHAR
STARTCHAR ocircumflex
ENCODING 244
SWIDTH 560 0
DWIDTH 11 0
BBX 10 15 2 0
BITMAP
0380
0680
0840
0000
0F00
1980
30C0
60C0
60C0
C0C0
C180
C180
C300
E600
7C00
ENDCHAR
STARTCHAR otilde
ENCODING 245
SWIDTH 560 0
DWIDTH 11 0
BBX 10 14 2 0
BITMAP
0640
0980
0000
0F00
1980
30C0
60C0
60C0
C0C0
C180
C180
C300
E600
7C00
ENDCHAR
STARTCHAR odieresis
ENCODING 246
SWIDTH 560 0
DWIDTH 11 0
BBX 10 13 2 0
BITMAP
0CC0
0000
0F00
1980
30C0
60C0
60C0
C0C0
C180
C180
C300
E600
7C00
ENDCHAR
STARTCHAR divide
ENCODING 247
SWIDTH 608 0
DWIDTH 12 0
BBX 12 11 1 0
BITMAP
0300
0000
0000
0000
0000
FFF0
0000
0000
0000
0000
0C00
ENDCHAR
STARTCHAR oslash
ENCODING 248
SWIDTH 560 0
DWIDTH 11 0
BBX 12 11 1 0
BITMAP
07B0
08C0
10E0
3160
6260
6440
68C0
70C0
6180
7300
9C00
ENDCHAR
STARTCHAR ugrave
ENCODING 249
SWIDTH 630 0
DWIDTH 13 0
BBX 11 15 2 0
BITMAP
0700
0100
0080
0000
F1E0
3060
2060
60C0
60C0
60C0
61C0
42C0
C780
CD80
71E0
ENDCHAR
STARTCHAR uacute
ENCODING 250
SWIDTH 630 0
DWIDTH 13 0
BBX 11 15 2 0
BITMAP
00E0
0180
0300
0000
F1E0
3060
2060
60C0
60C0
60C0
61C0
42C0
C780
CD80
71E0
ENDCHAR
STARTCHAR ucircumflex
ENCODING 251
SWIDTH 630 0
DWIDTH 13 0
BBX 11 15 2 0
BITMAP
0380
0680
0840
0000
F1E0
3060
2060
60C0
60C0
60C0
61C0
42C0
C780
CD80
71E0
ENDCHAR
STARTCHAR udieresis
ENCODING 252
SWIDTH 630 0
DWIDTH 13 0
BBX 11 13 2 0
BITMAP
0660
0000
F1E0
3060
2060
60C0
60C0
60C0
61C0
42C0
C780
CD80
71E0
ENDCHAR
STARTCHAR yacute
ENCODING 253
SWIDTH 558 0
DWIDTH 11 0
BBX 13 19 0 -4
BITMAP
0070
00C0
0180
0000
7830
1818
1810
0C20
0C20
0C40
0C80
0500
0500
0600
0400
0800
1000
3000
E000
ENDCHAR
STARTCHAR thorn
ENCODING 254
SWIDTH 608 0
DWIDTH 12 0
BBX 11 18 2 -4
BITMAP
7800
1800
1800
11C0
1260
3460
3860
3860
3040
20C0
6080
6180
6100
7E00
4000
C000
C000
C000
ENDCHAR
STARTCHAR ydieresis
ENCODING 255
SWIDTH 558 0
DWIDTH 11 0
BBX 13 17 0 -4
BITMAP
0330
0000
7830
1818
1810
0C20
0C20
0C40
0C80
0500
0500
0600
0400
0800
1000
3000
E000
ENDCHAR
STARTCHAR Amacron
ENCODING 256
SWIDTH 747 0
DWIDTH 15 0
BBX 15 17 0 0
BITMAP
03F0
0000
0020
0060
00E0
00F0
0130
0330
0230
0430
0438
0FF8
1018
1018
2018
601C
F07E
ENDCHAR
STARTCHAR amacron
ENCODING 257
SWIDTH 608 0
DWIDTH 12 0
BBX 11 13 1 0
BITMAP
0FC0
0000
07E0
0860
1060
20C0
60C0
60C0
C1C0
C2C0
C580
CD80
71E0
ENDCHAR
STARTCHAR Abreve
ENCODING 258
SWIDTH 747 0
DWIDTH 15 0
BBX 15 19 0 0
BITMAP
0208
0330
01E0
0000
0020
0060
00E0
00F0
0130
0330
0230
0430
0438
0FF8
1018
1018
2018
601C
F07E
ENDCHAR
STARTCHAR abreve
ENCODING 259
SWIDTH 608 0
DWIDTH 12 0
BBX 11 15 1 0
BITMAP
0820
0CC0
0780
0000
07E0
0860
1060
20C0
60C0
60C0
C1C0
C2C0
C580
CD80
71E0
ENDCHAR
STARTCHAR Aogonek
ENCODING 260
SWIDTH 747 0
DWIDTH 15 0
BBX 15 19 0 -4
BITMAP
0020
0060
00E0
00F0
0130
0330
0230
0430
0438
0FF8
1018
1018
2018
601C
F07E
0000
0180
0200
0380
ENDCHAR
STARTCHAR aogonek
ENCODING 261
SWIDTH 608 0
DWIDTH 12 0
BBX 11 15 1 -4
BITMAP
07E0
0860
1060
20C0
60C0
60C0
C1C0
C2C0
C580
CD80
71E0
0000
0600
0800
0E00
ENDCHAR
STARTCHAR Cacute
ENCODING 262
SWIDTH 714 0
DWIDTH 14 0
BBX 13 19 2 0
BITMAP
00E0
0180
0300
0000
03F8
0C18
1818
3018
6000
6000
6000
C000
C000
C000
C000
C000
6000
7060
1F80
ENDCHAR
STARTCHAR cacute
ENCODING 263
SWIDTH 487 0
DWIDTH 10 0
BBX 9 15 2 0
BITMAP
0380
0600
0C00
0000
0F80
1180
2080
6000
4000
C000
C000
C000
C000
6300
3C00
ENDCHAR
STARTCHAR Ccircumflex
ENCODING 264
SWIDTH 714 0
DWIDTH 14 0
BBX 13 19 2 0
BITMAP
01C0
0340
0420
0000
03F8
0C18
1818
3018
6000
6000
6000
C000
C000
C000
C000
C000
6000
7060
1F80
ENDCHAR
STARTCHAR ccircumflex
ENCODING 265
SWIDTH 487 0
DWIDTH 10 0
BBX 9 15 2 0
BITMAP
0700
0D00
1080
0000
0F80
1180
2080
6000
4000
C000
C000
C000
C000
6300
3C00
ENDCHAR
STARTCHAR Cdotaccent
ENCODING 266
SWIDTH 714 0
DWIDTH 14 0
BBX 13 17 2 0
BITMAP
0180
0000
03F8
0C18
1818
3018
6000
6000
6000
C000
C000
C000
C000
C000
6000
7060
1F80
ENDCHAR
STARTCHAR cdotaccent
ENCODING 267
SWIDTH 487 0
DWIDTH 10 0
BBX 9 13 2 0
BITMAP
0600
0000
0F80
1180
2080
6000
4000
C000
C000
C000
C000
6300
3C00
ENDCHAR
STARTCHAR Ccaron
ENCODING 268
SWIDTH 714 0
DWIDTH 14 0
BBX 13 19 2 0
BITMAP
0420
02C0
0380
0000
03F8
0C18
1818
3018
6000
6000
6000
C000
C000
C000
C000
C000
6000
7060
1F80
ENDCHAR
STARTCHAR ccaron
ENCODING 269
SWIDTH 487 0
DWIDTH 10 0
BBX 9 15 2 0
BITMAP
1080
0B00
0E00
0000
0F80
1180
2080
6000
4000
C000
C000
C000
C000
6300
3C00
ENDCHAR
STARTCHAR Dcaron
ENCODING 270
SWIDTH 770 0
DWIDTH 15 0
BBX 16 19 0 0
BITMAP
0210
0160
01C0
0000
1FF8
0E1E
0C06
0C07
0C03
0C03
0C03
1803
1807
1806
180E
380C
3018
3070
FFC0
ENDCHAR
STARTCHAR dcaron
ENCODING 271
SWIDTH 843 0
DWIDTH 16 0
BBX 17 15 1 0
BITMAP
00F380
003380
006100
006300
07E600
086400
106000
20C000
60C000
60C000
C1C000
C2C000
C58000
CD8000
71E000
ENDCHAR
STARTCHAR Dcroat
ENCODING 272
SWIDTH 770 0
DWIDTH 15 0
BBX 16 15 0 0
BITMAP
1FF8
0E1E
0C06
0C07
0C03
0C03
0C03
7F83
1807
1806
180E
180C
3018
3070
FFC0
ENDCHAR
STARTCHAR dcroat
ENCODING 273
SWIDTH 608 0
DWIDTH 12 0
BBX 14 15 1 0
BITMAP
00F0
0030
07FC
0060
07E0
0860
1060
20C0
60C0
60C0
C1C0
C2C0
C580
CD80
71E0
ENDCHAR
STARTCHAR Emacron
ENCODING 274
SWIDTH 569 0
DWIDTH 11 0
BBX 13 17 0 0
BITMAP
0FC0
0000
1FF8
0608
0C18
0C00
0C00
0C00
0C20
1FC0
1840
1800
1800
1800
3020
3060
FFE0
ENDCHAR
STARTCHAR emacron
ENCODING 275
SWIDTH 518 0
DWIDTH 10 0
BBX 9 13 2 0
BITMAP
1F80
0000
0F00
1180
2180
6100
4300
C600
F800
C000
C180
6300
3C00
ENDCHAR
STARTCHAR Ebreve
ENCODING 276
SWIDTH 569 0
DWIDTH 11 0
BBX 13 19 0 0
BITMAP
0820
0CC0
0780
0000
1FF8
0608
0C18
0C00
0C00
0C00
0C20
1FC0
1840
1800
1800
1800
3020
3060
FFE0
ENDCHAR
STARTCHAR ebreve
ENCODING 277
SWIDTH 518 0
DWIDTH 10 0
BBX 9 15 2 0
BITMAP
2080
3300
1E00
0000
0F00
1180
2180
6100
4300
C600
F800
C000
C180
6300
3C00
ENDCHAR
STARTCHAR Edotaccent
ENCODING 278
SWIDTH 569 0
DWIDTH 11 0
BBX 13 17 0 0
BITMAP
0300
0000
1FF8
0608
0C18
0C00
0C00
0C00
0C20
1FC0
1840
1800
1800
1800
3020
3060
FFE0
ENDCHAR
STARTCHAR edotaccent
ENCODING 279
SWIDTH 518 0
DWIDTH 10 0
BBX 9 13 2 0
BITMAP
0600
0000
0F00
1180
2180
6100
4300
C600
F800
C000
C180
6300
3C00
ENDCHAR
STARTCHAR Eogonek
ENCODING 280
SWIDTH 569 0
DWIDTH 11 0
BBX 13 19 0 -4
BITMAP
1FF8
0608
0C18
0C00
0C00
0C00
0C20
1FC0
1840
1800
1800
1800
3020
3060
FFE0
0000
0600
0800
0E00
ENDCHAR
STARTCHAR eogonek
ENCODING 281
SWIDTH 518 0
DWIDTH 10 0
BBX 9 15 2 -4
BITMAP
0F00
1180
2180
6100
4300
C600
F800
C000
C180
6300
3C00
0000
0C00
1000
1C00
ENDCHAR
STARTCHAR Ecaron
ENCODING 282
SWIDTH 569 0
DWIDTH 11 0
BBX 13 19 0 0
BITMAP
0420
02C0
0380
0000
1FF8
0608
0C18
0C00
0C00
0C00
0C20
1FC0
1840
1800
1800
1800
3020
3060
FFE0
ENDCHAR
STARTCHAR ecaron
ENCODING 283
SWIDTH 518 0
DWIDTH 10 0
BBX 9 15 2 0
BITMAP
1080
0B00
0E00
0000
0F00
1180
2180
6100
4300
C600
F800
C000
C180
6300
3C00
ENDCHAR
STARTCHAR Gcircumflex
ENCODING 284
SWIDTH 756 0
DWIDTH 15 0
BBX 14 19 2 0
BITMAP
01C0
0340
0420
0000
03FC
0E08
1808
3000
7000
6000
6000
C000
C0FC
C030
C030
E060
6060
7060
1F80
ENDCHAR
STARTCHAR gcircumflex
ENCODING 285
SWIDTH 602 0
DWIDTH 12 0
BBX 11 19 1 -4
BITMAP
0380
0680
0840
0000
07E0
0860
1060
3040
30C0
60C0
61C0
61C0
6280
6580
3980
0180
8100
C200
7C00
ENDCHAR
STARTCHAR Gbreve
ENCODING 286
SWIDTH 756 0
DWIDTH 15 0
BBX 14 19 2 0
BITMAP
0820
0CC0
0780
0000
03FC
0E08
1808
3000
7000
6000
6000
C000
C0FC
C030
C030
E060
6060
7060
1F80
ENDCHAR
STARTCHAR gbreve
ENCODING 287
SWIDTH 602 0
DWIDTH 12 0
BBX 11 19 1 -4
BITMAP
0820
0CC0
0780
0000
07E0
0860
1060
3040
30C0
60C0
61C0
61C0
6280
6580
3980
0180
8100
C200
7C00
ENDCHAR
STARTCHAR Gdotaccent
ENCODING 288
SWIDTH 756 0
DWIDTH 15 0
BBX 14 17 2 0
BITMAP
0180
0000
03FC
0E08
1808
3000
7000
6000
6000
C000
C0FC
C030
C030
E060
6060
7060
1F80
ENDCHAR
STARTCHAR gdotaccent
ENCODING 289
SWIDTH 602 0
DWIDTH 12 0
BBX 11 17 1 -4
BITMAP
0300
0000
07E0
0860
1060
3040
30C0
60C0
61C0
61C0
6280
6580
3980
0180
8100
C200
7C00
ENDCHAR
STARTCHAR Gcommaaccent
ENCODING 290
SWIDTH 756 0
DWIDTH 15 0
BBX 14 23 2 -8
BITMAP
03FC
0E08
1808
3000
7000
6000
6000
C000
C0FC
C030
C030
E060
6060
7060
1F80
0000
0700
0700
0700
0200
0200
0600
0C00
ENDCHAR
STARTCHAR gcommaaccent
ENCODING 291
SWIDTH 602 0
DWIDTH 12 0
BBX 11 22 1 -4
BITMAP
0180
0300
0200
0200
0700
0700
0000
07E0
0860
1060
3040
30C0
60C0
61C0
61C0
6280
6580
3980
0180
8100
C200
7C00
ENDCHAR
STARTCHAR Hcircumflex
ENCODING 292
SWIDTH 776 0
DWIDTH 16 0
BBX 17 19 1 0
BITMAP
00E000
01A000
021000
000000
1F1F80
0E0600
0C0600
0C0600
0C0E00
0C0C00
180C00
1FFC00
180C00
181C00
181800
301800
301800
303800
FC7C00
ENDCHAR
STARTCHAR hcircumflex
ENCODING 293
SWIDTH 631 0
DWIDTH 13 0
BBX 11 19 2 0
BITMAP
1C00
3400
4200
0000
7800
1800
1800
3000
31C0
3260
3460
2840
70C0
60C0
60C0
60C0
4080
C180
C1E0
ENDCHAR
STARTCHAR Hbar
ENCODING 294
SWIDTH 776 0
DWIDTH 16 0
BBX 17 15 1 0
BITMAP
1F1F80
0E0600
0C0600
FFFF80
0C0E00
0C0C00
180C00
1FFC00
180C00
181C00
181800
301800
301800
303800
FC7C00
ENDCHAR
STARTCHAR hbar
ENCODING 295
SWIDTH 631 0
DWIDTH 13 0
BBX 12 15 1 0
BITMAP
3C00
0C00
FF80
1800
18E0
1930
1A30
1420
3860
3060
3060
3060
2040
60C0
60F0
ENDCHAR
STARTCHAR Itilde
ENCODING 296
SWIDTH 325 0
DWIDTH 7 0
BBX 9 18 0 0
BITMAP
0C80
1300
0000
1F80
0600
0600
0C00
0C00
0C00
0C00
1C00
1800
1800
1800
1800
3000
3000
FC00
ENDCHAR
STARTCHAR itilde
ENCODING 297
SWIDTH 289 0
DWIDTH 6 0
BBX 6 14 1 0
BITMAP
64
98
00
78
18
10
30
30
30
30
20
60
60
78
ENDCHAR
STARTCHAR Imacron
ENCODING 298
SWIDTH 325 0
DWIDTH 7 0
BBX 9 17 0 0
BITMAP
3F00
0000
1F80
0600
0600
0C00
0C00
0C00
0C00
1C00
1800
1800
1800
1800
3000
3000
FC00
ENDCHAR
STARTCHAR imacron
ENCODING 299
SWIDTH 289 0
DWIDTH 6 0
BBX 6 13 1 0
BITMAP
FC
00
78
18
10
30
30
30
30
20
60
60
78
ENDCHAR
STARTCHAR Ibreve
ENCODING 300
SWIDTH 325 0
DWIDTH 7 0
BBX 9 19 0 0
BITMAP
2080
3300
1E00
0000
1F80
0600
0600
0C00
0C00
0C00
0C00
1C00
1800
1800
1800
1800
3000
3000
FC00
ENDCHAR
STARTCHAR ibreve
ENCODING 301
SWIDTH 289 0
DWIDTH 6 0
BBX 7 15 1 0
BITMAP
82
CC
78
00
78
18
10
30
30
30
30
20
60
60
78
ENDCHAR
STARTCHAR Iogonek
ENCODING 302
SWIDTH 325 0
DWIDTH 7 0
BBX 9 19 0 -4
BITMAP
1F80
0600
0600
0C00
0C00
0C00
0C00
1C00
1800
1800
1800
1800
3000
3000
FC00
0000
1800
2000
3800
ENDCHAR
STARTCHAR iogonek
ENCODING 303
SWIDTH 289 0
DWIDTH 6 0
BBX 5 19 2 -4
BITMAP
18
00
00
00
F0
30
30
20
60
60
60
60
40
C0
F0
00
60
80
E0
ENDCHAR
STARTCHAR Idotaccent
ENCODING 304
SWIDTH 325 0
DWIDTH 7 0
BBX 9 17 0 0
BITMAP
0C00
0000
1F80
0600
0600
0C00
0C00
0C00
0C00
1C00
1800
1800
1800
1800
3000
3000
FC00
ENDCHAR
STARTCHAR dotlessi
ENCODING 305
SWIDTH 289 0
DWIDTH 6 0
BBX 4 11 2 0
BITMAP
F0
30
20
60
60
60
60
40
C0
C0
F0
ENDCHAR
STARTCHAR IJ
ENCODING 306
SWIDTH 731 0
DWIDTH 15 0
BBX 18 19 0 -4
BITMAP
1F8FC0
060300
060300
0C0300
0C0700
0C0600
0C0600
1C0600
180600
180600
180E00
180C00
300C00
300C00
FC0C00
000800
019800
019000
01E000
ENDCHAR
STARTCHAR ij
ENCODING 307
SWIDTH 618 0
DWIDTH 13 0
BBX 13 19 2 -4
BITMAP
1818
0000
0000
0000
F0F0
3030
3030
2030
6060
6060
6060
6060
4060
C0C0
F0C0
00C0
1080
1100
1E00
ENDCHAR
STARTCHAR Jcircumflex
ENCODING 308
SWIDTH 422 0
DWIDTH 8 0
BBX 11 23 0 -4
BITMAP
0380
0680
0840
0000
07E0
0180
0180
0180
0380
0300
0300
0300
0300
0300
0700
0600
0600
0600
0600
0400
CC00
C800
F000
ENDCHAR
STARTCHAR jcircumflex
ENCODING 309
SWIDTH 343 0
DWIDTH 7 0
BBX 10 19 -1 -4
BITMAP
0380
0680
0840
0000
0780
0180
0180
0180
0300
0300
0300
0300
0300
0600
0600
0600
8400
8800
F000
ENDCHAR
STARTCHAR Kcommaaccent
ENCODING 310
SWIDTH 698 0
DWIDTH 14 0
BBX 15 23 1 -8
BITMAP
1F1E
0E0C
0C10
0C20
0CC0
0D80
1B00
1F00
1B00
1980
19C0
30C0
3060
3070
FCF8
0000
0380
0380
0380
0100
0100
0300
0600
ENDCHAR
STARTCHAR kcommaaccent
ENCODING 311
SWIDTH 560 0
DWIDTH 11 0
BBX 10 23 2 -8
BITMAP
7800
1800
1000
3000
30C0
3080
3180
2600
6800
7800
6C00
6E00
4600
C300
C3C0
0000
1C00
1C00
1C00
0800
0800
1800
3000
ENDCHAR
STARTCHAR kgreenlandic
ENCODING 312
SWIDTH 560 0
DWIDTH 11 0
BBX 10 11 2 0
BITMAP
30C0
3080
3180
2600
6800
7800
6C00
6E00
4600
C300
C3C0
ENDCHAR
STARTCHAR Lacute
ENCODING 313
SWIDTH 572 0
DWIDTH 11 0
BBX 11 19 1 0
BITMAP
0380
0600
0C00
0000
1F00
0E00
0C00
0C00
0C00
0C00
1800
1800
1800
1800
1800
3000
3020
3060
FFE0
ENDCHAR
STARTCHAR lacute
ENCODING 314
SWIDTH 289 0
DWIDTH 6 0
BBX 7 19 2 0
BITMAP
0E
18
30
00
78
18
10
30
30
30
30
20
60
60
60
60
40
C0
F0
ENDCHAR
STARTCHAR Lcommaaccent
ENCODING 315
SWIDTH 572 0
DWIDTH 11 0
BBX 11 23 1 -8
BITMAP
1F00
0E00
0C00
0C00
0C00
0C00
1800
1800
1800
1800
1800
3000
3020
3060
FFE0
0000
0E00
0E00
0E00
0400
0400
0C00
1800
ENDCHAR
STARTCHAR lcommaaccent
ENCODING 316
SWIDTH 289 0
DWIDTH 6 0
BBX 5 23 2 -8
BITMAP
78
18
10
30
30
30
30
20
60
60
60
60
40
C0
F0
00
70
70
70
20
20
60
C0
ENDCHAR
STARTCHAR Lcaron
ENCODING 317
SWIDTH 808 0
DWIDTH 15 0
BBX 16 15 1 0
BITMAP
1F07
0E07
0C02
0C06
0C0C
0C08
1800
1800
1800
1800
1800
3000
3020
3060
FFE0
ENDCHAR
STARTCHAR lcaron
ENCODING 318
SWIDTH 540 0
DWIDTH 11 0
BBX 11 15 2 0
BITMAP
78E0
18E0
1040
30C0
3180
3100
3000
2000
6000
6000
6000
6000
4000
C000
F000
ENDCHAR
STARTCHAR Ldot
ENCODING 319
SWIDTH 1151 0
DWIDTH 22 0
BBX 17 15 1 0
BITMAP
1F0000
0E0000
0C0000
0C0000
0C0000
0C0000
180000
180180
180180
180000
180000
300000
302000
306000
FFE000
ENDCHAR
STARTCHAR ldot
ENCODING 320
SWIDTH 883 0
DWIDTH 18 0
BBX 12 15 2 0
BITMAP
7800
1800
1000
3000
3000
3000
3000
2030
6030
6000
6000
6000
4000
C000
F000
ENDCHAR
STARTCHAR Lslash
ENCODING 321
SWIDTH 572 0
DWIDTH 11 0
BBX 11 15 0 0
BITMAP
1F80
0E00
0C00
0C00
0C00
0D00
1E00
1800
7800
5800
1800
3800
3020
3060
FFE0
ENDCHAR
STARTCHAR lslash
ENCODING 322
SWIDTH 289 0
DWIDTH 6 0
BBX 7 15 1 0
BITMAP
3C
0C
0C
18
18
18
1E
38
F0
30
30
30
60
60
78
ENDCHAR
STARTCHAR Nacute
ENCODING 323
SWIDTH 762 0
DWIDTH 15 0
BBX 17 19 0 0
BITMAP
007000
00C000
018000
000000
1C0780
0E0300
0E0200
0F0200
0B0200
098400
118400
10C400
10C400
106400
107400
203800
203800
201800
F80800
ENDCHAR
STARTCHAR nacute
ENCODING 324
SWIDTH 631 0
DWIDTH 13 0
BBX 11 15 2 0
BITMAP
0380
0600
0C00
0000
F1C0
3260
3460
2840
70C0
60C0
60C0
60C0
4080
C180
C1E0
ENDCHAR
STARTCHAR Ncommaaccent
ENCODING 325
SWIDTH 762 0
DWIDTH 15 0
BBX 17 23 0 -8
BITMAP
1C0780
0E0300
0E0200
0F0200
0B0200
098400
118400
10C400
10C400
106400
107400
203800
203800
201800
F80800
000000
038000
038000
038000
010000
010000
030000
060000
ENDCHAR
STARTCHAR ncommaaccent
ENCODING 326
SWIDTH 631 0
DWIDTH 13 0
BBX 11 19 2 -8
BITMAP
F1C0
3260
3460
2840
70C0
60C0
60C0
60C0
4080
C180
C1E0
0000
0E00
0E00
0E00
0400
0400
0C00
1800
ENDCHAR
STARTCHAR Ncaron
ENCODING 327
SWIDTH 762 0
DWIDTH 15 0
BBX 17 19 0 0
BITMAP
021000
016000
01C000
000000
1C0780
0E0300
0E0200
0F0200
0B0200
098400
118400
10C400
10C400
106400
107400
203800
203800
201800
F80800
ENDCHAR
STARTCHAR ncaron
ENCODING 328
SWIDTH 631 0
DWIDTH 13 0
BBX 11 15 2 0
BITMAP
1080
0B00
0E00
0000
F1C0
3260
3460
2840
70C0
60C0
60C0
60C0
4080
C180
C1E0
ENDCHAR
STARTCHAR napostrophe
ENCODING 329
SWIDTH 883 0
DWIDTH 18 0
BBX 15 15 3 0
BITMAP
7000
7000
2000
6000
CF1C
8326
0346
0284
070C
060C
060C
060C
0408
0C18
0C1E
ENDCHAR
STARTCHAR Eng
ENCODING 330
SWIDTH 762 0
DWIDTH 15 0
BBX 17 19 0 -4
BITMAP
1C0780
0E0300
0E0200
0F0200
0B0200
098400
118400
10C400
10C400
106400
107C00
203C00
203C00
201800
F81800
001800
021000
022000
03C000
ENDCHAR
STARTCHAR eng
ENCODING 331
SWIDTH 631 0
DWIDTH 13 0
BBX 11 15 2 -4
BITMAP
F1C0
3260
3460
2840
70C0
60C0
60C0
60C0
40C0
C180
C180
0180
2100
2200
3C00
ENDCHAR
STARTCHAR Omacron
ENCODING 332
SWIDTH 783 0
DWIDTH 16 0
BBX 14 17 2 0
BITMAP
07E0
0000
03E0
0C38
1818
300C
600C
600C
600C
C00C
C00C
C018
C018
C030
6060
70C0
1F00
ENDCHAR
STARTCHAR omacron
ENCODING 333
SWIDTH 560 0
DWIDTH 11 0
BBX 10 13 2 0
BITMAP
1F80
0000
0F00
1980
30C0
60C0
60C0
C0C0
C180
C180
C300
E600
7C00
ENDCHAR
STARTCHAR Obreve
ENCODING 334
SWIDTH 783 0
DWIDTH 16 0
BBX 14 19 2 0
BITMAP
0410
0660
03C0
0000
03E0
0C38
1818
300C
600C
600C
600C
C00C
C00C
C018
C018
C030
6060
70C0
1F00
ENDCHAR
STARTCHAR obreve
ENCODING 335
SWIDTH 560 0
DWIDTH 11 0
BBX 10 15 2 0
BITMAP
1040
1980
0F00
0000
0F00
1980
30C0
60C0
60C0
C0C0
C180
C180
C300
E600
7C00
ENDCHAR
STARTCHAR Ohungarumlaut
ENCODING 336
SWIDTH 783 0
DWIDTH 16 0
BBX 14 19 2 0
BITMAP
01F0
0340
0580
0000
03E0
0C38
1818
300C
600C
600C
600C
C00C
C00C
C018
C018
C030
6060
70C0
1F00
ENDCHAR
STARTCHAR ohungarumlaut
ENCODING 337
SWIDTH 560 0
DWIDTH 11 0
BBX 10 15 2 0
BITMAP
07C0
0D00
1600
0000
0F00
1980
30C0
60C0
60C0
C0C0
C180
C180
C300
E600
7C00
ENDCHAR
STARTCHAR OE
ENCODING 338
SWIDTH 1005 0
DWIDTH 20 0
BBX 20 15 2 0
BITMAP
03EFF0
0E3C10
181830
301800
201800
601800
601840
C03FC0
C03080
C03000
C03000
C07000
606040
70E0C0
1F7FC0
ENDCHAR
STARTCHAR oe
ENCODING 339
SWIDTH 892 0
DWIDTH 18 0
BBX 16 11 2 0
BITMAP
0F8F
19D3
30E1
60C3
60C3
C0C4
C1F8
C1C0
C3C1
E6E3
7C7C
ENDCHAR
STARTCHAR Racute
ENCODING 340
SWIDTH 686 0
DWIDTH 14 0
BBX 13 19 1 0
BITMAP
00E0
0180
0300
0000
1FF0
0C70
0C30
0C38
0C30
1C20
18C0
1F80
1980
19C0
18C0
30C0
3060
3070
FC38
ENDCHAR
STARTCHAR racute
ENCODING 341
SWIDTH 470 0
DWIDTH 9 0
BBX 9 15 2 0
BITMAP
0700
0C00
1800
0000
F180
3700
3C00
6800
7000
6000
6000
6000
C000
C000
C000
ENDCHAR
STARTCHAR Rcommaaccent
ENCODING 342
SWIDTH 686 0
DWIDTH 14 0
BBX 13 23 1 -8
BITMAP
1FF0
0C70
0C30
0C38
0C30
1C20
18C0
1F80
1980
19C0
18C0
30C0
3060
3070
FC38
0000
0700
0700
0700
0200
0200
0600
0C00
ENDCHAR
STARTCHAR rcommaaccent
ENCODING 343
SWIDTH 470 0
DWIDTH 9 0
BBX 9 19 2 -8
BITMAP
F180
3700
3C00
6800
7000
6000
6000
6000
C000
C000
C000
0000
7000
7000
7000
2000
2000
6000
C000
ENDCHAR
STARTCHAR Rcaron
ENCODING 344
SWIDTH 686 0
DWIDTH 14 0
BBX 13 19 1 0
BITMAP
0420
02C0
0380
0000
1FF0
0C70
0C30
0C38
0C30
1C20
18C0
1F80
1980
19C0
18C0
30C0
3060
3070
FC38
ENDCHAR
STARTCHAR rcaron
ENCODING 345
SWIDTH 470 0
DWIDTH 9 0
BBX 9 15 2 0
BITMAP
2100
1600
1C00
0000
F180
3700
3C00
6800
7000
6000
6000
6000
C000
C000
C000
ENDCHAR
STARTCHAR Sacute
ENCODING 346
SWIDTH 549 0
DWIDTH 11 0
BBX 11 19 1 0
BITMAP
01C0
0300
0600
0000
07C0
1860
1820
3020
3800
1800
1C00
0700
0380
0180
0180
C180
8180
C300
7E00
ENDCHAR
STARTCHAR sacute
ENCODING 347
SWIDTH 440 0
DWIDTH 9 0
BBX 9 15 1 0
BITMAP
0380
0600
0C00
0000
0F00
1880
3080
3000
1800
0E00
0600
8300
8300
C700
7C00
ENDCHAR
STARTCHAR Scircumflex
ENCODING 348
SWIDTH 549 0
DWIDTH 11 0
BBX 11 19 1 0
BITMAP
0700
0D00
1080
0000
07C0
1860
1820
3020
3800
1800
1C00
0700
0380
0180
0180
C180
8180
C300
7E00
ENDCHAR
STARTCHAR scircumflex
ENCODING 349
SWIDTH 440 0
DWIDTH 9 0
BBX 9 15 1 0
BITMAP
0E00
1A00
2100
0000
0F00
1880
3080
3000
1800
0E00
0600
8300
8300
C700
7C00
ENDCHAR
STARTCHAR Scedilla
ENCODING 350
SWIDTH 549 0
DWIDTH 11 0
BBX 11 19 1 -4
BITMAP
07C0
1860
1820
3020
3800
1800
1C00
0700
0380
0180
0180
C180
8180
C300
7E00
0800
0400
0400
1800
ENDCHAR
STARTCHAR scedilla
ENCODING 351
SWIDTH 440 0
DWIDTH 9 0
BBX 9 15 1 -4
BITMAP
0F00
1880
3080
3000
1800
0E00
0600
8300
8300
C700
7C00
0800
0400
0400
1800
ENDCHAR
STARTCHAR Scaron
ENCODING 352
SWIDTH 549 0
DWIDTH 11 0
BBX 11 19 1 0
BITMAP
0420
02C0
0380
0000
07C0
1860
1820
3020
3800
1800
1C00
0700
0380
0180
0180
C180
8180
C300
7E00
ENDCHAR
STARTCHAR scaron
ENCODING 353
SWIDTH 440 0
DWIDTH 9 0
BBX 10 15 1 0
BITMAP
0840
0580
0700
0000
0F00
1880
3080
3000
1800
0E00
0600
8300
8300
C700
7C00
ENDCHAR
STARTCHAR Tcommaaccent
ENCODING 354
SWIDTH 663 0
DWIDTH 13 0
BBX 13 19 3 -4
BITMAP
FFF8
C708
8618
0600
0600
0600
0E00
0C00
0C00
0C00
0C00
1C00
1800
1800
7E00
0800
0400
0400
1800
ENDCHAR
STARTCHAR tcommaaccent
ENCODING 355
SWIDTH 355 0
DWIDTH 7 0
BBX 6 18 2 -4
BITMAP
30
30
30
FC
60
60
60
60
60
C0
C0
C0
C0
70
40
20
20
C0
ENDCHAR
STARTCHAR Tcaron
ENCODING 356
SWIDTH 663 0
DWIDTH 13 0
BBX 13 19 3 0
BITMAP
0840
0580
0700
0000
FFF8
C708
8618
0600
0600
0600
0E00
0C00
0C00
0C00
0C00
1C00
1800
1800
7E00
ENDCHAR
STARTCHAR tcaron
ENCODING 357
SWIDTH 602 0
DWIDTH 12 0
BBX 12 15 2 0
BITMAP
0070
3070
3020
3060
FCC0
6080
6000
6000
6000
6000
C000
C000
C000
C000
7000
ENDCHAR
STARTCHAR Tbar
ENCODING 358
SWIDTH 663 0
DWIDTH 13 0
BBX 13 15 3 0
BITMAP
FFF8
C708
8618
0600
0600
0600
0E00
3FE0
0C00
0C00
0C00
1C00
1800
1800
7E00
ENDCHAR
STARTCHAR tbar
ENCODING 359
SWIDTH 355 0
DWIDTH 7 0
BBX 9 14 1 0
BITMAP
1800
1800
1800
7E00
3000
3000
3000
3000
FF80
6000
6000
6000
6000
3800
ENDCHAR
STARTCHAR Utilde
ENCODING 360
SWIDTH 727 0
DWIDTH 15 0
BBX 14 18 3 0
BITMAP
0640
0980
0000
FC7C
3010
3010
6010
6020
6020
6020
6020
C020
C040
C040
C040
C080
6180
3E00
ENDCHAR
STARTCHAR utilde
ENCODING 361
SWIDTH 630 0
DWIDTH 13 0
BBX 11 14 2 0
BITMAP
0C80
1300
0000
F1E0
3060
2060
60C0
60C0
60C0
61C0
42C0
C780
CD80
71E0
ENDCHAR
STARTCHAR Umacron
ENCODING 362
SWIDTH 727 0
DWIDTH 15 0
BBX 14 17 3 0
BITMAP
0FC0
0000
FC7C
3010
3010
6010
6020
6020
6020
6020
C020
C040
C040
C040
C080
6180
3E00
ENDCHAR
STARTCHAR umacron
ENCODING 363
SWIDTH 630 0
DWIDTH 13 0
BBX 11 13 2 0
BITMAP
1F80
0000
F1E0
3060
2060
60C0
60C0
60C0
61C0
42C0
C780
CD80
71E0
ENDCHAR
STARTCHAR Ubreve
ENCODING 364
SWIDTH 727 0
DWIDTH 15 0
BBX 14 19 3 0
BITMAP
1040
1980
0F00
0000
FC7C
3010
3010
6010
6020
6020
6020
6020
C020
C040
C040
C040
C080
6180
3E00
ENDCHAR
STARTCHAR ubreve
ENCODING 365
SWIDTH 630 0
DWIDTH 13 0
BBX 11 15 2 0
BITMAP
1040
1980
0F00
0000
F1E0
3060
2060
60C0
60C0
60C0
61C0
42C0
C780
CD80
71E0
ENDCHAR
STARTCHAR Uring
ENCODING 366
SWIDTH 727 0
DWIDTH 15 0
BBX 14 19 3 0
BITMAP
0700
0500
0700
0000
FC7C
3010
3010
6010
6020
6020
6020
6020
C020
C040
C040
C040
C080
6180
3E00
ENDCHAR
STARTCHAR uring
ENCODING 367
SWIDTH 630 0
DWIDTH 13 0
BBX 11 15 2 0
BITMAP
0E00
0A00
0E00
0000
F1E0
3060
2060
60C0
60C0
60C0
61C0
42C0
C780
CD80
71E0
ENDCHAR
STARTCHAR Uhungarumlaut
ENCODING 368
SWIDTH 727 0
DWIDTH 15 0
BBX 14 19 3 0
BITMAP
03E0
0680
0B00
0000
FC7C
3010
3010
6010
6020
6020
6020
6020
C020
C040
C040
C040
C080
6180
3E00
ENDCHAR
STARTCHAR uhungarumlaut
ENCODING 369
SWIDTH 630 0
DWIDTH 13 0
BBX 11 15 2 0
BITMAP
07C0
0D00
1600
0000
F1E0
3060
2060
60C0
60C0
60C0
61C0
42C0
C780
CD80
71E0
ENDCHAR
STARTCHAR Uogonek
ENCODING 370
SWIDTH 727 0
DWIDTH 15 0
BBX 14 19 3 -4
BITMAP
FC7C
3010
3010
6010
6020
6020
6020
6020
C020
C040
C040
C040
C080
6180
3E00
0000
0C00
1000
1C00
ENDCHAR
STARTCHAR uogonek
ENCODING 371
SWIDTH 630 0
DWIDTH 13 0
BBX 11 15 2 -4
BITMAP
F1E0
3060
2060
60C0
60C0
60C0
61C0
42C0
C780
CD80
71E0
0000
0600
0800
0E00
ENDCHAR
STARTCHAR Wcircumflex
ENCODING 372
SWIDTH 878 0
DWIDTH 18 0
BBX 18 19 3 0
BITMAP
00E000
01A000
021000
000000
F843C0
60C180
60C100
61C300
61C200
62C600
22C400
244C00
344800
3C7800
387000
387000
306000
306000
204000
ENDCHAR
STARTCHAR wcircumflex
ENCODING 373
SWIDTH 805 0
DWIDTH 16 0
BBX 16 15 1 0
BITMAP
01C0
0340
0420
0000
E087
30C3
31C2
31C6
13C4
1A4C
1E68
1C70
1C70
1860
1040
ENDCHAR
STARTCHAR Ycircumflex
ENCODING 374
SWIDTH 663 0
DWIDTH 13 0
BBX 13 19 3 0
BITMAP
0700
0D00
1080
0000
F878
7030
3020
3040
3880
1900
1B00
0E00
0C00
0C00
0C00
1800
1800
1800
7E00
ENDCHAR
STARTCHAR ycircumflex
ENCODING 375
SWIDTH 558 0
DWIDTH 11 0
BBX 13 19 0 -4
BITMAP
0380
0680
0840
0000
7830
1818
1810
0C20
0C20
0C40
0C80
0500
0500
0600
0400
0800
1000
3000
E000
ENDCHAR
STARTCHAR Ydieresis
ENCODING 376
SWIDTH 663 0
DWIDTH 13 0
BBX 13 17 3 0
BITMAP
0CC0
0000
F878
7030
3020
3040
3880
1900
1B00
0E00
0C00
0C00
0C00
1800
1800
1800
7E00
ENDCHAR
STARTCHAR Zacute
ENCODING 377
SWIDTH 633 0
DWIDTH 13 0
BBX 13 19 1 0
BITMAP
00E0
0180
0300
0000
1FF8
1030
1070
0060
00C0
0180
0300
0700
0600
0C00
1800
3800
7020
6060
FFE0
ENDCHAR
STARTCHAR zacute
ENCODING 378
SWIDTH 536 0
DWIDTH 11 0
BBX 10 15 1 0
BITMAP
0380
0600
0C00
0000
3FC0
2180
2300
0300
0600
0C00
1800
3000
6080
6180
FF80
ENDCHAR
STARTCHAR Zdotaccent
ENCODING 379
SWIDTH 633 0
DWIDTH 13 0
BBX 13 17 1 0
BITMAP
0180
0000
1FF8
1030
1070
0060
00C0
0180
0300
0700
0600
0C00
1800
3800
7020
6060
FFE0
ENDCHAR
STARTCHAR zdotaccent
ENCODING 380
SWIDTH 536 0
DWIDTH 11 0
BBX 10 13 1 0
BITMAP
0600
0000
3FC0
2180
2300
0300
0600
0C00
1800
3000
6080
6180
FF80
ENDCHAR
STARTCHAR Zcaron
ENCODING 381
SWIDTH 633 0
DWIDTH 13 0
BBX 13 19 1 0
BITMAP
0210
0160
01C0
0000
1FF8
1030
1070
0060
00C0
0180
0300
0700
0600
0C00
1800
3800
7020
6060
FFE0
ENDCHAR
STARTCHAR zcaron
ENCODING 382
SWIDTH 536 0
DWIDTH 11 0
BBX 11 15 1 0
BITMAP
0420
02C0
0380
0000
3FC0
2180
2300
0300
0600
0C00
1800
3000
6080
6180
FF80
ENDCHAR
STARTCHAR uni0186
ENCODING 390
SWIDTH 714 0
DWIDTH 14 0
BBX 13 15 2 0
BITMAP
0FC0
3070
0030
0018
0018
0018
0018
0018
0030
0030
0030
C060
C0C0
C180
FE00
ENDCHAR
STARTCHAR uni0189
ENCODING 393
SWIDTH 770 0
DWIDTH 15 0
BBX 16 15 0 0
BITMAP
1FF8
0E1E
0C06
0C07
0C03
0C03
0C03
7F83
1807
1806
180E
180C
3018
3070
FFC0
ENDCHAR
STARTCHAR uni018E
ENCODING 398
SWIDTH 569 0
DWIDTH 11 0
BBX 13 15 0 0
BITMAP
3FF8
3060
2060
00C0
00C0
00C0
10C0
1FC0
2180
0180
0180
0180
C180
8300
FFC0
ENDCHAR
STARTCHAR florin
ENCODING 402
SWIDTH 608 0
DWIDTH 12 0
BBX 9 19 4 -4
BITMAP
0780
0C80
0880
1800
1800
3000
3000
3000
FC00
3000
3000
6000
6000
6000
6000
6000
C000
C000
C000
ENDCHAR
STARTCHAR uni0197
ENCODING 407
SWIDTH 325 0
DWIDTH 7 0
BBX 9 15 0 0
BITMAP
1F80
0600
0600
0C00
0C00
0C00
0C00
FF80
1800
1800
1800
1800
3000
3000
FC00
ENDCHAR
STARTCHAR uni019A
ENCODING 410
SWIDTH 289 0
DWIDTH 6 0
BBX 9 15 0 0
BITMAP
1E00
0600
0400
0C00
0C00
0C00
0C00
FF80
1800
1800
1800
1800
1000
3000
3C00
ENDCHAR
STARTCHAR uni019D
ENCODING 413
SWIDTH 762 0
DWIDTH 15 0
BBX 20 19 -3 -4
BITMAP
0380F0
01C060
01C040
01E040
016040
013080
023080
021880
021880
020C80
030E80
030700
030700
060300
060100
060000
840000
880000
F00000
ENDCHAR
STARTCHAR uni019F
ENCODING 415
SWIDTH 783 0
DWIDTH 16 0
BBX 14 15 2 0
BITMAP
03E0
0C38
1818
300C
600C
600C
600C
FFFC
C00C
C018
C018
C030
6060
70C0
1F00
ENDCHAR
STARTCHAR Ohorn
ENCODING 416
SWIDTH 783 0
DWIDTH 16 0
BBX 17 15 2 0
BITMAP
03E380
0C3B80
181900
300F00
600E00
600C00
600C00
C00C00
C00C00
C01800
C01800
C03000
606000
70C000
1F0000
ENDCHAR
STARTCHAR ohorn
ENCODING 417
SWIDTH 560 0
DWIDTH 11 0
BBX 13 11 2 0
BITMAP
0F38
19B8
30D0
60F0
60E0
C0C0
C180
C180
C300
E600
7C00
ENDCHAR
STARTCHAR Uhorn
ENCODING 431
SWIDTH 727 0
DWIDTH 15 0
BBX 17 15 3 0
BITMAP
FC7F80
301380
301100
601300
602600
602400
602000
602000
C02000
C04000
C04000
C04000
C08000
618000
3E0000
ENDCHAR
STARTCHAR uhorn
ENCODING 432
SWIDTH 630 0
DWIDTH 13 0
BBX 14 11 2 0
BITMAP
F1FC
307C
2068
60D8
60F0
60E0
61C0
42C0
C780
CD80
71E0
ENDCHAR
STARTCHAR uni01B5
ENCODING 437
SWIDTH 633 0
DWIDTH 13 0
BBX 13 15 1 0
BITMAP
1FF8
1030
1070
0060
00C0
0180
0300
3FE0
0600
0C00
1800
3800
7020
6060
FFE0
ENDCHAR
STARTCHAR uni01B6
ENCODING 438
SWIDTH 536 0
DWIDTH 11 0
BBX 10 11 1 0
BITMAP
3FC0
2180
2300
0300
0600
7FC0
1800
3000
6080
6180
FF80
ENDCHAR
STARTCHAR uni01BB
ENCODING 443
SWIDTH 608 0
DWIDTH 12 0
BBX 11 15 2 0
BITMAP
0F80
18C0
1060
1060
0060
00C0
00C0
FFE0
0200
0C00
1000
2000
6000
C000
FF80
ENDCHAR
STARTCHAR uni01BC
ENCODING 444
SWIDTH 608 0
DWIDTH 12 0
BBX 11 15 2 0
BITMAP
1FE0
2000
2000
2000
2000
3E00
0300
0180
0180
0180
0180
0180
8300
C600
FC00
ENDCHAR
STARTCHAR uni01C0
ENCODING 448
SWIDTH 241 0
DWIDTH 5 0
BBX 5 19 1 -4
BITMAP
08
18
18
10
10
10
30
30
20
20
20
60
60
40
40
40
C0
C0
80
ENDCHAR
STARTCHAR uni01C2
ENCODING 450
SWIDTH 608 0
DWIDTH 12 0
BBX 12 19 1 -3
BITMAP
0080
0180
0180
0100
0100
0100
0300
7FF0
0200
0200
0200
0600
FFE0
0400
0400
0400
0C00
0C00
0800
ENDCHAR
STARTCHAR uni01C3
ENCODING 451
SWIDTH 265 0
DWIDTH 5 0
BBX 5 15 2 0
BITMAP
18
18
10
30
30
30
20
20
20
20
20
40
00
00
C0
ENDCHAR
STARTCHAR uni01CD
ENCODING 461
SWIDTH 747 0
DWIDTH 15 0
BBX 15 19 0 0
BITMAP
0210
0160
01C0
0000
0020
0060
00E0
00F0
0130
0330
0230
0430
0438
0FF8
1018
1018
2018
601C
F07E
ENDCHAR
STARTCHAR uni01CE
ENCODING 462
SWIDTH 608 0
DWIDTH 12 0
BBX 11 15 1 0
BITMAP
0420
02C0
0380
0000
07E0
0860
1060
20C0
60C0
60C0
C1C0
C2C0
C580
CD80
71E0
ENDCHAR
STARTCHAR uni01CF
ENCODING 463
SWIDTH 325 0
DWIDTH 7 0
BBX 9 19 0 0
BITMAP
1080
0B00
0E00
0000
1F80
0600
0600
0C00
0C00
0C00
0C00
1C00
1800
1800
1800
1800
3000
3000
FC00
ENDCHAR
STARTCHAR uni01D0
ENCODING 464
SWIDTH 289 0
DWIDTH 6 0
BBX 6 15 2 0
BITMAP
84
58
70
00
F0
30
20
60
60
60
60
40
C0
C0
F0
ENDCHAR
STARTCHAR uni01D1
ENCODING 465
SWIDTH 783 0
DWIDTH 16 0
BBX 14 19 2 0
BITMAP
0420
02C0
0380
0000
03E0
0C38
1818
300C
600C
600C
600C
C00C
C00C
C018
C018
C030
6060
70C0
1F00
ENDCHAR
STARTCHAR uni01D2
ENCODING 466
SWIDTH 560 0
DWIDTH 11 0
BBX 10 15 2 0
BITMAP
1080
0B00
0E00
0000
0F00
1980
30C0
60C0
60C0
C0C0
C180
C180
C300
E600
7C00
ENDCHAR
STARTCHAR uni01D3
ENCODING 467
SWIDTH 727 0
DWIDTH 15 0
BBX 14 19 3 0
BITMAP
0840
0580
0700
0000
FC7C
3010
3010
6010
6020
6020
6020
6020
C020
C040
C040
C040
C080
6180
3E00
ENDCHAR
STARTCHAR uni01D4
ENCODING 468
SWIDTH 630 0
DWIDTH 13 0
BBX 11 15 2 0
BITMAP
1080
0B00
0E00
0000
F1E0
3060
2060
60C0
60C0
60C0
61C0
42C0
C780
CD80
71E0
ENDCHAR
STARTCHAR uni01D5
ENCODING 469
SWIDTH 727 0
DWIDTH 15 0
BBX 14 19 3 0
BITMAP
0FC0
0000
0660
0000
FC7C
3010
3010
6010
6020
6020
6020
6020
C020
C040
C040
C040
C080
6180
3E00
ENDCHAR
STARTCHAR uni01D6
ENCODING 470
SWIDTH 630 0
DWIDTH 13 0
BBX 11 15 2 0
BITMAP
1F80
0000
0660
0000
F1E0
3060
2060
60C0
60C0
60C0
61C0
42C0
C780
CD80
71E0
ENDCHAR
STARTCHAR uni01D7
ENCODING 471
SWIDTH 727 0
DWIDTH 15 0
BBX 14 21 3 0
BITMAP
01C0
0300
0600
0000
0660
0000
FC7C
3010
3010
6010
6020
6020
6020
6020
C020
C040
C040
C040
C080
6180
3E00
ENDCHAR
STARTCHAR uni01D8
ENCODING 472
SWIDTH 630 0
DWIDTH 13 0
BBX 11 17 2 0
BITMAP
01C0
0300
0600
0000
0660
0000
F1E0
3060
2060
60C0
60C0
60C0
61C0
42C0
C780
CD80
71E0
ENDCHAR
STARTCHAR uni01D9
ENCODING 473
SWIDTH 727 0
DWIDTH 15 0
BBX 14 21 3 0
BITMAP
0840
0580
0700
0000
0660
0000
FC7C
3010
3010
6010
6020
6020
6020
6020
C020
C040
C040
C040
C080
6180
3E00
ENDCHAR
STARTCHAR uni01DA
ENCODING 474
SWIDTH 630 0
DWIDTH 13 0
BBX 11 17 2 0
BITMAP
1080
0B00
0E00
0000
0660
0000
F1E0
3060
2060
60C0
60C0
60C0
61C0
42C0
C780
CD80
71E0
ENDCHAR
STARTCHAR uni01DB
ENCODING 475
SWIDTH 727 0
DWIDTH 15 0
BBX 14 21 3 0
BITMAP
0E00
0200
0100
0000
0660
0000
FC7C
3010
3010
6010
6020
6020
6020
6020
C020
C040
C040
C040
C080
6180
3E00
ENDCHAR
STARTCHAR uni01DC
ENCODING 476
SWIDTH 630 0
DWIDTH 13 0
BBX 11 17 2 0
BITMAP
1C00
0400
0200
0000
0660
0000
F1E0
3060
2060
60C0
60C0
60C0
61C0
42C0
C780
CD80
71E0
ENDCHAR
STARTCHAR uni01DD
ENCODING 477
SWIDTH 518 0
DWIDTH 10 0
BBX 9 11 2 0
BITMAP
1E00
6300
C180
0180
0F80
3180
6100
4300
C200
C400
7800
ENDCHAR
STARTCHAR uni01DE
ENCODING 478
SWIDTH 747 0
DWIDTH 15 0
BBX 15 19 0 0
BITMAP
03F0
0000
00CC
0000
0020
0060
00E0
00F0
0130
0330
0230
0430
0438
0FF8
1018
1018
2018
601C
F07E
ENDCHAR
STARTCHAR uni01DF
ENCODING 479
SWIDTH 608 0
DWIDTH 12 0
BBX 11 15 1 0
BITMAP
0FC0
0000
0660
0000
07E0
0860
1060
20C0
60C0
60C0
C1C0
C2C0
C580
CD80
71E0
ENDCHAR
STARTCHAR uni01E0
ENCODING 480
SWIDTH 747 0
DWIDTH 15 0
BBX 15 19 0 0
BITMAP
03F0
0000
00C0
0000
0020
0060
00E0
00F0
0130
0330
0230
0430
0438
0FF8
1018
1018
2018
601C
F07E
ENDCHAR
STARTCHAR uni01E1
ENCODING 481
SWIDTH 608 0
DWIDTH 12 0
BBX 11 15 1 0
BITMAP
0FC0
0000
0300
0000
07E0
0860
1060
20C0
60C0
60C0
C1C0
C2C0
C580
CD80
71E0
ENDCHAR
STARTCHAR uni01E2
ENCODING 482
SWIDTH 907 0
DWIDTH 18 0
BBX 20 17 0 0
BITMAP
003F00
000000
001FF0
001C10
003830
005800
009800
011840
011FC0
023080
043000
0FF000
083000
103000
207040
6070C0
F1FFC0
ENDCHAR
STARTCHAR uni01E3
ENCODING 483
SWIDTH 881 0
DWIDTH 18 0
BBX 17 13 1 0
BITMAP
01F800
000000
07EF00
087180
106180
206100
60C300
60C600
C1F800
C3C000
C6C080
CCE300
707C00
ENDCHAR
STARTCHAR uni01E4
ENCODING 484
SWIDTH 756 0
DWIDTH 15 0
BBX 17 15 2 0
BITMAP
03FC00
0E0800
180800
300000
700000
600000
600000
C00000
C0FC00
C03000
C0FF80
E06000
606000
706000
1F8000
ENDCHAR
STARTCHAR uni01E5
ENCODING 485
SWIDTH 602 0
DWIDTH 12 0
BBX 11 15 1 -4
BITMAP
07E0
0860
1060
3040
30C0
60C0
61C0
61C0
6280
6580
3980
FFE0
8100
C200
7C00
ENDCHAR
STARTCHAR Gcaron
ENCODING 486
SWIDTH 756 0
DWIDTH 15 0
BBX 14 19 2 0
BITMAP
0420
02C0
0380
0000
03FC
0E08
1808
3000
7000
6000
6000
C000
C0FC
C030
C030
E060
6060
7060
1F80
ENDCHAR
STARTCHAR gcaron
ENCODING 487
SWIDTH 602 0
DWIDTH 12 0
BBX 11 19 1 -4
BITMAP
0840
0580
0700
0000
07E0
0860
1060
3040
30C0
60C0
61C0
61C0
6280
6580
3980
0180
8100
C200
7C00
ENDCHAR
STARTCHAR uni01E8
ENCODING 488
SWIDTH 698 0
DWIDTH 14 0
BBX 15 19 1 0
BITMAP
0420
02C0
0380
0000
1F1E
0E0C
0C10
0C20
0CC0
0D80
1B00
1F00
1B00
1980
19C0
30C0
3060
3070
FCF8
ENDCHAR
STARTCHAR uni01E9
ENCODING 489
SWIDTH 560 0
DWIDTH 11 0
BBX 10 19 2 0
BITMAP
4200
2C00
3800
0000
7800
1800
1000
3000
30C0
3080
3180
2600
6800
7800
6C00
6E00
4600
C300
C3C0
ENDCHAR
STARTCHAR uni01EA
ENCODING 490
SWIDTH 783 0
DWIDTH 16 0
BBX 14 19 2 -4
BITMAP
03E0
0C38
1818
300C
600C
600C
600C
C00C
C00C
C018
C018
C030
6060
70C0
1F00
0000
0600
0800
0E00
ENDCHAR
STARTCHAR uni01EB
ENCODING 491
SWIDTH 560 0
DWIDTH 11 0
BBX 10 15 2 -4
BITMAP
0F00
1980
30C0
60C0
60C0
C0C0
C180
C180
C300
E600
7C00
0000
1800
2000
3800
ENDCHAR
STARTCHAR uni01EC
ENCODING 492
SWIDTH 783 0
DWIDTH 16 0
BBX 14 21 2 -4
BITMAP
07E0
0000
03E0
0C38
1818
300C
600C
600C
600C
C00C
C00C
C018
C018
C030
6060
70C0
1F00
0000
0600
0800
0E00
ENDCHAR
STARTCHAR uni01ED
ENCODING 493
SWIDTH 560 0
DWIDTH 11 0
BBX 10 17 2 -4
BITMAP
1F80
0000
0F00
1980
30C0
60C0
60C0
C0C0
C180
C180
C300
E600
7C00
0000
1800
2000
3800
ENDCHAR
STARTCHAR uni01F0
ENCODING 496
SWIDTH 343 0
DWIDTH 7 0
BBX 10 19 -1 -4
BITMAP
0840
0580
0700
0000
0780
0180
0180
0180
0300
0300
0300
0300
0300
0600
0600
0600
8400
8800
F000
ENDCHAR
STARTCHAR uni01F4
ENCODING 500
SWIDTH 756 0
DWIDTH 15 0
BBX 14 19 2 0
BITMAP
00E0
0180
0300
0000
03FC
0E08
1808
3000
7000
6000
6000
C000
C0FC
C030
C030
E060
6060
7060
1F80
ENDCHAR
STARTCHAR uni01F5
ENCODING 501
SWIDTH 602 0
DWIDTH 12 0
BBX 11 19 1 -4
BITMAP
01C0
0300
0600
0000
07E0
0860
1060
3040
30C0
60C0
61C0
61C0
6280
6580
3980
0180
8100
C200
7C00
ENDCHAR
STARTCHAR uni01F8
ENCODING 504
SWIDTH 762 0
DWIDTH 15 0
BBX 17 19 0 0
BITMAP
038000
008000
004000
000000
1C0780
0E0300
0E0200
0F0200
0B0200
098400
118400
10C400
10C400
106400
107400
203800
203800
201800
F80800
ENDCHAR
STARTCHAR uni01F9
ENCODING 505
SWIDTH 631 0
DWIDTH 13 0
BBX 11 15 2 0
BITMAP
1C00
0400
0200
0000
F1C0
3260
3460
2840
70C0
60C0
60C0
60C0
4080
C180
C1E0
ENDCHAR
STARTCHAR Aringacute
ENCODING 506
SWIDTH 747 0
DWIDTH 15 0
BBX 15 23 0 0
BITMAP
001C
0030
0060
0000
0038
0028
0038
0000
0020
0060
00E0
00F0
0130
0330
0230
0430
0438
0FF8
1018
1018
2018
601C
F07E
ENDCHAR
STARTCHAR aringacute
ENCODING 507
SWIDTH 608 0
DWIDTH 12 0
BBX 11 19 1 0
BITMAP
01C0
0300
0600
0000
0380
0280
0380
0000
07E0
0860
1060
20C0
60C0
60C0
C1C0
C2C0
C580
CD80
71E0
ENDCHAR
STARTCHAR AEacute
ENCODING 508
SWIDTH 907 0
DWIDTH 18 0
BBX 20 19 0 0
BITMAP
000700
000C00
001800
000000
001FF0
001C10
003830
005800
009800
011840
011FC0
023080
043000
0FF000
083000
103000
207040
6070C0
F1FFC0
ENDCHAR
STARTCHAR aeacute
ENCODING 509
SWIDTH 881 0
DWIDTH 18 0
BBX 17 15 1 0
BITMAP
001C00
003000
006000
000000
07EF00
087180
106180
206100
60C300
60C600
C1F800
C3C000
C6C080
CCE300
707C00
ENDCHAR
STARTCHAR Oslashacute
ENCODING 510
SWIDTH 783 0
DWIDTH 16 0
BBX 17 19 1 0
BITMAP
003800
006000
00C000
000000
01F180
071E00
0C0E00
180E00
181600
302600
304600
708600
610600
620C00
640C00
781800
303000
586000
CF8000
ENDCHAR
STARTCHAR oslashacute
ENCODING 511
SWIDTH 560 0
DWIDTH 11 0
BBX 12 15 1 0
BITMAP
00E0
0180
0300
0000
07B0
08C0
10E0
3160
6260
6440
68C0
70C0
6180
7300
9C00
ENDCHAR
STARTCHAR Scommaaccent
ENCODING 536
SWIDTH 549 0
DWIDTH 11 0
BBX 11 23 1 -8
BITMAP
07C0
1860
1820
3020
3800
1800
1C00
0700
0380
0180
0180
C180
8180
C300
7E00
0000
1C00
1C00
1C00
0800
0800
1800
3000
ENDCHAR
STARTCHAR scommaaccent
ENCODING 537
SWIDTH 440 0
DWIDTH 9 0
BBX 9 19 1 -8
BITMAP
0F00
1880
3080
3000
1800
0E00
0600
8300
8300
C700
7C00
0000
1C00
1C00
1C00
0800
0800
1800
3000
ENDCHAR
STARTCHAR Tcommaaccent
ENCODING 538
SWIDTH 663 0
DWIDTH 13 0
BBX 13 23 3 -8
BITMAP
FFF8
C708
8618
0600
0600
0600
0E00
0C00
0C00
0C00
0C00
1C00
1800
1800
7E00
0000
0E00
0E00
0E00
0400
0400
0C00
1800
ENDCHAR
STARTCHAR tcommaaccent
ENCODING 539
SWIDTH 355 0
DWIDTH 7 0
BBX 6 22 2 -8
BITMAP
30
30
30
FC
60
60
60
60
60
C0
C0
C0
C0
70
00
70
70
70
20
20
60
C0
ENDCHAR
STARTCHAR uni021E
ENCODING 542
SWIDTH 776 0
DWIDTH 16 0
BBX 17 19 1 0
BITMAP
010800
00B000
00E000
000000
1F1F80
0E0600
0C0600
0C0600
0C0E00
0C0C00
180C00
1FFC00
180C00
181C00
181800
301800
301800
303800
FC7C00
ENDCHAR
STARTCHAR uni021F
ENCODING 543
SWIDTH 631 0
DWIDTH 13 0
BBX 11 19 2 0
BITMAP
4200
2C00
3800
0000
7800
1800
1800
3000
31C0
3260
3460
2840
70C0
60C0
60C0
60C0
4080
C180
C1E0
ENDCHAR
STARTCHAR uni0226
ENCODING 550
SWIDTH 747 0
DWIDTH 15 0
BBX 15 17 0 0
BITMAP
00C0
0000
0020
0060
00E0
00F0
0130
0330
0230
0430
0438
0FF8
1018
1018
2018
601C
F07E
ENDCHAR
STARTCHAR uni0227
ENCODING 551
SWIDTH 608 0
DWIDTH 12 0
BBX 11 13 1 0
BITMAP
0300
0000
07E0
0860
1060
20C0
60C0
60C0
C1C0
C2C0
C580
CD80
71E0
ENDCHAR
STARTCHAR uni0228
ENCODING 552
SWIDTH 569 0
DWIDTH 11 0
BBX 13 19 0 -4
BITMAP
1FF8
0608
0C18
0C00
0C00
0C00
0C20
1FC0
1840
1800
1800
1800
3020
3060
FFE0
0400
0200
0200
0C00
ENDCHAR
STARTCHAR uni0229
ENCODING 553
SWIDTH 518 0
DWIDTH 10 0
BBX 9 15 2 -4
BITMAP
0F00
1180
2180
6100
4300
C600
F800
C000
C180
6300
3C00
0800
0400
0400
1800
ENDCHAR
STARTCHAR uni022A
ENCODING 554
SWIDTH 783 0
DWIDTH 16 0
BBX 14 19 2 0
BITMAP
07E0
0000
0330
0000
03E0
0C38
1818
300C
600C
600C
600C
C00C
C00C
C018
C018
C030
6060
70C0
1F00
ENDCHAR
STARTCHAR uni022B
ENCODING 555
SWIDTH 560 0
DWIDTH 11 0
BBX 10 15 2 0
BITMAP
1F80
0000
0CC0
0000
0F00
1980
30C0
60C0
60C0
C0C0
C180
C180
C300
E600
7C00
ENDCHAR
STARTCHAR uni022C
ENCODING 556
SWIDTH 783 0
DWIDTH 16 0
BBX 14 20 2 0
BITMAP
07E0
0000
0190
0260
0000
03E0
0C38
1818
300C
600C
600C
600C
C00C
C00C
C018
C018
C030
6060
70C0
1F00
ENDCHAR
STARTCHAR uni022D
ENCODING 557
SWIDTH 560 0
DWIDTH 11 0
BBX 10 16 2 0
BITMAP
1F80
0000
0640
0980
0000
0F00
1980
30C0
60C0
60C0
C0C0
C180
C180
C300
E600
7C00
ENDCHAR
STARTCHAR uni022E
ENCODING 558
SWIDTH 783 0
DWIDTH 16 0
BBX 14 17 2 0
BITMAP
0180
0000
03E0
0C38
1818
300C
600C
600C
600C
C00C
C00C
C018
C018
C030
6060
70C0
1F00
ENDCHAR
STARTCHAR uni022F
ENCODING 559
SWIDTH 560 0
DWIDTH 11 0
BBX 10 13 2 0
BITMAP
0600
0000
0F00
1980
30C0
60C0
60C0
C0C0
C180
C180
C300
E600
7C00
ENDCHAR
STARTCHAR uni0230
ENCODING 560
SWIDTH 783 0
DWIDTH 16 0
BBX 14 19 2 0
BITMAP
07E0
0000
0180
0000
03E0
0C38
1818
300C
600C
600C
600C
C00C
C00C
C018
C018
C030
6060
70C0
1F00
ENDCHAR
STARTCHAR uni0231
ENCODING 561
SWIDTH 560 0
DWIDTH 11 0
BBX 10 15 2 0
BITMAP
1F80
0000
0600
0000
0F00
1980
30C0
60C0
60C0
C0C0
C180
C180
C300
E600
7C00
ENDCHAR
STARTCHAR uni0232
ENCODING 562
SWIDTH 663 0
DWIDTH 13 0
BBX 13 17 3 0
BITMAP
1F80
0000
F878
7030
3020
3040
3880
1900
1B00
0E00
0C00
0C00
0C00
1800
1800
1800
7E00
ENDCHAR
STARTCHAR uni0233
ENCODING 563
SWIDTH 558 0
DWIDTH 11 0
BBX 13 17 0 -4
BITMAP
0FC0
0000
7830
1818
1810
0C20
0C20
0C40
0C80
0500
0500
0600
0400
0800
1000
3000
E000
ENDCHAR
STARTCHAR uni0250
ENCODING 592
SWIDTH 608 0
DWIDTH 12 0
BBX 11 11 1 0
BITMAP
F1C0
3660
3460
6860
7060
60C0
60C0
6080
C100
C200
FC00
ENDCHAR
STARTCHAR uni0259
ENCODING 601
SWIDTH 518 0
DWIDTH 10 0
BBX 9 11 2 0
BITMAP
1E00
6300
C180
0180
0F80
3180
6100
4300
C200
C400
7800
ENDCHAR
STARTCHAR uni025F
ENCODING 607
SWIDTH 380 0
DWIDTH 8 0
BBX 10 20 1 -9
BITMAP
00C0
00C0
00C0
0180
0180
0180
0180
0180
0300
0300
0300
0300
0300
0600
3F80
0600
0400
CC00
8800
F000
ENDCHAR
STARTCHAR uni0265
ENCODING 613
SWIDTH 631 0
DWIDTH 13 0
BBX 11 15 2 -4
BITMAP
F060
3060
2040
60C0
60C0
60C0
61C0
4280
C580
C980
7180
0180
0300
0300
03C0
ENDCHAR
STARTCHAR uni0275
ENCODING 629
SWIDTH 560 0
DWIDTH 11 0
BBX 10 11 2 0
BITMAP
0F00
1980
30C0
60C0
60C0
FFC0
C180
C180
C300
E600
7C00
ENDCHAR
STARTCHAR uni0279
ENCODING 633
SWIDTH 470 0
DWIDTH 9 0
BBX 9 11 2 0
BITMAP
0180
0180
0180
0300
0300
0300
0700
0B00
1E00
7600
C780
ENDCHAR
STARTCHAR uni0287
ENCODING 647
SWIDTH 355 0
DWIDTH 7 0
BBX 6 14 2 0
BITMAP
38
0C
0C
0C
0C
18
18
18
18
18
FC
30
30
30
ENDCHAR
STARTCHAR uni0289
ENCODING 649
SWIDTH 630 0
DWIDTH 13 0
BBX 11 11 2 0
BITMAP
F1E0
3060
2060
60C0
60C0
FFE0
61C0
42C0
C780
CD80
71E0
ENDCHAR
STARTCHAR uni028C
ENCODING 652
SWIDTH 558 0
DWIDTH 11 0
BBX 11 11 1 0
BITMAP
0200
0600
0E00
1A00
1300
2300
4300
C300
C180
8180
C1E0
ENDCHAR
STARTCHAR uni028D
ENCODING 653
SWIDTH 805 0
DWIDTH 16 0
BBX 16 11 1 0
BITMAP
0208
0618
0E38
0E38
1678
3258
23C8
638C
438C
C30C
E107
ENDCHAR
STARTCHAR uni028E
ENCODING 654
SWIDTH 558 0
DWIDTH 11 0
BBX 13 15 0 0
BITMAP
0038
0060
0040
0080
0100
0300
0500
0500
0980
1180
2180
2180
40C0
C0C0
60F0
ENDCHAR
STARTCHAR uni029E
ENCODING 670
SWIDTH 560 0
DWIDTH 11 0
BBX 10 15 2 -4
BITMAP
F0C0
30C0
1880
1D80
0D80
0780
0580
1900
6300
4300
C300
0300
0200
0600
0780
ENDCHAR
STARTCHAR uni02BB
ENCODING 699
SWIDTH 265 0
DWIDTH 5 0
BBX 4 6 3 9
BITMAP
30
60
40
40
E0
E0
ENDCHAR
STARTCHAR afii57929
ENCODING 700
SWIDTH 265 0
DWIDTH 5 0
BBX 4 6 3 9
BITMAP
70
70
20
60
C0
80
ENDCHAR
STARTCHAR afii64937
ENCODING 701
SWIDTH 265 0
DWIDTH 5 0
BBX 4 6 3 9
BITMAP
E0
E0
40
60
30
10
ENDCHAR
STARTCHAR circumflex
ENCODING 710
SWIDTH 560 0
DWIDTH 11 0
BBX 6 3 5 12
BITMAP
38
68
84
ENDCHAR
STARTCHAR caron
ENCODING 711
SWIDTH 560 0
DWIDTH 11 0
BBX 6 3 6 12
BITMAP
84
58
70
ENDCHAR
STARTCHAR uni02C8
ENCODING 712
SWIDTH 231 0
DWIDTH 5 0
BBX 2 5 3 10
BITMAP
C0
C0
C0
40
40
ENDCHAR
STARTCHAR macron
ENCODING 713
SWIDTH 560 0
DWIDTH 11 0
BBX 6 1 6 14
BITMAP
FC
ENDCHAR
STARTCHAR uni02CA
ENCODING 714
SWIDTH 560 0
DWIDTH 11 0
BBX 5 3 7 12
BITMAP
38
60
C0
ENDCHAR
STARTCHAR uni02CB
ENCODING 715
SWIDTH 560 0
DWIDTH 11 0
BBX 4 3 6 12
BITMAP
E0
20
10
ENDCHAR
STARTCHAR uni02CD
ENCODING 717
SWIDTH 560 0
DWIDTH 11 0
BBX 6 1 6 -2
BITMAP
FC
ENDCHAR
STARTCHAR uni02CE
ENCODING 718
SWIDTH 560 0
DWIDTH 11 0
BBX 4 3 6 -4
BITMAP
E0
20
10
ENDCHAR
STARTCHAR uni02CF
ENCODING 719
SWIDTH 560 0
DWIDTH 11 0
BBX 5 3 7 -4
BITMAP
38
60
C0
ENDCHAR
STARTCHAR breve
ENCODING 728
SWIDTH 560 0
DWIDTH 11 0
BBX 7 3 5 12
BITMAP
82
CC
78
ENDCHAR
STARTCHAR dotaccent
ENCODING 729
SWIDTH 560 0
DWIDTH 11 0
BBX 2 1 7 14
BITMAP
C0
ENDCHAR
STARTCHAR ring
ENCODING 730
SWIDTH 560 0
DWIDTH 11 0
BBX 3 3 7 13
BITMAP
E0
A0
E0
ENDCHAR
STARTCHAR ogonek
ENCODING 731
SWIDTH 560 0
DWIDTH 11 0
BBX 3 3 3 -4
BITMAP
60
80
E0
ENDCHAR
STARTCHAR tilde
ENCODING 732
SWIDTH 560 0
DWIDTH 11 0
BBX 6 2 6 13
BITMAP
64
98
ENDCHAR
STARTCHAR hungarumlaut
ENCODING 733
SWIDTH 560 0
DWIDTH 11 0
BBX 7 3 6 12
BITMAP
3E
68
B0
ENDCHAR
STARTCHAR uni02EE
ENCODING 750
SWIDTH 457 0
DWIDTH 9 0
BBX 7 6 4 9
BITMAP
6E
6E
64
64
CC
88
ENDCHAR
STARTCHAR uni037E
ENCODING 894
SWIDTH 265 0
DWIDTH 5 0
BBX 5 15 1 -4
BITMAP
38
38
00
00
00
00
00
00
00
60
60
60
60
40
C0
ENDCHAR
STARTCHAR tonos
ENCODING 900
SWIDTH 560 0
DWIDTH 11 0
BBX 5 3 7 12
BITMAP
38
60
C0
ENDCHAR
STARTCHAR dieresistonos
ENCODING 901
SWIDTH 560 0
DWIDTH 11 0
BBX 7 5 6 14
BITMAP
0E
18
30
00
CC
ENDCHAR
STARTCHAR anoteleia
ENCODING 903
SWIDTH 608 0
DWIDTH 12 0
BBX 2 2 6 6
BITMAP
C0
C0
ENDCHAR
STARTCHAR mu
ENCODING 956
SWIDTH 663 0
DWIDTH 13 0
BBX 11 15 2 -4
BITMAP
71E0
3060
3060
3040
30C0
20C0
21C0
61C0
6280
6580
7DE0
4000
C000
C000
C000
ENDCHAR
STARTCHAR uni1E00
ENCODING 7680
SWIDTH 747 0
DWIDTH 15 0
BBX 15 19 0 -4
BITMAP
0020
0060
00E0
00F0
0130
0330
0230
0430
0438
0FF8
1018
1018
2018
601C
F07E
0000
01C0
0140
01C0
ENDCHAR
STARTCHAR uni1E01
ENCODING 7681
SWIDTH 608 0
DWIDTH 12 0
BBX 11 15 1 -4
BITMAP
07E0
0860
1060
20C0
60C0
60C0
C1C0
C2C0
C580
CD80
71E0
0000
0E00
0A00
0E00
ENDCHAR
STARTCHAR uni1E02
ENCODING 7682
SWIDTH 606 0
DWIDTH 12 0
BBX 12 17 1 0
BITMAP
0300
0000
1FE0
0C70
0C30
0C30
0C30
0860
18C0
1F00
18C0
1860
1860
3060
3060
31C0
FF80
ENDCHAR
STARTCHAR uni1E03
ENCODING 7683
SWIDTH 596 0
DWIDTH 12 0
BBX 11 17 2 0
BITMAP
1800
0000
7800
1800
1800
1000
31C0
3660
3C60
2860
7060
6040
60C0
6080
4180
E300
FC00
ENDCHAR
STARTCHAR uni1E04
ENCODING 7684
SWIDTH 606 0
DWIDTH 12 0
BBX 12 17 1 -2
BITMAP
1FE0
0C70
0C30
0C30
0C30
0860
18C0
1F00
18C0
1860
1860
3060
3060
31C0
FF80
0000
0600
ENDCHAR
STARTCHAR uni1E05
ENCODING 7685
SWIDTH 596 0
DWIDTH 12 0
BBX 11 17 2 -2
BITMAP
7800
1800
1800
1000
31C0
3660
3C60
2860
7060
6040
60C0
6080
4180
E300
FC00
0000
1800
ENDCHAR
STARTCHAR uni1E06
ENCODING 7686
SWIDTH 606 0
DWIDTH 12 0
BBX 12 17 1 -2
BITMAP
1FE0
0C70
0C30
0C30
0C30
0860
18C0
1F00
18C0
1860
1860
3060
3060
31C0
FF80
0000
1F80
ENDCHAR
STARTCHAR uni1E07
ENCODING 7687
SWIDTH 596 0
DWIDTH 12 0
BBX 11 17 2 -2
BITMAP
7800
1800
1800
1000
31C0
3660
3C60
2860
7060
6040
60C0
6080
4180
E300
FC00
0000
7E00
ENDCHAR
STARTCHAR uni1E08
ENCODING 7688
SWIDTH 714 0
DWIDTH 14 0
BBX 13 23 2 -4
BITMAP
00E0
0180
0300
0000
03F8
0C18
1818
3018
6000
6000
6000
C000
C000
C000
C000
C000
6000
7060
1F80
0800
0400
0400
1800
ENDCHAR
STARTCHAR uni1E09
ENCODING 7689
SWIDTH 487 0
DWIDTH 10 0
BBX 9 19 2 -4
BITMAP
0380
0600
0C00
0000
0F80
1180
2080
6000
4000
C000
C000
C000
C000
6300
3C00
2000
1000
1000
6000
ENDCHAR
STARTCHAR uni1E0A
ENCODING 7690
SWIDTH 770 0
DWIDTH 15 0
BBX 16 17 0 0
BITMAP
00C0
0000
1FF8
0E1E
0C06
0C07
0C03
0C03
0C03
1803
1807
1806
180E
380C
3018
3070
FFC0
ENDCHAR
STARTCHAR uni1E0B
ENCODING 7691
SWIDTH 608 0
DWIDTH 12 0
BBX 12 17 1 0
BITMAP
00C0
0000
00F0
0030
0060
0060
07E0
0860
1060
20C0
60C0
60C0
C1C0
C2C0
C580
CD80
71E0
ENDCHAR
STARTCHAR uni1E0C
ENCODING 7692
SWIDTH 770 0
DWIDTH 15 0
BBX 16 17 0 -2
BITMAP
1FF8
0E1E
0C06
0C07
0C03
0C03
0C03
1803
1807
1806
180E
380C
3018
3070
FFC0
0000
0300
ENDCHAR
STARTCHAR uni1E0D
ENCODING 7693
SWIDTH 608 0
DWIDTH 12 0
BBX 12 17 1 -2
BITMAP
00F0
0030
0060
0060
07E0
0860
1060
20C0
60C0
60C0
C1C0
C2C0
C580
CD80
71E0
0000
0600
ENDCHAR
STARTCHAR uni1E0E
ENCODING 7694
SWIDTH 770 0
DWIDTH 15 0
BBX 16 17 0 -2
BITMAP
1FF8
0E1E
0C06
0C07
0C03
0C03
0C03
1803
1807
1806
180E
380C
3018
3070
FFC0
0000
0FC0
ENDCHAR
STARTCHAR uni1E0F
ENCODING 7695
SWIDTH 608 0
DWIDTH 12 0
BBX 12 17 1 -2
BITMAP
00F0
0030
0060
0060
07E0
0860
1060
20C0
60C0
60C0
C1C0
C2C0
C580
CD80
71E0
0000
1F80
ENDCHAR
STARTCHAR uni1E10
ENCODING 7696
SWIDTH 770 0
DWIDTH 15 0
BBX 16 19 0 -4
BITMAP
1FF8
0E1E
0C06
0C07
0C03
0C03
0C03
1803
1807
1806
180E
380C
3018
3070
FFC0
0200
0100
0100
0600
ENDCHAR
STARTCHAR uni1E11
ENCODING 7697
SWIDTH 608 0
DWIDTH 12 0
BBX 12 19 1 -4
BITMAP
00F0
0030
0060
0060
07E0
0860
1060
20C0
60C0
60C0
C1C0
C2C0
C580
CD80
77E0
0400
0200
0200
0C00
ENDCHAR
STARTCHAR uni1E12
ENCODING 7698
SWIDTH 770 0
DWIDTH 15 0
BBX 16 19 0 -4
BITMAP
1FF8
0E1E
0C06
0C07
0C03
0C03
0C03
1803
1807
1806
180E
380C
3018
3070
FFC0
0000
0380
0680
0840
ENDCHAR
STARTCHAR uni1E13
ENCODING 7699
SWIDTH 608 0
DWIDTH 12 0
BBX 12 19 1 -4
BITMAP
00F0
0030
0060
0060
07E0
0860
1060
20C0
60C0
60C0
C1C0
C2C0
C580
CD80
71E0
0000
0E00
1A00
2100
ENDCHAR
STARTCHAR uni1E14
ENCODING 7700
SWIDTH 569 0
DWIDTH 11 0
BBX 13 21 0 0
BITMAP
0E00
0200
0100
0000
0FC0
0000
1FF8
0608
0C18
0C00
0C00
0C00
0C20
1FC0
1840
1800
1800
1800
3020
3060
FFE0
ENDCHAR
STARTCHAR uni1E15
ENCODING 7701
SWIDTH 518 0
DWIDTH 10 0
BBX 9 17 2 0
BITMAP
1C00
0400
0200
0000
1F80
0000
0F00
1180
2180
6100
4300
C600
F800
C000
C180
6300
3C00
ENDCHAR
STARTCHAR uni1E16
ENCODING 7702
SWIDTH 569 0
DWIDTH 11 0
BBX 13 21 0 0
BITMAP
00E0
0180
0300
0000
0FC0
0000
1FF8
0608
0C18
0C00
0C00
0C00
0C20
1FC0
1840
1800
1800
1800
3020
3060
FFE0
ENDCHAR
STARTCHAR uni1E17
ENCODING 7703
SWIDTH 518 0
DWIDTH 10 0
BBX 9 17 2 0
BITMAP
0380
0600
0C00
0000
1F80
0000
0F00
1180
2180
6100
4300
C600
F800
C000
C180
6300
3C00
ENDCHAR
STARTCHAR uni1E18
ENCODING 7704
SWIDTH 569 0
DWIDTH 11 0
BBX 13 19 0 -4
BITMAP
1FF8
0608
0C18
0C00
0C00
0C00
0C20
1FC0
1840
1800
1800
1800
3020
3060
FFE0
0000
0700
0D00
1080
ENDCHAR
STARTCHAR uni1E19
ENCODING 7705
SWIDTH 518 0
DWIDTH 10 0
BBX 9 15 2 -4
BITMAP
0F00
1180
2180
6100
4300
C600
F800
C000
C180
6300
3C00
0000
1C00
3400
4200
ENDCHAR
STARTCHAR uni1E1A
ENCODING 7706
SWIDTH 569 0
DWIDTH 11 0
BBX 13 18 0 -3
BITMAP
1FF8
0608
0C18
0C00
0C00
0C00
0C20
1FC0
1840
1800
1800
1800
3020
3060
FFE0
0000
0C80
1300
ENDCHAR
STARTCHAR uni1E1B
ENCODING 7707
SWIDTH 518 0
DWIDTH 10 0
BBX 9 14 2 -3
BITMAP
0F00
1180
2180
6100
4300
C600
F800
C000
C180
6300
3C00
0000
3200
4C00
ENDCHAR
STARTCHAR uni1E1C
ENCODING 7708
SWIDTH 569 0
DWIDTH 11 0
BBX 13 23 0 -4
BITMAP
0820
0CC0
0780
0000
1FF8
0608
0C18
0C00
0C00
0C00
0C20
1FC0
1840
1800
1800
1800
3020
3060
FFE0
0400
0200
0200
0C00
ENDCHAR
STARTCHAR uni1E1D
ENCODING 7709
SWIDTH 518 0
DWIDTH 10 0
BBX 9 19 2 -4
BITMAP
2080
3300
1E00
0000
0F00
1180
2180
6100
4300
C600
F800
C000
C180
6300
3C00
0800
0400
0400
1800
ENDCHAR
STARTCHAR uni1E1E
ENCODING 7710
SWIDTH 551 0
DWIDTH 11 0
BBX 13 17 0 0
BITMAP
0300
0000
1FF8
0608
0C18
0C00
0C00
0C00
0C20
1FC0
1840
1800
1800
1800
3000
3000
FC00
ENDCHAR
STARTCHAR uni1E1F
ENCODING 7711
SWIDTH 380 0
DWIDTH 8 0
BBX 10 22 1 -4
BITMAP
0600
0000
03C0
0440
0CC0
0800
1800
7F00
1800
3000
3000
3000
3000
3000
6000
6000
6000
6000
6000
C000
C000
C000
ENDCHAR
STARTCHAR uni1E20
ENCODING 7712
SWIDTH 756 0
DWIDTH 15 0
BBX 14 17 2 0
BITMAP
07E0
0000
03FC
0E08
1808
3000
7000
6000
6000
C000
C0FC
C030
C030
E060
6060
7060
1F80
ENDCHAR
STARTCHAR uni1E21
ENCODING 7713
SWIDTH 602 0
DWIDTH 12 0
BBX 11 17 1 -4
BITMAP
0FC0
0000
07E0
0860
1060
3040
30C0
60C0
61C0
61C0
6280
6580
3980
0180
8100
C200
7C00
ENDCHAR
STARTCHAR uni1E22
ENCODING 7714
SWIDTH 776 0
DWIDTH 16 0
BBX 17 17 1 0
BITMAP
00C000
000000
1F1F80
0E0600
0C0600
0C0600
0C0E00
0C0C00
180C00
1FFC00
180C00
181C00
181800
301800
301800
303800
FC7C00
ENDCHAR
STARTCHAR uni1E23
ENCODING 7715
SWIDTH 631 0
DWIDTH 13 0
BBX 11 17 2 0
BITMAP
1800
0000
7800
1800
1800
3000
31C0
3260
3460
2840
70C0
60C0
60C0
60C0
4080
C180
C1E0
ENDCHAR
STARTCHAR uni1E24
ENCODING 7716
SWIDTH 776 0
DWIDTH 16 0
BBX 17 17 1 -2
BITMAP
1F1F80
0E0600
0C0600
0C0600
0C0E00
0C0C00
180C00
1FFC00
180C00
181C00
181800
301800
301800
303800
FC7C00
000000
018000
ENDCHAR
STARTCHAR uni1E25
ENCODING 7717
SWIDTH 631 0
DWIDTH 13 0
BBX 11 17 2 -2
BITMAP
7800
1800
1800
3000
31C0
3260
3460
2840
70C0
60C0
60C0
60C0
4080
C180
C1E0
0000
0600
ENDCHAR
STARTCHAR uni1E26
ENCODING 7718
SWIDTH 776 0
DWIDTH 16 0
BBX 17 17 1 0
BITMAP
033000
000000
1F1F80
0E0600
0C0600
0C0600
0C0E00
0C0C00
180C00
1FFC00
180C00
181C00
181800
301800
301800
303800
FC7C00
ENDCHAR
STARTCHAR uni1E27
ENCODING 7719
SWIDTH 631 0
DWIDTH 13 0
BBX 11 17 2 0
BITMAP
6600
0000
7800
1800
1800
3000
31C0
3260
3460
2840
70C0
60C0
60C0
60C0
4080
C180
C1E0
ENDCHAR
STARTCHAR uni1E28
ENCODING 7720
SWIDTH 776 0
DWIDTH 16 0
BBX 17 19 1 -4
BITMAP
1F1F80
0E0600
0C0600
0C0600
0C0E00
0C0C00
180C00
1FFC00
180C00
181C00
181800
301800
301800
303800
FDFC00
010000
008000
008000
030000
ENDCHAR
STARTCHAR uni1E29
ENCODING 7721
SWIDTH 631 0
DWIDTH 13 0
BBX 11 19 2 -4
BITMAP
7800
1800
1800
3000
31C0
3260
3460
2840
70C0
60C0
60C0
60C0
4080
C180
C7E0
0400
0200
0200
0C00
ENDCHAR
STARTCHAR uni1E2A
ENCODING 7722
SWIDTH 776 0
DWIDTH 16 0
BBX 17 19 1 -4
BITMAP
1F1F80
0E0600
0C0600
0C0600
0C0E00
0C0C00
180C00
1FFC00
180C00
181C00
181800
301800
301800
303800
FC7C00
000000
082000
0CC000
078000
ENDCHAR
STARTCHAR uni1E2B
ENCODING 7723
SWIDTH 631 0
DWIDTH 13 0
BBX 11 19 2 -4
BITMAP
7800
1800
1800
3000
31C0
3260
3460
2840
70C0
60C0
60C0
60C0
4080
C180
C1E0
0000
2080
3300
1E00
ENDCHAR
STARTCHAR uni1E2C
ENCODING 7724
SWIDTH 325 0
DWIDTH 7 0
BBX 9 18 0 -3
BITMAP
1F80
0600
0600
0C00
0C00
0C00
0C00
1C00
1800
1800
1800
1800
3000
3000
FC00
0000
3200
4C00
ENDCHAR
STARTCHAR uni1E2D
ENCODING 7725
SWIDTH 289 0
DWIDTH 6 0
BBX 6 18 1 -3
BITMAP
0C
00
00
00
78
18
18
10
30
30
30
30
20
60
78
00
64
98
ENDCHAR
STARTCHAR uni1E2E
ENCODING 7726
SWIDTH 325 0
DWIDTH 7 0
BBX 10 21 0 0
BITMAP
0380
0600
0C00
0000
0CC0
0000
1F80
0600
0600
0C00
0C00
0C00
0C00
1C00
1800
1800
1800
1800
3000
3000
FC00
ENDCHAR
STARTCHAR uni1E2F
ENCODING 7727
SWIDTH 289 0
DWIDTH 6 0
BBX 7 17 2 0
BITMAP
0E
18
30
00
66
00
F0
30
20
60
60
60
60
40
C0
C0
F0
ENDCHAR
STARTCHAR uni1E30
ENCODING 7728
SWIDTH 698 0
DWIDTH 14 0
BBX 15 19 1 0
BITMAP
00E0
0180
0300
0000
1F1E
0E0C
0C10
0C20
0CC0
0D80
1B00
1F00
1B00
1980
19C0
30C0
3060
3070
FCF8
ENDCHAR
STARTCHAR uni1E31
ENCODING 7729
SWIDTH 560 0
DWIDTH 11 0
BBX 10 19 2 0
BITMAP
0E00
1800
3000
0000
7800
1800
1000
3000
30C0
3080
3180
2600
6800
7800
6C00
6E00
4600
C300
C3C0
ENDCHAR
STARTCHAR uni1E32
ENCODING 7730
SWIDTH 698 0
DWIDTH 14 0
BBX 15 17 1 -2
BITMAP
1F1E
0E0C
0C10
0C20
0CC0
0D80
1B00
1F00
1B00
1980
19C0
30C0
3060
3070
FCF8
0000
0300
ENDCHAR
STARTCHAR uni1E33
ENCODING 7731
SWIDTH 560 0
DWIDTH 11 0
BBX 10 17 2 -2
BITMAP
7800
1800
1000
3000
30C0
3080
3180
2600
6800
7800
6C00
6E00
4600
C300
C3C0
0000
0C00
ENDCHAR
STARTCHAR uni1E34
ENCODING 7732
SWIDTH 698 0
DWIDTH 14 0
BBX 15 17 1 -2
BITMAP
1F1E
0E0C
0C10
0C20
0CC0
0D80
1B00
1F00
1B00
1980
19C0
30C0
3060
3070
FCF8
0000
0FC0
ENDCHAR
STARTCHAR uni1E35
ENCODING 7733
SWIDTH 560 0
DWIDTH 11 0
BBX 10 17 2 -2
BITMAP
7800
1800
1000
3000
30C0
3080
3180
2600
6800
7800
6C00
6E00
4600
C300
C3C0
0000
3F00
ENDCHAR
STARTCHAR uni1E36
ENCODING 7734
SWIDTH 572 0
DWIDTH 11 0
BBX 11 17 1 -2
BITMAP
1F00
0E00
0C00
0C00
0C00
0C00
1800
1800
1800
1800
1800
3000
3020
3060
FFE0
0000
0C00
ENDCHAR
STARTCHAR uni1E37
ENCODING 7735
SWIDTH 289 0
DWIDTH 6 0
BBX 5 17 2 -2
BITMAP
78
18
10
30
30
30
30
20
60
60
60
60
40
C0
F0
00
60
ENDCHAR
STARTCHAR uni1E38
ENCODING 7736
SWIDTH 572 0
DWIDTH 11 0
BBX 11 19 1 -2
BITMAP
3F00
0000
1F00
0E00
0C00
0C00
0C00
0C00
1800
1800
1800
1800
1800
3000
3020
3060
FFE0
0000
0C00
ENDCHAR
STARTCHAR uni1E39
ENCODING 7737
SWIDTH 289 0
DWIDTH 6 0
BBX 6 19 2 -2
BITMAP
FC
00
78
18
10
30
30
30
30
20
60
60
60
60
40
C0
F0
00
60
ENDCHAR
STARTCHAR uni1E3A
ENCODING 7738
SWIDTH 572 0
DWIDTH 11 0
BBX 11 17 1 -2
BITMAP
1F00
0E00
0C00
0C00
0C00
0C00
1800
1800
1800
1800
1800
3000
3020
3060
FFE0
0000
3F00
ENDCHAR
STARTCHAR uni1E3B
ENCODING 7739
SWIDTH 289 0
DWIDTH 6 0
BBX 6 17 1 -2
BITMAP
3C
0C
08
18
18
18
18
10
30
30
30
30
20
60
78
00
FC
ENDCHAR
STARTCHAR uni1E3C
ENCODING 7740
SWIDTH 572 0
DWIDTH 11 0
BBX 11 19 1 -4
BITMAP
1F00
0E00
0C00
0C00
0C00
0C00
1800
1800
1800
1800
1800
3000
3020
3060
FFE0
0000
0E00
1A00
2100
ENDCHAR
STARTCHAR uni1E3D
ENCODING 7741
SWIDTH 289 0
DWIDTH 6 0
BBX 6 19 1 -4
BITMAP
3C
0C
08
18
18
18
18
10
30
30
30
30
20
60
78
00
38
68
84
ENDCHAR
STARTCHAR uni1E3E
ENCODING 7742
SWIDTH 865 0
DWIDTH 17 0
BBX 19 19 1 0
BITMAP
001C00
003000
006000
000000
1E01E0
0E0380
0E0380
0E0580
0B0F00
0B0B00
131300
131300
112300
11E200
11C600
318600
208600
200E00
F81F00
ENDCHAR
STARTCHAR uni1E3F
ENCODING 7743
SWIDTH 944 0
DWIDTH 19 0
BBX 17 15 2 0
BITMAP
007000
00C000
018000
000000
F1C700
36C980
3CD180
78F180
70E300
60C300
618300
618300
C18200
C18600
C18780
ENDCHAR
STARTCHAR uni1E40
ENCODING 7744
SWIDTH 865 0
DWIDTH 17 0
BBX 19 17 1 0
BITMAP
006000
000000
1E01E0
0E0380
0E0380
0E0580
0B0F00
0B0B00
131300
131300
112300
11E200
11C600
318600
208600
200E00
F81F00
ENDCHAR
STARTCHAR uni1E41
ENCODING 7745
SWIDTH 944 0
DWIDTH 19 0
BBX 17 13 2 0
BITMAP
018000
000000
F1C700
36C980
3CD180
78F180
70E300
60C300
618300
618300
C18200
C18600
C18780
ENDCHAR
STARTCHAR uni1E42
ENCODING 7746
SWIDTH 865 0
DWIDTH 17 0
BBX 19 17 1 -2
BITMAP
1E01E0
0E0380
0E0380
0E0580
0B0F00
0B0B00
131300
131300
112300
11E200
11C600
318600
208600
200E00
F81F00
000000
00C000
ENDCHAR
STARTCHAR uni1E43
ENCODING 7747
SWIDTH 944 0
DWIDTH 19 0
BBX 17 13 2 -2
BITMAP
F1C700
36C980
3CD180
78F180
70E300
60C300
618300
618300
C18200
C18600
C18780
000000
018000
ENDCHAR
STARTCHAR uni1E44
ENCODING 7748
SWIDTH 762 0
DWIDTH 15 0
BBX 17 17 0 0
BITMAP
00C000
000000
1C0780
0E0300
0E0200
0F0200
0B0200
098400
118400
10C400
10C400
106400
107400
203800
203800
201800
F80800
ENDCHAR
STARTCHAR uni1E45
ENCODING 7749
SWIDTH 631 0
DWIDTH 13 0
BBX 11 13 2 0
BITMAP
0600
0000
F1C0
3260
3460
2840
70C0
60C0
60C0
60C0
4080
C180
C1E0
ENDCHAR
STARTCHAR uni1E46
ENCODING 7750
SWIDTH 762 0
DWIDTH 15 0
BBX 17 17 0 -2
BITMAP
1C0780
0E0300
0E0200
0F0200
0B0200
098400
118400
10C400
10C400
106400
107400
203800
203800
201800
F80800
000000
018000
ENDCHAR
STARTCHAR uni1E47
ENCODING 7751
SWIDTH 631 0
DWIDTH 13 0
BBX 11 13 2 -2
BITMAP
F1C0
3260
3460
2840
70C0
60C0
60C0
60C0
4080
C180
C1E0
0000
0600
ENDCHAR
STARTCHAR uni1E48
ENCODING 7752
SWIDTH 762 0
DWIDTH 15 0
BBX 17 17 0 -2
BITMAP
1C0780
0E0300
0E0200
0F0200
0B0200
098400
118400
10C400
10C400
106400
107400
203800
203800
201800
F80800
000000
07E000
ENDCHAR
STARTCHAR uni1E49
ENCODING 7753
SWIDTH 631 0
DWIDTH 13 0
BBX 11 13 2 -2
BITMAP
F1C0
3260
3460
2840
70C0
60C0
60C0
60C0
4080
C180
C1E0
0000
1F80
ENDCHAR
STARTCHAR uni1E4A
ENCODING 7754
SWIDTH 762 0
DWIDTH 15 0
BBX 17 19 0 -4
BITMAP
1C0780
0E0300
0E0200
0F0200
0B0200
098400
118400
10C400
10C400
106400
107400
203800
203800
201800
F80800
000000
038000
068000
084000
ENDCHAR
STARTCHAR uni1E4B
ENCODING 7755
SWIDTH 631 0
DWIDTH 13 0
BBX 11 15 2 -4
BITMAP
F1C0
3260
3460
2840
70C0
60C0
60C0
60C0
4080
C180
C1E0
0000
0E00
1A00
2100
ENDCHAR
STARTCHAR uni1E4C
ENCODING 7756
SWIDTH 783 0
DWIDTH 16 0
BBX 14 22 2 0
BITMAP
0070
00C0
0180
0000
0190
0260
0000
03E0
0C38
1818
300C
600C
600C
600C
C00C
C00C
C018
C018
C030
6060
70C0
1F00
ENDCHAR
STARTCHAR uni1E4D
ENCODING 7757
SWIDTH 560 0
DWIDTH 11 0
BBX 10 18 2 0
BITMAP
01C0
0300
0600
0000
0640
0980
0000
0F00
1980
30C0
60C0
60C0
C0C0
C180
C180
C300
E600
7C00
ENDCHAR
STARTCHAR uni1E4E
ENCODING 7758
SWIDTH 783 0
DWIDTH 16 0
BBX 14 20 2 0
BITMAP
0660
0000
0190
0260
0000
03E0
0C38
1818
300C
600C
600C
600C
C00C
C00C
C018
C018
C030
6060
70C0
1F00
ENDCHAR
STARTCHAR uni1E4F
ENCODING 7759
SWIDTH 560 0
DWIDTH 11 0
BBX 10 16 2 0
BITMAP
1980
0000
0640
0980
0000
0F00
1980
30C0
60C0
60C0
C0C0
C180
C180
C300
E600
7C00
ENDCHAR
STARTCHAR uni1E50
ENCODING 7760
SWIDTH 783 0
DWIDTH 16 0
BBX 14 21 2 0
BITMAP
0700
0100
0080
0000
07E0
0000
03E0
0C38
1818
300C
600C
600C
600C
C00C
C00C
C018
C018
C030
6060
70C0
1F00
ENDCHAR
STARTCHAR uni1E51
ENCODING 7761
SWIDTH 560 0
DWIDTH 11 0
BBX 10 17 2 0
BITMAP
1C00
0400
0200
0000
1F80
0000
0F00
1980
30C0
60C0
60C0
C0C0
C180
C180
C300
E600
7C00
ENDCHAR
STARTCHAR uni1E52
ENCODING 7762
SWIDTH 783 0
DWIDTH 16 0
BBX 14 21 2 0
BITMAP
00E0
0180
0300
0000
07E0
0000
03E0
0C38
1818
300C
600C
600C
600C
C00C
C00C
C018
C018
C030
6060
70C0
1F00
ENDCHAR
STARTCHAR uni1E53
ENCODING 7763
SWIDTH 560 0
DWIDTH 11 0
BBX 10 17 2 0
BITMAP
0380
0600
0C00
0000
1F80
0000
0F00
1980
30C0
60C0
60C0
C0C0
C180
C180
C300
E600
7C00
ENDCHAR
STARTCHAR uni1E54
ENCODING 7764
SWIDTH 579 0
DWIDTH 12 0
BBX 13 19 0 0
BITMAP
00E0
0180
0300
0000
1FF0
0E38
0C18
0C18
0C18
0C30
0C30
18E0
1F80
1800
1800
3800
3000
3000
FC00
ENDCHAR
STARTCHAR uni1E55
ENCODING 7765
SWIDTH 608 0
DWIDTH 12 0
BBX 11 19 2 -4
BITMAP
0380
0600
0C00
0000
79C0
3260
3460
3860
3860
3040
20C0
6080
6180
6100
7E00
4000
C000
C000
C000
ENDCHAR
STARTCHAR uni1E56
ENCODING 7766
SWIDTH 579 0
DWIDTH 12 0
BBX 13 17 0 0
BITMAP
0180
0000
1FF0
0E38
0C18
0C18
0C18
0C30
0C30
18E0
1F80
1800
1800
3800
3000
3000
FC00
ENDCHAR
STARTCHAR uni1E57
ENCODING 7767
SWIDTH 608 0
DWIDTH 12 0
BBX 11 17 2 -4
BITMAP
0600
0000
79C0
3260
3460
3860
3860
3040
20C0
6080
6180
6100
7E00
4000
C000
C000
C000
ENDCHAR
STARTCHAR uni1E58
ENCODING 7768
SWIDTH 686 0
DWIDTH 14 0
BBX 13 17 1 0
BITMAP
0180
0000
1FF0
0C70
0C30
0C38
0C30
1C20
18C0
1F80
1980
19C0
18C0
30C0
3060
3070
FC38
ENDCHAR
STARTCHAR uni1E59
ENCODING 7769
SWIDTH 470 0
DWIDTH 9 0
BBX 9 13 2 0
BITMAP
1800
0000
F180
3700
3C00
6800
7000
6000
6000
6000
C000
C000
C000
ENDCHAR
STARTCHAR uni1E5A
ENCODING 7770
SWIDTH 686 0
DWIDTH 14 0
BBX 13 17 1 -2
BITMAP
1FF0
0C70
0C30
0C38
0C30
1C20
18C0
1F80
1980
19C0
18C0
30C0
3060
3070
FC38
0000
0600
ENDCHAR
STARTCHAR uni1E5B
ENCODING 7771
SWIDTH 470 0
DWIDTH 9 0
BBX 9 13 2 -2
BITMAP
F180
3700
3C00
6800
7000
6000
6000
6000
C000
C000
C000
0000
6000
ENDCHAR
STARTCHAR uni1E5C
ENCODING 7772
SWIDTH 686 0
DWIDTH 14 0
BBX 13 19 1 -2
BITMAP
07E0
0000
1FF0
0C70
0C30
0C38
0C30
1C20
18C0
1F80
1980
19C0
18C0
30C0
3060
3070
FC38
0000
0600
ENDCHAR
STARTCHAR uni1E5D
ENCODING 7773
SWIDTH 470 0
DWIDTH 9 0
BBX 9 15 2 -2
BITMAP
7E00
0000
F180
3700
3C00
6800
7000
6000
6000
6000
C000
C000
C000
0000
6000
ENDCHAR
STARTCHAR uni1E5E
ENCODING 7774
SWIDTH 686 0
DWIDTH 14 0
BBX 13 17 1 -2
BITMAP
1FF0
0C70
0C30
0C38
0C30
1C20
18C0
1F80
1980
19C0
18C0
30C0
3060
3070
FC38
0000
1F80
ENDCHAR
STARTCHAR uni1E5F
ENCODING 7775
SWIDTH 470 0
DWIDTH 9 0
BBX 10 13 1 -2
BITMAP
78C0
1B80
1E00
3400
3800
3000
3000
3000
6000
6000
6000
0000
FC00
ENDCHAR
STARTCHAR uni1E60
ENCODING 7776
SWIDTH 549 0
DWIDTH 11 0
BBX 11 17 1 0
BITMAP
0600
0000
07C0
1860
1820
3020
3800
1800
1C00
0700
0380
0180
0180
C180
8180
C300
7E00
ENDCHAR
STARTCHAR uni1E61
ENCODING 7777
SWIDTH 440 0
DWIDTH 9 0
BBX 9 13 1 0
BITMAP
0C00
0000
0F00
1880
3080
3000
1800
0E00
0600
8300
8300
C700
7C00
ENDCHAR
STARTCHAR uni1E62
ENCODING 7778
SWIDTH 549 0
DWIDTH 11 0
BBX 11 17 1 -2
BITMAP
07C0
1860
1820
3020
3800
1800
1C00
0700
0380
0180
0180
C180
8180
C300
7E00
0000
0C00
ENDCHAR
STARTCHAR uni1E63
ENCODING 7779
SWIDTH 440 0
DWIDTH 9 0
BBX 9 13 1 -2
BITMAP
0F00
1880
3080
3000
1800
0E00
0600
8300
8300
C700
7C00
0000
1800
ENDCHAR
STARTCHAR uni1E64
ENCODING 7780
SWIDTH 549 0
DWIDTH 11 0
BBX 11 21 1 0
BITMAP
0300
0000
01C0
0300
0600
0000
07C0
1860
1820
3020
3800
1800
1C00
0700
0380
0180
0180
C180
8180
C300
7E00
ENDCHAR
STARTCHAR uni1E65
ENCODING 7781
SWIDTH 440 0
DWIDTH 9 0
BBX 9 17 1 0
BITMAP
0600
0000
0380
0600
0C00
0000
0F00
1880
3080
3000
1800
0E00
0600
8300
8300
C700
7C00
ENDCHAR
STARTCHAR uni1E66
ENCODING 7782
SWIDTH 549 0
DWIDTH 11 0
BBX 11 21 1 0
BITMAP
0300
0000
0420
02C0
0380
0000
07C0
1860
1820
3020
3800
1800
1C00
0700
0380
0180
0180
C180
8180
C300
7E00
ENDCHAR
STARTCHAR uni1E67
ENCODING 7783
SWIDTH 440 0
DWIDTH 9 0
BBX 10 17 1 0
BITMAP
0600
0000
0840
0580
0700
0000
0F00
1880
3080
3000
1800
0E00
0600
8300
8300
C700
7C00
ENDCHAR
STARTCHAR uni1E68
ENCODING 7784
SWIDTH 549 0
DWIDTH 11 0
BBX 11 19 1 -2
BITMAP
0600
0000
07C0
1860
1820
3020
3800
1800
1C00
0700
0380
0180
0180
C180
8180
C300
7E00
0000
0C00
ENDCHAR
STARTCHAR uni1E69
ENCODING 7785
SWIDTH 440 0
DWIDTH 9 0
BBX 9 15 1 -2
BITMAP
0C00
0000
0F00
1880
3080
3000
1800
0E00
0600
8300
8300
C700
7C00
0000
1800
ENDCHAR
STARTCHAR uni1E6A
ENCODING 7786
SWIDTH 663 0
DWIDTH 13 0
BBX 13 17 3 0
BITMAP
0600
0000
FFF8
C708
8618
0600
0600
0600
0E00
0C00
0C00
0C00
0C00
1C00
1800
1800
7E00
ENDCHAR
STARTCHAR uni1E6B
ENCODING 7787
SWIDTH 355 0
DWIDTH 7 0
BBX 6 16 2 0
BITMAP
30
00
30
30
30
FC
60
60
60
60
60
C0
C0
C0
C0
70
ENDCHAR
STARTCHAR uni1E6C
ENCODING 7788
SWIDTH 663 0
DWIDTH 13 0
BBX 13 17 3 -2
BITMAP
FFF8
C708
8618
0600
0600
0600
0E00
0C00
0C00
0C00
0C00
1C00
1800
1800
7E00
0000
0C00
ENDCHAR
STARTCHAR uni1E6D
ENCODING 7789
SWIDTH 355 0
DWIDTH 7 0
BBX 6 16 2 -2
BITMAP
30
30
30
FC
60
60
60
60
60
C0
C0
C0
C0
70
00
60
ENDCHAR
STARTCHAR uni1E6E
ENCODING 7790
SWIDTH 663 0
DWIDTH 13 0
BBX 13 17 3 -2
BITMAP
FFF8
C708
8618
0600
0600
0600
0E00
0C00
0C00
0C00
0C00
1C00
1800
1800
7E00
0000
3F00
ENDCHAR
STARTCHAR uni1E6F
ENCODING 7791
SWIDTH 355 0
DWIDTH 7 0
BBX 7 16 1 -2
BITMAP
18
18
18
7E
30
30
30
30
30
60
60
60
60
38
00
FC
ENDCHAR
STARTCHAR uni1E70
ENCODING 7792
SWIDTH 663 0
DWIDTH 13 0
BBX 13 19 3 -4
BITMAP
FFF8
C708
8618
0600
0600
0600
0E00
0C00
0C00
0C00
0C00
1C00
1800
1800
7E00
0000
0E00
1A00
2100
ENDCHAR
STARTCHAR uni1E71
ENCODING 7793
SWIDTH 355 0
DWIDTH 7 0
BBX 7 18 1 -4
BITMAP
18
18
18
7E
30
30
30
30
30
60
60
60
60
38
00
38
68
84
ENDCHAR
STARTCHAR uni1E72
ENCODING 7794
SWIDTH 727 0
DWIDTH 15 0
BBX 14 17 3 -2
BITMAP
FC7C
3010
3010
6010
6020
6020
6020
6020
C020
C040
C040
C040
C080
6180
3E00
0000
3300
ENDCHAR
STARTCHAR uni1E73
ENCODING 7795
SWIDTH 630 0
DWIDTH 13 0
BBX 11 13 2 -2
BITMAP
F1E0
3060
2060
60C0
60C0
60C0
61C0
42C0
C780
CD80
71E0
0000
3300
ENDCHAR
STARTCHAR uni1E74
ENCODING 7796
SWIDTH 727 0
DWIDTH 15 0
BBX 14 18 3 -3
BITMAP
FC7C
3010
3010
6010
6020
6020
6020
6020
C020
C040
C040
C040
C080
6180
3E00
0000
1900
2600
ENDCHAR
STARTCHAR uni1E75
ENCODING 7797
SWIDTH 630 0
DWIDTH 13 0
BBX 11 14 2 -3
BITMAP
F1E0
3060
2060
60C0
60C0
60C0
61C0
42C0
C780
CD80
71E0
0000
1900
2600
ENDCHAR
STARTCHAR uni1E76
ENCODING 7798
SWIDTH 727 0
DWIDTH 15 0
BBX 14 19 3 -4
BITMAP
FC7C
3010
3010
6010
6020
6020
6020
6020
C020
C040
C040
C040
C080
6180
3E00
0000
0E00
1A00
2100
ENDCHAR
STARTCHAR uni1E77
ENCODING 7799
SWIDTH 630 0
DWIDTH 13 0
BBX 11 15 2 -4
BITMAP
F1E0
3060
2060
60C0
60C0
60C0
61C0
42C0
C780
CD80
71E0
0000
0E00
1A00
2100
ENDCHAR
STARTCHAR uni1E78
ENCODING 7800
SWIDTH 727 0
DWIDTH 15 0
BBX 14 22 3 0
BITMAP
01C0
0300
0600
0000
0640
0980
0000
FC7C
3010
3010
6010
6020
6020
6020
6020
C020
C040
C040
C040
C080
6180
3E00
ENDCHAR
STARTCHAR uni1E79
ENCODING 7801
SWIDTH 630 0
DWIDTH 13 0
BBX 11 18 2 0
BITMAP
0380
0600
0C00
0000
0C80
1300
0000
F1E0
3060
2060
60C0
60C0
60C0
61C0
42C0
C780
CD80
71E0
ENDCHAR
STARTCHAR uni1E7A
ENCODING 7802
SWIDTH 727 0
DWIDTH 15 0
BBX 14 19 3 0
BITMAP
0CC0
0000
0FC0
0000
FC7C
3010
3010
6010
6020
6020
6020
6020
C020
C040
C040
C040
C080
6180
3E00
ENDCHAR
STARTCHAR uni1E7B
ENCODING 7803
SWIDTH 630 0
DWIDTH 13 0
BBX 11 15 2 0
BITMAP
1980
0000
1F80
0000
F1E0
3060
2060
60C0
60C0
60C0
61C0
42C0
C780
CD80
71E0
ENDCHAR
STARTCHAR uni1E7C
ENCODING 7804
SWIDTH 656 0
DWIDTH 13 0
BBX 14 18 2 0
BITMAP
0640
0980
0000
F83C
6008
6010
3030
3020
3040
3040
3080
1980
1900
1A00
1A00
1C00
1C00
0800
ENDCHAR
STARTCHAR uni1E7D
ENCODING 7805
SWIDTH 558 0
DWIDTH 11 0
BBX 11 14 1 0
BITMAP
0C80
1300
0000
F060
3020
3060
1860
1840
1880
1900
0B00
0E00
0C00
0800
ENDCHAR
STARTCHAR uni1E7E
ENCODING 7806
SWIDTH 656 0
DWIDTH 13 0
BBX 14 17 2 -2
BITMAP
F83C
6008
6010
3030
3020
3040
3040
3080
1980
1900
1A00
1A00
1C00
1C00
0800
0000
0C00
ENDCHAR
STARTCHAR uni1E7F
ENCODING 7807
SWIDTH 558 0
DWIDTH 11 0
BBX 11 13 1 -2
BITMAP
F060
3020
3060
1860
1840
1880
1900
0B00
0E00
0C00
0800
0000
0C00
ENDCHAR
STARTCHAR Wgrave
ENCODING 7808
SWIDTH 878 0
DWIDTH 18 0
BBX 18 19 3 0
BITMAP
038000
008000
004000
000000
F843C0
60C180
60C100
61C300
61C200
62C600
22C400
244C00
344800
3C7800
387000
387000
306000
306000
204000
ENDCHAR
STARTCHAR wgrave
ENCODING 7809
SWIDTH 805 0
DWIDTH 16 0
BBX 16 15 1 0
BITMAP
0700
0100
0080
0000
E087
30C3
31C2
31C6
13C4
1A4C
1E68
1C70
1C70
1860
1040
ENDCHAR
STARTCHAR Wacute
ENCODING 7810
SWIDTH 878 0
DWIDTH 18 0
BBX 18 19 3 0
BITMAP
007000
00C000
018000
000000
F843C0
60C180
60C100
61C300
61C200
62C600
22C400
244C00
344800
3C7800
387000
387000
306000
306000
204000
ENDCHAR
STARTCHAR wacute
ENCODING 7811
SWIDTH 805 0
DWIDTH 16 0
BBX 16 15 1 0
BITMAP
0070
00C0
0180
0000
E087
30C3
31C2
31C6
13C4
1A4C
1E68
1C70
1C70
1860
1040
ENDCHAR
STARTCHAR Wdieresis
ENCODING 7812
SWIDTH 878 0
DWIDTH 18 0
BBX 18 17 3 0
BITMAP
033000
000000
F843C0
60C180
60C100
61C300
61C200
62C600
22C400
244C00
344800
3C7800
387000
387000
306000
306000
204000
ENDCHAR
STARTCHAR wdieresis
ENCODING 7813
SWIDTH 805 0
DWIDTH 16 0
BBX 16 13 1 0
BITMAP
0660
0000
E087
30C3
31C2
31C6
13C4
1A4C
1E68
1C70
1C70
1860
1040
ENDCHAR
STARTCHAR uni1E86
ENCODING 7814
SWIDTH 878 0
DWIDTH 18 0
BBX 18 17 3 0
BITMAP
00C000
000000
F843C0
60C180
60C100
61C300
61C200
62C600
22C400
244C00
344800
3C7800
387000
387000
306000
306000
204000
ENDCHAR
STARTCHAR uni1E87
ENCODING 7815
SWIDTH 805 0
DWIDTH 16 0
BBX 16 13 1 0
BITMAP
0180
0000
E087
30C3
31C2
31C6
13C4
1A4C
1E68
1C70
1C70
1860
1040
ENDCHAR
STARTCHAR uni1E88
ENCODING 7816
SWIDTH 878 0
DWIDTH 18 0
BBX 18 17 3 -2
BITMAP
F843C0
60C180
60C100
61C300
61C200
62C600
22C400
244C00
344800
3C7800
387000
387000
306000
306000
204000
000000
030000
ENDCHAR
STARTCHAR uni1E89
ENCODING 7817
SWIDTH 805 0
DWIDTH 16 0
BBX 16 13 1 -2
BITMAP
E087
30C3
31C2
31C6
13C4
1A4C
1E68
1C70
1C70
1860
1040
0000
0300
ENDCHAR
STARTCHAR uni1E8A
ENCODING 7818
SWIDTH 624 0
DWIDTH 12 0
BBX 16 17 0 0
BITMAP
00C0
0000
1F8F
0606
0608
0318
0330
01E0
01C0
01C0
01C0
02E0
0460
0860
1030
2030
F0FC
ENDCHAR
STARTCHAR uni1E8B
ENCODING 7819
SWIDTH 510 0
DWIDTH 10 0
BBX 10 13 1 0
BITMAP
0C00
0000
70C0
38C0
1880
1900
0E00
0C00
1600
2600
4300
C380
C1C0
ENDCHAR
STARTCHAR uni1E8C
ENCODING 7820
SWIDTH 624 0
DWIDTH 12 0
BBX 16 17 0 0
BITMAP
0330
0000
1F8F
0606
0608
0318
0330
01E0
01C0
01C0
01C0
02E0
0460
0860
1030
2030
F0FC
ENDCHAR
STARTCHAR uni1E8D
ENCODING 7821
SWIDTH 510 0
DWIDTH 10 0
BBX 10 13 1 0
BITMAP
3300
0000
70C0
38C0
1880
1900
0E00
0C00
1600
2600
4300
C380
C1C0
ENDCHAR
STARTCHAR uni1E8E
ENCODING 7822
SWIDTH 663 0
DWIDTH 13 0
BBX 13 17 3 0
BITMAP
0600
0000
F878
7030
3020
3040
3880
1900
1B00
0E00
0C00
0C00
0C00
1800
1800
1800
7E00
ENDCHAR
STARTCHAR uni1E8F
ENCODING 7823
SWIDTH 558 0
DWIDTH 11 0
BBX 13 17 0 -4
BITMAP
0300
0000
7830
1818
1810
0C20
0C20
0C40
0C80
0500
0500
0600
0400
0800
1000
3000
E000
ENDCHAR
STARTCHAR uni1E90
ENCODING 7824
SWIDTH 633 0
DWIDTH 13 0
BBX 13 19 1 0
BITMAP
01C0
0340
0420
0000
1FF8
1030
1070
0060
00C0
0180
0300
0700
0600
0C00
1800
3800
7020
6060
FFE0
ENDCHAR
STARTCHAR uni1E91
ENCODING 7825
SWIDTH 536 0
DWIDTH 11 0
BBX 10 15 1 0
BITMAP
0700
0D00
1080
0000
3FC0
2180
2300
0300
0600
0C00
1800
3000
6080
6180
FF80
ENDCHAR
STARTCHAR uni1E92
ENCODING 7826
SWIDTH 633 0
DWIDTH 13 0
BBX 13 17 1 -2
BITMAP
1FF8
1030
1070
0060
00C0
0180
0300
0700
0600
0C00
1800
3800
7020
6060
FFE0
0000
0600
ENDCHAR
STARTCHAR uni1E93
ENCODING 7827
SWIDTH 536 0
DWIDTH 11 0
BBX 10 13 1 -2
BITMAP
3FC0
2180
2300
0300
0600
0C00
1800
3000
6080
6180
FF80
0000
0C00
ENDCHAR
STARTCHAR uni1E94
ENCODING 7828
SWIDTH 633 0
DWIDTH 13 0
BBX 13 17 1 -2
BITMAP
1FF8
1030
1070
0060
00C0
0180
0300
0700
0600
0C00
1800
3800
7020
6060
FFE0
0000
1F80
ENDCHAR
STARTCHAR uni1E95
ENCODING 7829
SWIDTH 536 0
DWIDTH 11 0
BBX 10 13 1 -2
BITMAP
3FC0
2180
2300
0300
0600
0C00
1800
3000
6080
6180
FF80
0000
3F00
ENDCHAR
STARTCHAR uni1E96
ENCODING 7830
SWIDTH 631 0
DWIDTH 13 0
BBX 11 17 2 -2
BITMAP
7800
1800
1800
3000
31C0
3260
3460
2840
70C0
60C0
60C0
60C0
4080
C180
C1E0
0000
1F80
ENDCHAR
STARTCHAR uni1E97
ENCODING 7831
SWIDTH 355 0
DWIDTH 7 0
BBX 6 16 2 0
BITMAP
CC
00
30
30
30
FC
60
60
60
60
60
C0
C0
C0
C0
70
ENDCHAR
STARTCHAR uni1E98
ENCODING 7832
SWIDTH 805 0
DWIDTH 16 0
BBX 16 15 1 0
BITMAP
01C0
0140
01C0
0000
E087
30C3
31C2
31C6
13C4
1A4C
1E68
1C70
1C70
1860
1040
ENDCHAR
STARTCHAR uni1E99
ENCODING 7833
SWIDTH 558 0
DWIDTH 11 0
BBX 13 19 0 -4
BITMAP
0700
0500
0700
0000
7830
1818
1810
0C20
0C20
0C40
0C80
0500
0500
0600
0400
0800
1000
3000
E000
ENDCHAR
STARTCHAR uni1EA0
ENCODING 7840
SWIDTH 747 0
DWIDTH 15 0
BBX 15 17 0 -2
BITMAP
0020
0060
00E0
00F0
0130
0330
0230
0430
0438
0FF8
1018
1018
2018
601C
F07E
0000
0180
ENDCHAR
STARTCHAR uni1EA1
ENCODING 7841
SWIDTH 608 0
DWIDTH 12 0
BBX 11 13 1 -2
BITMAP
07E0
0860
1060
20C0
60C0
60C0
C1C0
C2C0
C580
CD80
71E0
0000
0C00
ENDCHAR
STARTCHAR uni1EA4
ENCODING 7844
SWIDTH 747 0
DWIDTH 15 0
BBX 15 23 0 0
BITMAP
0038
0060
00C0
0000
0038
0068
0084
0000
0020
0060
00E0
00F0
0130
0330
0230
0430
0438
0FF8
1018
1018
2018
601C
F07E
ENDCHAR
STARTCHAR uni1EA5
ENCODING 7845
SWIDTH 608 0
DWIDTH 12 0
BBX 11 19 1 0
BITMAP
00E0
0180
0300
0000
01C0
0340
0420
0000
07E0
0860
1060
20C0
60C0
60C0
C1C0
C2C0
C580
CD80
71E0
ENDCHAR
STARTCHAR uni1EA6
ENCODING 7846
SWIDTH 747 0
DWIDTH 15 0
BBX 15 23 0 0
BITMAP
01C0
0040
0020
0000
0038
0068
0084
0000
0020
0060
00E0
00F0
0130
0330
0230
0430
0438
0FF8
1018
1018
2018
601C
F07E
ENDCHAR
STARTCHAR uni1EA7
ENCODING 7847
SWIDTH 608 0
DWIDTH 12 0
BBX 11 19 1 0
BITMAP
0E00
0200
0100
0000
01C0
0340
0420
0000
07E0
0860
1060
20C0
60C0
60C0
C1C0
C2C0
C580
CD80
71E0
ENDCHAR
STARTCHAR uni1EAA
ENCODING 7850
SWIDTH 747 0
DWIDTH 15 0
BBX 15 22 0 0
BITMAP
00C8
0130
0000
0038
0068
0084
0000
0020
0060
00E0
00F0
0130
0330
0230
0430
0438
0FF8
1018
1018
2018
601C
F07E
ENDCHAR
STARTCHAR uni1EAB
ENCODING 7851
SWIDTH 608 0
DWIDTH 12 0
BBX 11 18 1 0
BITMAP
0640
0980
0000
01C0
0340
0420
0000
07E0
0860
1060
20C0
60C0
60C0
C1C0
C2C0
C580
CD80
71E0
ENDCHAR
STARTCHAR uni1EAC
ENCODING 7852
SWIDTH 747 0
DWIDTH 15 0
BBX 15 21 0 -2
BITMAP
00E0
01A0
0210
0000
0020
0060
00E0
00F0
0130
0330
0230
0430
0438
0FF8
1018
1018
2018
601C
F07E
0000
0180
ENDCHAR
STARTCHAR uni1EAD
ENCODING 7853
SWIDTH 608 0
DWIDTH 12 0
BBX 11 17 1 -2
BITMAP
0380
0680
0840
0000
07E0
0860
1060
20C0
60C0
60C0
C1C0
C2C0
C580
CD80
71E0
0000
0C00
ENDCHAR
STARTCHAR uni1EAE
ENCODING 7854
SWIDTH 747 0
DWIDTH 15 0
BBX 15 23 0 0
BITMAP
0070
00C0
0180
0000
0208
0330
01E0
0000
0020
0060
00E0
00F0
0130
0330
0230
0430
0438
0FF8
1018
1018
2018
601C
F07E
ENDCHAR
STARTCHAR uni1EAF
ENCODING 7855
SWIDTH 608 0
DWIDTH 12 0
BBX 11 19 1 0
BITMAP
01C0
0300
0600
0000
0820
0CC0
0780
0000
07E0
0860
1060
20C0
60C0
60C0
C1C0
C2C0
C580
CD80
71E0
ENDCHAR
STARTCHAR uni1EB0
ENCODING 7856
SWIDTH 747 0
DWIDTH 15 0
BBX 15 23 0 0
BITMAP
0380
0080
0040
0000
0208
0330
01E0
0000
0020
0060
00E0
00F0
0130
0330
0230
0430
0438
0FF8
1018
1018
2018
601C
F07E
ENDCHAR
STARTCHAR uni1EB1
ENCODING 7857
SWIDTH 608 0
DWIDTH 12 0
BBX 11 19 1 0
BITMAP
0E00
0200
0100
0000
0820
0CC0
0780
0000
07E0
0860
1060
20C0
60C0
60C0
C1C0
C2C0
C580
CD80
71E0
ENDCHAR
STARTCHAR uni1EB4
ENCODING 7860
SWIDTH 747 0
DWIDTH 15 0
BBX 15 22 0 0
BITMAP
0190
0260
0000
0208
0330
01E0
0000
0020
0060
00E0
00F0
0130
0330
0230
0430
0438
0FF8
1018
1018
2018
601C
F07E
ENDCHAR
STARTCHAR uni1EB5
ENCODING 7861
SWIDTH 608 0
DWIDTH 12 0
BBX 11 18 1 0
BITMAP
0640
0980
0000
0820
0CC0
0780
0000
07E0
0860
1060
20C0
60C0
60C0
C1C0
C2C0
C580
CD80
71E0
ENDCHAR
STARTCHAR uni1EB6
ENCODING 7862
SWIDTH 747 0
DWIDTH 15 0
BBX 15 21 0 -2
BITMAP
0208
0330
01E0
0000
0020
0060
00E0
00F0
0130
0330
0230
0430
0438
0FF8
1018
1018
2018
601C
F07E
0000
0180
ENDCHAR
STARTCHAR uni1EB7
ENCODING 7863
SWIDTH 608 0
DWIDTH 12 0
BBX 11 17 1 -2
BITMAP
0820
0CC0
0780
0000
07E0
0860
1060
20C0
60C0
60C0
C1C0
C2C0
C580
CD80
71E0
0000
0C00
ENDCHAR
STARTCHAR uni1EB8
ENCODING 7864
SWIDTH 569 0
DWIDTH 11 0
BBX 13 17 0 -2
BITMAP
1FF8
0608
0C18
0C00
0C00
0C00
0C20
1FC0
1840
1800
1800
1800
3020
3060
FFE0
0000
0600
ENDCHAR
STARTCHAR uni1EB9
ENCODING 7865
SWIDTH 518 0
DWIDTH 10 0
BBX 9 13 2 -2
BITMAP
0F00
1180
2180
6100
4300
C600
F800
C000
C180
6300
3C00
0000
1800
ENDCHAR
STARTCHAR uni1EBC
ENCODING 7868
SWIDTH 569 0
DWIDTH 11 0
BBX 13 18 0 0
BITMAP
0640
0980
0000
1FF8
0608
0C18
0C00
0C00
0C00
0C20
1FC0
1840
1800
1800
1800
3020
3060
FFE0
ENDCHAR
STARTCHAR uni1EBD
ENCODING 7869
SWIDTH 518 0
DWIDTH 10 0
BBX 9 14 2 0
BITMAP
0C80
1300
0000
0F00
1180
2180
6100
4300
C600
F800
C000
C180
6300
3C00
ENDCHAR
STARTCHAR uni1EBE
ENCODING 7870
SWIDTH 569 0
DWIDTH 11 0
BBX 13 23 0 0
BITMAP
00E0
0180
0300
0000
00E0
01A0
0210
0000
1FF8
0608
0C18
0C00
0C00
0C00
0C20
1FC0
1840
1800
1800
1800
3020
3060
FFE0
ENDCHAR
STARTCHAR uni1EBF
ENCODING 7871
SWIDTH 518 0
DWIDTH 10 0
BBX 9 19 2 0
BITMAP
0380
0600
0C00
0000
0700
0D00
1080
0000
0F00
1180
2180
6100
4300
C600
F800
C000
C180
6300
3C00
ENDCHAR
STARTCHAR uni1EC0
ENCODING 7872
SWIDTH 569 0
DWIDTH 11 0
BBX 13 23 0 0
BITMAP
0700
0100
0080
0000
00E0
01A0
0210
0000
1FF8
0608
0C18
0C00
0C00
0C00
0C20
1FC0
1840
1800
1800
1800
3020
3060
FFE0
ENDCHAR
STARTCHAR uni1EC1
ENCODING 7873
SWIDTH 518 0
DWIDTH 10 0
BBX 9 19 2 0
BITMAP
1C00
0400
0200
0000
0700
0D00
1080
0000
0F00
1180
2180
6100
4300
C600
F800
C000
C180
6300
3C00
ENDCHAR
STARTCHAR uni1EC4
ENCODING 7876
SWIDTH 569 0
DWIDTH 11 0
BBX 13 22 0 0
BITMAP
0320
04C0
0000
00E0
01A0
0210
0000
1FF8
0608
0C18
0C00
0C00
0C00
0C20
1FC0
1840
1800
1800
1800
3020
3060
FFE0
ENDCHAR
STARTCHAR uni1EC5
ENCODING 7877
SWIDTH 518 0
DWIDTH 10 0
BBX 9 18 2 0
BITMAP
0C80
1300
0000
0700
0D00
1080
0000
0F00
1180
2180
6100
4300
C600
F800
C000
C180
6300
3C00
ENDCHAR
STARTCHAR uni1EC6
ENCODING 7878
SWIDTH 569 0
DWIDTH 11 0
BBX 13 21 0 -2
BITMAP
0380
0680
0840
0000
1FF8
0608
0C18
0C00
0C00
0C00
0C20
1FC0
1840
1800
1800
1800
3020
3060
FFE0
0000
0600
ENDCHAR
STARTCHAR uni1EC7
ENCODING 7879
SWIDTH 518 0
DWIDTH 10 0
BBX 9 17 2 -2
BITMAP
0E00
1A00
2100
0000
0F00
1180
2180
6100
4300
C600
F800
C000
C180
6300
3C00
0000
1800
ENDCHAR
STARTCHAR uni1ECA
ENCODING 7882
SWIDTH 325 0
DWIDTH 7 0
BBX 9 17 0 -2
BITMAP
1F80
0600
0600
0C00
0C00
0C00
0C00
1C00
1800
1800
1800
1800
3000
3000
FC00
0000
1800
ENDCHAR
STARTCHAR uni1ECB
ENCODING 7883
SWIDTH 289 0
DWIDTH 6 0
BBX 5 17 2 -2
BITMAP
18
00
00
00
F0
30
30
20
60
60
60
60
40
C0
F0
00
60
ENDCHAR
STARTCHAR uni1ECC
ENCODING 7884
SWIDTH 783 0
DWIDTH 16 0
BBX 14 17 2 -2
BITMAP
03E0
0C38
1818
300C
600C
600C
600C
C00C
C00C
C018
C018
C030
6060
70C0
1F00
0000
0600
ENDCHAR
STARTCHAR uni1ECD
ENCODING 7885
SWIDTH 560 0
DWIDTH 11 0
BBX 10 13 2 -2
BITMAP
0F00
1980
30C0
60C0
60C0
C0C0
C180
C180
C300
E600
7C00
0000
1800
ENDCHAR
STARTCHAR uni1ED0
ENCODING 7888
SWIDTH 783 0
DWIDTH 16 0
BBX 14 23 2 0
BITMAP
0070
00C0
0180
0000
00E0
01A0
0210
0000
03E0
0C38
1818
300C
600C
600C
600C
C00C
C00C
C018
C018
C030
6060
70C0
1F00
ENDCHAR
STARTCHAR uni1ED1
ENCODING 7889
SWIDTH 560 0
DWIDTH 11 0
BBX 10 19 2 0
BITMAP
01C0
0300
0600
0000
0380
0680
0840
0000
0F00
1980
30C0
60C0
60C0
C0C0
C180
C180
C300
E600
7C00
ENDCHAR
STARTCHAR uni1ED2
ENCODING 7890
SWIDTH 783 0
DWIDTH 16 0
BBX 14 23 2 0
BITMAP
0700
0100
0080
0000
00E0
01A0
0210
0000
03E0
0C38
1818
300C
600C
600C
600C
C00C
C00C
C018
C018
C030
6060
70C0
1F00
ENDCHAR
STARTCHAR uni1ED3
ENCODING 7891
SWIDTH 560 0
DWIDTH 11 0
BBX 10 19 2 0
BITMAP
1C00
0400
0200
0000
0380
0680
0840
0000
0F00
1980
30C0
60C0
60C0
C0C0
C180
C180
C300
E600
7C00
ENDCHAR
STARTCHAR uni1ED6
ENCODING 7894
SWIDTH 783 0
DWIDTH 16 0
BBX 14 22 2 0
BITMAP
0320
04C0
0000
00E0
01A0
0210
0000
03E0
0C38
1818
300C
600C
600C
600C
C00C
C00C
C018
C018
C030
6060
70C0
1F00
ENDCHAR
STARTCHAR uni1ED7
ENCODING 7895
SWIDTH 560 0
DWIDTH 11 0
BBX 10 18 2 0
BITMAP
0640
0980
0000
0380
0680
0840
0000
0F00
1980
30C0
60C0
60C0
C0C0
C180
C180
C300
E600
7C00
ENDCHAR
STARTCHAR uni1ED8
ENCODING 7896
SWIDTH 783 0
DWIDTH 16 0
BBX 14 21 2 -2
BITMAP
01C0
0340
0420
0000
03E0
0C38
1818
300C
600C
600C
600C
C00C
C00C
C018
C018
C030
6060
70C0
1F00
0000
0600
ENDCHAR
STARTCHAR uni1ED9
ENCODING 7897
SWIDTH 560 0
DWIDTH 11 0
BBX 10 17 2 -2
BITMAP
0700
0D00
1080
0000
0F00
1980
30C0
60C0
60C0
C0C0
C180
C180
C300
E600
7C00
0000
1800
ENDCHAR
STARTCHAR uni1EDA
ENCODING 7898
SWIDTH 783 0
DWIDTH 16 0
BBX 17 19 2 0
BITMAP
003800
006000
00C000
000000
03E380
0C3B80
181900
300F00
600E00
600C00
600C00
C00C00
C00C00
C01800
C01800
C03000
606000
70C000
1F0000
ENDCHAR
STARTCHAR uni1EDB
ENCODING 7899
SWIDTH 560 0
DWIDTH 11 0
BBX 13 15 2 0
BITMAP
00E0
0180
0300
0000
0F38
19B8
30D0
60F0
60E0
C0C0
C180
C180
C300
E600
7C00
ENDCHAR
STARTCHAR uni1EDC
ENCODING 7900
SWIDTH 783 0
DWIDTH 16 0
BBX 17 19 2 0
BITMAP
01C000
004000
002000
000000
03E380
0C3B80
181900
300F00
600E00
600C00
600C00
C00C00
C00C00
C01800
C01800
C03000
606000
70C000
1F0000
ENDCHAR
STARTCHAR uni1EDD
ENCODING 7901
SWIDTH 560 0
DWIDTH 11 0
BBX 13 15 2 0
BITMAP
0700
0100
0080
0000
0F38
19B8
30D0
60F0
60E0
C0C0
C180
C180
C300
E600
7C00
ENDCHAR
STARTCHAR uni1EE0
ENCODING 7904
SWIDTH 783 0
DWIDTH 16 0
BBX 17 18 2 0
BITMAP
00C800
013000
000000
03E380
0C3B80
181900
300F00
600E00
600C00
600C00
C00C00
C00C00
C01800
C01800
C03000
606000
70C000
1F0000
ENDCHAR
STARTCHAR uni1EE1
ENCODING 7905
SWIDTH 560 0
DWIDTH 11 0
BBX 13 14 2 0
BITMAP
0320
04C0
0000
0F38
19B8
30D0
60F0
60E0
C0C0
C180
C180
C300
E600
7C00
ENDCHAR
STARTCHAR uni1EE2
ENCODING 7906
SWIDTH 783 0
DWIDTH 16 0
BBX 17 17 2 -2
BITMAP
03E380
0C3B80
181900
300F00
600E00
600C00
600C00
C00C00
C00C00
C01800
C01800
C03000
606000
70C000
1F0000
000000
030000
ENDCHAR
STARTCHAR uni1EE3
ENCODING 7907
SWIDTH 560 0
DWIDTH 11 0
BBX 13 13 2 -2
BITMAP
0F38
19B8
30D0
60F0
60E0
C0C0
C180
C180
C300
E600
7C00
0000
0C00
ENDCHAR
STARTCHAR uni1EE4
ENCODING 7908
SWIDTH 727 0
DWIDTH 15 0
BBX 14 17 3 -2
BITMAP
FC7C
3010
3010
6010
6020
6020
6020
6020
C020
C040
C040
C040
C080
6180
3E00
0000
0C00
ENDCHAR
STARTCHAR uni1EE5
ENCODING 7909
SWIDTH 630 0
DWIDTH 13 0
BBX 11 13 2 -2
BITMAP
F1E0
3060
2060
60C0
60C0
60C0
61C0
42C0
C780
CD80
71E0
0000
0C00
ENDCHAR
STARTCHAR uni1EE8
ENCODING 7912
SWIDTH 727 0
DWIDTH 15 0
BBX 17 19 3 0
BITMAP
007000
00C000
018000
000000
FC7F80
301380
301100
601300
602600
602400
602000
602000
C02000
C04000
C04000
C04000
C08000
618000
3E0000
ENDCHAR
STARTCHAR uni1EE9
ENCODING 7913
SWIDTH 630 0
DWIDTH 13 0
BBX 14 15 2 0
BITMAP
00E0
0180
0300
0000
F1FC
307C
2068
60D8
60F0
60E0
61C0
42C0
C780
CD80
71E0
ENDCHAR
STARTCHAR uni1EEA
ENCODING 7914
SWIDTH 727 0
DWIDTH 15 0
BBX 17 19 3 0
BITMAP
038000
008000
004000
000000
FC7F80
301380
301100
601300
602600
602400
602000
602000
C02000
C04000
C04000
C04000
C08000
618000
3E0000
ENDCHAR
STARTCHAR uni1EEB
ENCODING 7915
SWIDTH 630 0
DWIDTH 13 0
BBX 14 15 2 0
BITMAP
0700
0100
0080
0000
F1FC
307C
2068
60D8
60F0
60E0
61C0
42C0
C780
CD80
71E0
ENDCHAR
STARTCHAR uni1EEE
ENCODING 7918
SWIDTH 727 0
DWIDTH 15 0
BBX 17 18 3 0
BITMAP
019000
026000
000000
FC7F80
301380
301100
601300
602600
602400
602000
602000
C02000
C04000
C04000
C04000
C08000
618000
3E0000
ENDCHAR
STARTCHAR uni1EEF
ENCODING 7919
SWIDTH 630 0
DWIDTH 13 0
BBX 14 14 2 0
BITMAP
0320
04C0
0000
F1FC
307C
2068
60D8
60F0
60E0
61C0
42C0
C780
CD80
71E0
ENDCHAR
STARTCHAR uni1EF0
ENCODING 7920
SWIDTH 727 0
DWIDTH 15 0
BBX 17 17 3 -2
BITMAP
FC7F80
301380
301100
601300
602600
602400
602000
602000
C02000
C04000
C04000
C04000
C08000
618000
3E0000
000000
060000
ENDCHAR
STARTCHAR uni1EF1
ENCODING 7921
SWIDTH 630 0
DWIDTH 13 0
BBX 14 13 2 -2
BITMAP
F1FC
307C
2068
60D8
60F0
60E0
61C0
42C0
C780
CD80
71E0
0000
0600
ENDCHAR
STARTCHAR Ygrave
ENCODING 7922
SWIDTH 663 0
DWIDTH 13 0
BBX 13 19 3 0
BITMAP
1C00
0400
0200
0000
F878
7030
3020
3040
3880
1900
1B00
0E00
0C00
0C00
0C00
1800
1800
1800
7E00
ENDCHAR
STARTCHAR ygrave
ENCODING 7923
SWIDTH 558 0
DWIDTH 11 0
BBX 13 19 0 -4
BITMAP
0E00
0200
0100
0000
7830
1818
1810
0C20
0C20
0C40
0C80
0500
0500
0600
0400
0800
1000
3000
E000
ENDCHAR
STARTCHAR uni1EF4
ENCODING 7924
SWIDTH 663 0
DWIDTH 13 0
BBX 13 17 3 -2
BITMAP
F878
7030
3020
3040
3880
1900
1B00
0E00
0C00
0C00
0C00
1800
1800
1800
7E00
0000
0C00
ENDCHAR
STARTCHAR uni1EF5
ENCODING 7925
SWIDTH 558 0
DWIDTH 11 0
BBX 13 17 0 -6
BITMAP
7830
1818
1810
0C20
0C20
0C40
0C80
0500
0500
0600
0400
0800
1000
3000
E000
0000
1800
ENDCHAR
STARTCHAR uni1EF8
ENCODING 7928
SWIDTH 663 0
DWIDTH 13 0
BBX 13 18 3 0
BITMAP
0C80
1300
0000
F878
7030
3020
3040
3880
1900
1B00
0E00
0C00
0C00
0C00
1800
1800
1800
7E00
ENDCHAR
STARTCHAR uni1EF9
ENCODING 7929
SWIDTH 558 0
DWIDTH 11 0
BBX 13 18 0 -4
BITMAP
0640
0980
0000
7830
1818
1810
0C20
0C20
0C40
0C80
0500
0500
0600
0400
0800
1000
3000
E000
ENDCHAR
STARTCHAR uni2000
ENCODING 8192
SWIDTH 500 0
DWIDTH 10 0
BBX 1 1 0 0
BITMAP
00
ENDCHAR
STARTCHAR uni2001
ENCODING 8193
SWIDTH 1000 0
DWIDTH 19 0
BBX 1 1 0 0
BITMAP
00
ENDCHAR
STARTCHAR uni2002
ENCODING 8194
SWIDTH 500 0
DWIDTH 10 0
BBX 1 1 0 0
BITMAP
00
ENDCHAR
STARTCHAR uni2003
ENCODING 8195
SWIDTH 1000 0
DWIDTH 19 0
BBX 1 1 0 0
BITMAP
00
ENDCHAR
STARTCHAR uni2004
ENCODING 8196
SWIDTH 333 0
DWIDTH 6 0
BBX 1 1 0 0
BITMAP
00
ENDCHAR
STARTCHAR uni2005
ENCODING 8197
SWIDTH 250 0
DWIDTH 5 0
BBX 1 1 0 0
BITMAP
00
ENDCHAR
STARTCHAR uni2006
ENCODING 8198
SWIDTH 167 0
DWIDTH 3 0
BBX 1 1 0 0
BITMAP
00
ENDCHAR
STARTCHAR uni2007
ENCODING 8199
SWIDTH 608 0
DWIDTH 12 0
BBX 1 1 0 0
BITMAP
00
ENDCHAR
STARTCHAR uni2008
ENCODING 8200
SWIDTH 265 0
DWIDTH 5 0
BBX 1 1 0 0
BITMAP
00
ENDCHAR
STARTCHAR uni2009
ENCODING 8201
SWIDTH 200 0
DWIDTH 4 0
BBX 1 1 0 0
BITMAP
00
ENDCHAR
STARTCHAR uni200A
ENCODING 8202
SWIDTH 100 0
DWIDTH 2 0
BBX 1 1 0 0
BITMAP
00
ENDCHAR
STARTCHAR uni200B
ENCODING 8203
SWIDTH 0 0
DWIDTH 0 0
BBX 1 1 0 0
BITMAP
00
ENDCHAR
STARTCHAR uni2010
ENCODING 8208
SWIDTH 313 0
DWIDTH 6 0
BBX 5 1 2 7
BITMAP
F8
ENDCHAR
STARTCHAR uni2011
ENCODING 8209
SWIDTH 313 0
DWIDTH 6 0
BBX 5 1 2 7
BITMAP
F8
ENDCHAR
STARTCHAR figuredash
ENCODING 8210
SWIDTH 500 0
DWIDTH 10 0
BBX 8 1 2 6
BITMAP
FF
ENDCHAR
STARTCHAR endash
ENCODING 8211
SWIDTH 500 0
DWIDTH 10 0
BBX 8 1 2 6
BITMAP
FF
ENDCHAR
STARTCHAR emdash
ENCODING 8212
SWIDTH 1000 0
DWIDTH 20 0
BBX 18 1 2 6
BITMAP
FFFFC0
ENDCHAR
STARTCHAR afii00208
ENCODING 8213
SWIDTH 1000 0
DWIDTH 20 0
BBX 18 1 2 6
BITMAP
FFFFC0
ENDCHAR
STARTCHAR quoteleft
ENCODING 8216
SWIDTH 265 0
DWIDTH 5 0
BBX 4 6 3 9
BITMAP
30
60
40
40
E0
E0
ENDCHAR
STARTCHAR quoteright
ENCODING 8217
SWIDTH 265 0
DWIDTH 5 0
BBX 4 6 3 9
BITMAP
70
70
20
60
C0
80
ENDCHAR
STARTCHAR quotesinglbase
ENCODING 8218
SWIDTH 265 0
DWIDTH 5 0
BBX 4 7 1 -4
BITMAP
70
70
70
20
20
60
C0
ENDCHAR
STARTCHAR quotereversed
ENCODING 8219
SWIDTH 265 0
DWIDTH 5 0
BBX 4 6 3 9
BITMAP
E0
E0
40
60
30
10
ENDCHAR
STARTCHAR quotedblleft
ENCODING 8220
SWIDTH 457 0
DWIDTH 9 0
BBX 7 6 4 9
BITMAP
26
44
4C
CC
EC
CC
ENDCHAR
STARTCHAR quotedblright
ENCODING 8221
SWIDTH 457 0
DWIDTH 9 0
BBX 7 6 4 9
BITMAP
6E
6E
64
64
CC
88
ENDCHAR
STARTCHAR quotedblbase
ENCODING 8222
SWIDTH 457 0
DWIDTH 9 0
BBX 7 7 1 -4
BITMAP
66
6E
6E
66
64
4C
C8
ENDCHAR
STARTCHAR uni201F
ENCODING 8223
SWIDTH 457 0
DWIDTH 9 0
BBX 7 6 4 9
BITMAP
EC
EC
4C
4C
66
22
ENDCHAR
STARTCHAR dagger
ENCODING 8224
SWIDTH 608 0
DWIDTH 12 0
BBX 9 19 3 -4
BITMAP
0600
0400
0C00
0C00
0800
0800
FF80
0800
0800
1800
1000
1000
1000
3000
3000
3000
3000
2000
6000
ENDCHAR
STARTCHAR daggerdbl
ENCODING 8225
SWIDTH 608 0
DWIDTH 12 0
BBX 10 19 2 -4
BITMAP
0300
0200
0600
0600
0400
7FC0
0400
0400
0400
0400
0800
0800
FF80
0800
0800
1800
1800
1000
3000
ENDCHAR
STARTCHAR bullet
ENCODING 8226
SWIDTH 608 0
DWIDTH 12 0
BBX 6 6 4 4
BITMAP
78
FC
FC
FC
FC
78
ENDCHAR
STARTCHAR ellipsis
ENCODING 8230
SWIDTH 1000 0
DWIDTH 20 0
BBX 16 1 2 0
BITMAP
C183
ENDCHAR
STARTCHAR perthousand
ENCODING 8240
SWIDTH 1065 0
DWIDTH 21 0
BBX 22 15 1 0
BITMAP
1E0300
330400
630800
631000
422000
664000
3C8000
01B838
036444
06C4C4
0C8684
188484
30848C
60C888
C07070
ENDCHAR
STARTCHAR guilsinglleft
ENCODING 8249
SWIDTH 330 0
DWIDTH 7 0
BBX 5 9 2 1
BITMAP
08
10
20
60
C0
40
60
20
20
ENDCHAR
STARTCHAR guilsinglright
ENCODING 8250
SWIDTH 330 0
DWIDTH 7 0
BBX 5 9 2 1
BITMAP
20
20
30
10
18
30
20
40
80
ENDCHAR
STARTCHAR fraction
ENCODING 8260
SWIDTH 36 0
DWIDTH 2 0
BBX 15 15 -4 0
BITMAP
0006
000C
0018
0030
0060
0040
0080
0100
0200
0400
0C00
1800
3000
6000
C000
ENDCHAR
STARTCHAR oneinferior
ENCODING 8321
SWIDTH 365 0
DWIDTH 7 0
BBX 5 9 -10 -5
BITMAP
38
18
10
10
10
10
30
20
F8
ENDCHAR
STARTCHAR twoinferior
ENCODING 8322
SWIDTH 365 0
DWIDTH 7 0
BBX 7 9 -10 -5
BITMAP
3C
26
22
06
08
30
40
40
FC
ENDCHAR
STARTCHAR threeinferior
ENCODING 8323
SWIDTH 365 0
DWIDTH 7 0
BBX 6 9 -10 -5
BITMAP
38
24
04
0C
38
08
0C
88
F0
ENDCHAR
STARTCHAR uni20A5
ENCODING 8357
SWIDTH 944 0
DWIDTH 19 0
BBX 17 19 2 -4
BITMAP
000600
000400
000800
000800
F1D700
36F980
3CF180
78F180
70E300
60C300
618300
618300
C38200
C78600
C58780
080000
080000
100000
300000
ENDCHAR
STARTCHAR uni20A6
ENCODING 8358
SWIDTH 762 0
DWIDTH 15 0
BBX 17 15 0 0
BITMAP
1C0780
0E0300
0E0200
0F0200
0FFE00
098400
118400
10C400
10C400
1FFC00
107400
203800
203800
201800
F80800
ENDCHAR
STARTCHAR uni20A9
ENCODING 8361
SWIDTH 878 0
DWIDTH 18 0
BBX 18 15 3 0
BITMAP
F843C0
60C180
60C100
61C300
6FFE00
62C600
22C400
244C00
344800
3FFC00
387000
387000
306000
306000
204000
ENDCHAR
STARTCHAR Euro
ENCODING 8364
SWIDTH 714 0
DWIDTH 14 0
BBX 16 15 -1 0
BITMAP
007F
0183
0303
0603
7FF0
0C00
0C00
1800
1800
FFE0
1800
1800
0C00
0E0C
03F0
ENDCHAR
STARTCHAR uni20AD
ENCODING 8365
SWIDTH 698 0
DWIDTH 14 0
BBX 15 15 1 0
BITMAP
1F1E
0E0C
0C10
0C20
0CC0
0D80
1B00
FFFE
1B00
1980
19C0
30C0
3060
3070
FCF8
ENDCHAR
STARTCHAR uni2103
ENCODING 8451
SWIDTH 977 0
DWIDTH 20 0
BBX 17 15 4 0
BITMAP
603F80
A0C180
A18180
630180
060000
060000
060000
0C0000
0C0000
0C0000
0C0000
0C0000
060000
070600
01F800
ENDCHAR
STARTCHAR uni2109
ENCODING 8457
SWIDTH 814 0
DWIDTH 17 0
BBX 15 15 4 0
BITMAP
67FE
A182
A306
6300
0300
0300
0308
07F0
0610
0600
0600
0600
0C00
0C00
3F00
ENDCHAR
STARTCHAR trademark
ENCODING 8482
SWIDTH 904 0
DWIDTH 18 0
BBX 17 8 3 7
BITMAP
FFE380
106700
10AA00
30AA00
30B600
20B600
20A600
F30700
ENDCHAR
STARTCHAR uni212A
ENCODING 8490
SWIDTH 698 0
DWIDTH 14 0
BBX 15 15 1 0
BITMAP
1F1E
0E0C
0C10
0C20
0CC0
0D80
1B00
1F00
1B00
1980
19C0
30C0
3060
3070
FCF8
ENDCHAR
STARTCHAR uni212B
ENCODING 8491
SWIDTH 747 0
DWIDTH 15 0
BBX 15 19 0 0
BITMAP
0038
0028
0038
0000
0020
0060
00E0
00F0
0130
0330
0230
0430
0438
0FF8
1018
1018
2018
601C
F07E
ENDCHAR
STARTCHAR uni2132
ENCODING 8498
SWIDTH 551 0
DWIDTH 11 0
BBX 13 15 0 0
BITMAP
01F8
0060
0060
00C0
00C0
00C0
10C0
1FC0
2180
0180
0180
0180
C180
8300
FFC0
ENDCHAR
STARTCHAR minus
ENCODING 8722
SWIDTH 608 0
DWIDTH 12 0
BBX 12 1 1 6
BITMAP
FFF0
ENDCHAR
STARTCHAR fraction
ENCODING 8725
SWIDTH 36 0
DWIDTH 2 0
BBX 15 15 -4 0
BITMAP
0006
000C
0018
0030
0060
0040
0080
0100
0200
0400
0C00
1800
3000
6000
C000
ENDCHAR
STARTCHAR periodcentered
ENCODING 8729
SWIDTH 608 0
DWIDTH 12 0
BBX 2 2 6 6
BITMAP
C0
C0
ENDCHAR
STARTCHAR uni2236
ENCODING 8758
SWIDTH 265 0
DWIDTH 5 0
BBX 5 11 1 0
BITMAP
38
38
00
00
00
00
00
00
00
E0
E0
ENDCHAR
STARTCHAR uni2259
ENCODING 8793
SWIDTH 608 0
DWIDTH 12 0
BBX 12 10 1 3
BITMAP
0700
0D00
1080
0000
7FF0
0000
0000
0000
0000
FFE0
ENDCHAR
STARTCHAR uni225A
ENCODING 8794
SWIDTH 608 0
DWIDTH 12 0
BBX 12 10 1 3
BITMAP
1080
0B00
0E00
0000
7FF0
0000
0000
0000
0000
FFE0
ENDCHAR
STARTCHAR notequal
ENCODING 8800
SWIDTH 608 0
DWIDTH 12 0
BBX 13 19 1 -3
BITMAP
0018
0010
0020
0020
0040
00C0
0080
7FF0
0300
0200
0600
0400
FFE0
1800
1000
2000
2000
4000
C000
ENDCHAR
STARTCHAR equivalence
ENCODING 8801
SWIDTH 608 0
DWIDTH 12 0
BBX 12 5 0 4
BITMAP
FFF0
0000
FFF0
0000
FFF0
ENDCHAR
STARTCHAR uni2262
ENCODING 8802
SWIDTH 608 0
DWIDTH 12 0
BBX 13 19 0 -3
BITMAP
0018
0010
0020
0020
0040
00C0
0080
FFF0
0300
FFF0
0600
FFF0
0800
1800
1000
2000
2000
4000
C000
ENDCHAR
STARTCHAR lessequal
ENCODING 8804
SWIDTH 608 0
DWIDTH 12 0
BBX 13 15 1 -2
BITMAP
0008
0030
00C0
0300
0C00
3000
C000
3000
1C00
0600
0180
00C0
0020
0000
FFF8
ENDCHAR
STARTCHAR greaterequal
ENCODING 8805
SWIDTH 608 0
DWIDTH 12 0
BBX 13 15 0 -2
BITMAP
2000
1800
0C00
0300
01C0
0060
0018
0060
0180
0600
1800
6000
8000
0000
FFF8
ENDCHAR
STARTCHAR uni226E
ENCODING 8814
SWIDTH 608 0
DWIDTH 12 0
BBX 13 19 1 -3
BITMAP
0018
0010
0020
0028
0070
00C0
0380
0D00
3300
C200
3600
1C00
0E00
1980
10C0
2020
2000
4000
C000
ENDCHAR
STARTCHAR uni226F
ENCODING 8815
SWIDTH 608 0
DWIDTH 12 0
BBX 13 19 0 -3
BITMAP
0018
0010
0020
2020
1840
0CC0
0380
01C0
0360
0218
0660
0580
0E00
1800
7000
A000
2000
4000
C000
ENDCHAR
STARTCHAR uni2270
ENCODING 8816
SWIDTH 608 0
DWIDTH 12 0
BBX 13 19 1 -4
BITMAP
0018
0010
0028
0030
00C0
03C0
0C80
3100
C300
3200
1E00
0600
0980
18C0
1020
2000
FFF8
4000
C000
ENDCHAR
STARTCHAR uni2271
ENCODING 8817
SWIDTH 608 0
DWIDTH 12 0
BBX 13 19 0 -4
BITMAP
0018
0010
2020
1820
0C40
03C0
01C0
0160
0318
0260
0780
0600
1800
7800
9000
2000
FFF8
4000
C000
ENDCHAR
STARTCHAR fi
ENCODING -1
SWIDTH 633 0
DWIDTH 13 0
BBX 12 20 2 -4
BITMAP
0780
0CB0
0980
1800
1800
7FE0
1060
3060
3060
30C0
30C0
30C0
60C0
60C0
6180
61E0
6000
C000
C000
C000
ENDCHAR
STARTCHAR fl
ENCODING -1
SWIDTH 645 0
DWIDTH 13 0
BBX 13 20 1 -4
BITMAP
03F8
0438
0C18
0830
1830
7F30
1830
1030
3060
3060
3060
3060
2060
60C0
60C0
60F0
6000
4000
C000
C000
ENDCHAR
ENDFONT
